<svg xmlns="http://www.w3.org/2000/svg" width="14" height="16" viewBox="0 0 14 16">
  <path id="Icon_awesome-atom" data-name="Icon awesome-atom" d="M12.907,8c1.254-1.715,1.3-3.082.786-4-.341-.61-1.267-1.585-3.635-1.309C9.386,1.09,8.364,0,7,0S4.614,1.09,3.943,2.691C1.576,2.417.648,3.39.307,4c-.512.919-.469,2.284.786,4C-.161,9.715-.2,11.082.307,12c.913,1.636,3.178,1.362,3.635,1.309C4.614,14.91,5.636,16,7,16s2.387-1.091,3.058-2.691c.458.053,2.722.327,3.635-1.309C14.2,11.081,14.162,9.716,12.907,8ZM1.981,11c-.126-.225-.006-.775.467-1.509.218.2.444.4.683.6.053.428.125.846.211,1.253-.768.028-1.247-.137-1.362-.343ZM3.131,5.91c-.239.2-.466.4-.683.6C1.975,5.775,1.855,5.225,1.981,5c.107-.192.512-.358,1.185-.358.053,0,.121.009.178.012q-.133.624-.212,1.257ZM7,2c.3,0,.694.423,1.058,1.164-.35.116-.7.25-1.058.4-.357-.152-.708-.286-1.058-.4C6.306,2.423,6.7,2,7,2ZM7,14c-.3,0-.694-.423-1.058-1.164.35-.116.7-.25,1.058-.4.357.152.708.286,1.058.4C7.694,13.578,7.3,14,7,14ZM8.953,9.084A13.362,13.362,0,0,1,7,10.255,13.378,13.378,0,0,1,5.047,9.084a12.6,12.6,0,0,1,0-2.167A13.409,13.409,0,0,1,7,5.746,13.383,13.383,0,0,1,8.953,6.917,12.635,12.635,0,0,1,8.953,9.084ZM12.02,11c-.115.207-.594.369-1.362.342.086-.406.158-.824.211-1.252.239-.2.466-.4.683-.6C12.025,10.225,12.145,10.775,12.02,11Zm-.467-4.491c-.218-.2-.444-.4-.683-.6q-.079-.633-.212-1.257c.057,0,.124-.012.178-.012.673,0,1.078.167,1.185.358.126.226.006.775-.467,1.509ZM7,7A1,1,0,1,0,8,8,1,1,0,0,0,7,7Z" transform="translate(0)" fill="#3b5620"/>
</svg>
