<svg xmlns="http://www.w3.org/2000/svg" xmlns:xlink="http://www.w3.org/1999/xlink" width="190" height="278" viewBox="0 0 190 278">
  <defs>
    <clipPath id="clip-path">
      <rect id="Rectángulo_347505" data-name="Rectángulo 347505" width="24.007" height="32.061" fill="#fff"/>
    </clipPath>
  </defs>
  <g id="Grupo_1071957" data-name="Grupo 1071957" transform="translate(-704.855 -4364)">
    <g id="Trazado_829585" data-name="Trazado 829585" transform="translate(704.855 4579)" fill="#632059">
      <path d="M 180 62.5 L 10 62.5 C 4.761690616607666 62.5 0.5 58.23830795288086 0.5 53 L 0.5 10 C 0.5 4.761690616607666 4.761690616607666 0.5 10 0.5 L 180 0.5 C 185.2383117675781 0.5 189.5 4.761690616607666 189.5 10 L 189.5 53 C 189.5 58.23830795288086 185.2383117675781 62.5 180 62.5 Z" stroke="none"/>
      <path d="M 10 1 C 5.037368774414062 1 1 5.037376403808594 1 10 L 1 53 C 1 57.96262359619141 5.037368774414062 62 10 62 L 180 62 C 184.9626312255859 62 189 57.96262359619141 189 53 L 189 10 C 189 5.037376403808594 184.9626312255859 1 180 1 L 10 1 M 10 0 L 180 0 C 185.5228576660156 0 190 4.477149963378906 190 10 L 190 53 C 190 58.52285003662109 185.5228576660156 63 180 63 L 10 63 C 4.477157592773438 63 0 58.52285003662109 0 53 L 0 10 C 0 4.477149963378906 4.477157592773438 0 10 0 Z" stroke="none" fill="#707070"/>
    </g>
    <path id="Trazado_829586" data-name="Trazado 829586" d="M53.513,14.186a5.193,5.193,0,0,1-.8,2.622,4.833,4.833,0,0,1-2.056,1.763,7,7,0,0,1-3.022.625,5.584,5.584,0,0,1-4.414-1.826,7.54,7.54,0,0,1-1.611-5.156v-.7a8.607,8.607,0,0,1,.728-3.657,5.513,5.513,0,0,1,2.095-2.422,5.844,5.844,0,0,1,3.164-.854,6.129,6.129,0,0,1,4.16,1.362,5.383,5.383,0,0,1,1.787,3.755H50.124a2.547,2.547,0,0,0-.654-1.865,2.691,2.691,0,0,0-1.875-.566,2.048,2.048,0,0,0-1.875.957,6.151,6.151,0,0,0-.625,3.057v1.006a6.806,6.806,0,0,0,.571,3.252,2.091,2.091,0,0,0,1.968.977,2.632,2.632,0,0,0,1.807-.557,2.363,2.363,0,0,0,.664-1.768Zm6.582,5.01a5.432,5.432,0,0,1-3.936-1.45,5.008,5.008,0,0,1-1.5-3.774V13.7a6.489,6.489,0,0,1,.6-2.861,4.395,4.395,0,0,1,1.753-1.919,5.292,5.292,0,0,1,2.734-.679A4.574,4.574,0,0,1,63.259,9.62a5.43,5.43,0,0,1,1.289,3.853v1.279H58a2.372,2.372,0,0,0,.771,1.4,2.3,2.3,0,0,0,1.543.508,2.958,2.958,0,0,0,2.441-1.094l1.5,1.777a4.2,4.2,0,0,1-1.743,1.353A5.891,5.891,0,0,1,60.095,19.2Zm-.371-8.418q-1.445,0-1.719,1.914h3.32v-.254a1.63,1.63,0,0,0-.4-1.226A1.593,1.593,0,0,0,59.724,10.777Zm12.539.635-1.084-.078a1.947,1.947,0,0,0-1.992.977V19H65.9V8.434h3.086l.107,1.357A2.548,2.548,0,0,1,71.4,8.238a3.209,3.209,0,0,1,.918.117Zm.586,2.227a6.455,6.455,0,0,1,1.084-3.955A3.568,3.568,0,0,1,76.96,8.238a3.035,3.035,0,0,1,2.383,1.113V4h3.3V19H79.685l-.166-1.133A3.116,3.116,0,0,1,76.94,19.2a3.562,3.562,0,0,1-2.988-1.445A6.659,6.659,0,0,1,72.849,13.639Zm3.291.205q0,2.813,1.641,2.813a1.62,1.62,0,0,0,1.563-.918V11.715a1.576,1.576,0,0,0-1.543-.937q-1.523,0-1.65,2.461Zm7.959-.225a6.236,6.236,0,0,1,.615-2.817,4.4,4.4,0,0,1,1.768-1.9,5.323,5.323,0,0,1,2.705-.664,4.858,4.858,0,0,1,3.74,1.47,5.64,5.64,0,0,1,1.367,4v.117a5.472,5.472,0,0,1-1.372,3.921,4.871,4.871,0,0,1-3.716,1.45,4.927,4.927,0,0,1-3.623-1.353,5.29,5.29,0,0,1-1.475-3.667Zm3.291.205a3.932,3.932,0,0,0,.459,2.148,1.529,1.529,0,0,0,1.357.684q1.758,0,1.8-2.705v-.332q0-2.842-1.816-2.842-1.65,0-1.787,2.451Zm13.887,2.207a.76.76,0,0,0-.439-.674,6.685,6.685,0,0,0-1.67-.527,7.615,7.615,0,0,1-2.031-.718,3.4,3.4,0,0,1-1.221-1.079,2.577,2.577,0,0,1-.42-1.455,2.92,2.92,0,0,1,1.2-2.4,4.948,4.948,0,0,1,3.145-.942,5.482,5.482,0,0,1,3.359.947,2.962,2.962,0,0,1,1.27,2.49h-3.3q0-1.27-1.338-1.27a1.326,1.326,0,0,0-.869.288.892.892,0,0,0-.352.718.819.819,0,0,0,.43.713,4.06,4.06,0,0,0,1.372.449,11.857,11.857,0,0,1,1.655.42,3.007,3.007,0,0,1,2.383,2.939,2.767,2.767,0,0,1-1.284,2.354,5.631,5.631,0,0,1-3.325.908,5.747,5.747,0,0,1-2.422-.488,4.05,4.05,0,0,1-1.66-1.328,3.007,3.007,0,0,1-.6-1.768h3.076a1.272,1.272,0,0,0,.488,1.069,2.009,2.009,0,0,0,1.2.337,1.58,1.58,0,0,0,1.011-.273A.875.875,0,0,0,101.276,16.031Z" transform="translate(723.855 4599)" fill="#fff"/>
    <g id="Grupo_1071832" data-name="Grupo 1071832">
      <g id="Grupo_1071829" data-name="Grupo 1071829" transform="translate(0 -199)">
        <circle id="Elipse_6201" data-name="Elipse 6201" cx="95" cy="95" r="95" transform="translate(704.855 4563)" fill="#dbf9bd"/>
        <path id="Trazado_829422" data-name="Trazado 829422" d="M-7374.423-6521.478l10.008,8.342,8.756-8.342" transform="translate(8163.562 11248.154)" fill="none" stroke="#1b3f5e" stroke-width="2"/>
        <g id="Grupo_1067504" data-name="Grupo 1067504" transform="translate(752.027 4621.824)">
          <path id="Trazado_805466" data-name="Trazado 805466" d="M397.972,232.531A2.1,2.1,0,0,1,395.8,233.7c-.144.372-.285.7-.4,1.044a6.867,6.867,0,0,1-5.45,4.792q-9.723,1.968-19.45,3.909c-.25.05-.5.1-.747.156-3.726.776-3.76.751-5.966,3.857a4.4,4.4,0,0,0-.776,2.312c-.08,3.71-.049,7.423-.024,11.135a3,3,0,0,0,.337,1.236c.889,1.83,1.824,3.637,2.724,5.462.856,1.738.176,2.849-1.769,2.853q-8.242.019-16.485,0c-1.571,0-2.107-.538-2.11-2.106q-.016-8.9,0-17.8v-1.447c-.522.075-.935.142-1.351.193-1.169.144-1.98-.382-2.111-1.364-.136-1.014.472-1.691,1.642-1.882q3.874-.634,7.742-1.3c.32-.054.633-.148,1.088-.256,0-1.155,0-2.305,0-3.455,0-.692-.023-1.385.024-2.073a1.594,1.594,0,0,1,1.525-1.558,1.621,1.621,0,0,1,1.669,1.414,7.185,7.185,0,0,1,.055,1.2q0,12.883,0,25.766v1.332h6.152c-.621-1.261-1.151-2.443-1.774-3.573a5.5,5.5,0,0,1-.662-2.814c.034-3.53.045-7.06,0-10.59a7.435,7.435,0,0,1,1.874-5.2c.91-1.04,1.754-2.137,2.662-3.179a17.219,17.219,0,0,0,3.6-6.417c.35-1.169,1.147-1.648,2.1-1.349a1.615,1.615,0,0,1,1,2.277c-.433,1.3-.954,2.576-1.49,4,1.155-.216,2.276-.413,3.392-.637q7.965-1.592,15.927-3.193c2.113-.421,2.967-1.084,3.528-2.9-1.322-.2-2.641-.338-3.937-.6-1.6-.32-3.2-.685-4.768-1.132a1.566,1.566,0,0,1-1.063-2,1.637,1.637,0,0,1,2.081-1.073c.213.049.419.128.633.164,2.756.467,5.511.935,8.269,1.383a7.425,7.425,0,0,0,1.133.008V224.6a31.551,31.551,0,0,1-14.976-9.184c-.342.774-.626,1.461-.947,2.129a9.418,9.418,0,0,1-.746,1.329,1.593,1.593,0,0,1-2.19.572,1.678,1.678,0,0,1-.585-2.277,36.151,36.151,0,0,0,1.683-4.462,12.743,12.743,0,0,0-.273-6.945,14.709,14.709,0,0,0-5.585,1.569,14.937,14.937,0,0,0-4.469,3.439,2.789,2.789,0,0,1-1.343.792,1.373,1.373,0,0,1-1.522-.819,1.438,1.438,0,0,1,.148-1.735,20.115,20.115,0,0,1,2.191-2.272,18.58,18.58,0,0,1,11.292-4.346c1.5-.079,1.885.235,2.319,1.716a21.609,21.609,0,0,1,.857,6.244,2.38,2.38,0,0,0,.342,1.306,27.124,27.124,0,0,0,13.835,9.459c.07-.1.151-.212.233-.325q1.357-1.881,3.077.167Zm-48.925,16.046v18.534H352.6v-19.19Z" transform="translate(-286.142 -200.649)" fill="#1b3f5e"/>
          <path id="Trazado_805467" data-name="Trazado 805467" d="M262.021,213.307a5.35,5.35,0,0,1-3.239-3.818,5.557,5.557,0,0,1-.126-1.078q-.017-3.33,0-6.661c.006-1.191.627-1.926,1.6-1.949,1.008-.023,1.655.739,1.674,1.986.009.574,0,1.148,0,1.744,3.037-.688,5.475.154,6.921,3.547,1.66-.537,3.286-1.178,4.97-1.571a18.327,18.327,0,0,1,4.109-.443q25.88-.042,51.76-.019c.146,0,.291,0,.437,0a1.694,1.694,0,0,1,1.832,1.618,1.674,1.674,0,0,1-1.792,1.652c-.327.015-.655,0-.982,0q-25.608,0-51.214,0a15.837,15.837,0,0,0-15.719,12.724,24.57,24.57,0,0,0,.415,9.964,32.784,32.784,0,0,0,3.532,9.346c1.6,2.9,3.131,5.83,4.765,8.706a11.1,11.1,0,0,1,1.479,5.832c-.063,3.746-.017,7.494-.017,11.342h6.135a16.491,16.491,0,0,0-.837-1.73,10.562,10.562,0,0,1-1.6-6.748c.161-1.953-.058-3.95.236-5.875a32.347,32.347,0,0,1,1.524-5.1c1.123-3.417,2.276-6.824,3.417-10.234a6.211,6.211,0,0,1,.257-.717,1.569,1.569,0,0,1,1.968-.921,1.533,1.533,0,0,1,1.1,1.874c-.171.777-.466,1.527-.715,2.287-.348,1.063-.7,2.124-1.11,3.345,1.512.507,2.929,1.053,4.387,1.458a61.726,61.726,0,0,0,16.181,2.1c1.855.013,3.711-.083,5.567-.068a2.741,2.741,0,0,1,1.416.394,1.422,1.422,0,0,1,.475,1.763,1.6,1.6,0,0,1-1.6,1.089c-1.856.05-3.712.141-5.567.123a68.711,68.711,0,0,1-14.942-1.622,5.693,5.693,0,0,0-.576-.063c-.161.429-.317.892-.507,1.34a19.723,19.723,0,0,0-1.267,7.335,13.58,13.58,0,0,0,1.95,8.083,22.978,22.978,0,0,1,1.225,2.433c.851,1.746.178,2.818-1.791,2.838-1.42.014-2.839,0-4.259,0q-6.006,0-12.012,0c-1.82,0-2.324-.516-2.325-2.347,0-4.259-.02-8.517.01-12.776a7.026,7.026,0,0,0-.908-3.542c-1.723-3.118-3.422-6.25-5.125-9.38a35.838,35.838,0,0,1-4.468-17.348,18.763,18.763,0,0,1,2.964-10.229C261.734,213.807,261.839,213.618,262.021,213.307Zm19.749,32.2c-.512,1.512-.91,2.949-1.477,4.315-1.432,3.443-.69,7.042-.86,10.574a.454.454,0,0,0,.039.213c.948,1.912,1.9,3.823,2.814,5.661h3.323c-.681-1.375-1.359-2.608-1.9-3.9a6.5,6.5,0,0,1-.536-2.285c-.069-2.327-.052-4.658-.009-6.986a8.24,8.24,0,0,1,.348-2.128c.415-1.424.912-2.826,1.4-4.309Zm-16.133-37.018a1.853,1.853,0,1,0-1.93,1.792A1.851,1.851,0,0,0,265.637,208.489Z" transform="translate(-258.646 -199.801)" fill="#1b3f5e"/>
          <path id="Trazado_805468" data-name="Trazado 805468" d="M398.288,231.029a1.642,1.642,0,0,1,1.626,1.687,1.688,1.688,0,0,1-1.653,1.569,1.645,1.645,0,0,1-1.6-1.708A1.589,1.589,0,0,1,398.288,231.029Z" transform="translate(-304.062 -210.077)" fill="#1b3f5e"/>
        </g>
      </g>
    </g>
    <g id="Grupo_1071834" data-name="Grupo 1071834" transform="translate(857.851 4594.47)">
      <g id="Grupo_1016980" data-name="Grupo 1016980" clip-path="url(#clip-path)">
        <path id="Trazado_608349" data-name="Trazado 608349" d="M13.983.019V.632c0,2.338-.02,4.677.016,7.014a3.436,3.436,0,0,0,.351,1.5,1.87,1.87,0,0,0,1.831.885c2.417-.006,4.834,0,7.252,0h.544c.011.2.028.353.028.508q0,8.637,0,17.273a3.962,3.962,0,0,1-3,4.082,4.689,4.689,0,0,1-1.269.164q-7.729.016-15.457.006A4.047,4.047,0,0,1,.007,27.817q-.015-11.786,0-23.572A3.956,3.956,0,0,1,3.01.17,4.1,4.1,0,0,1,4.136.008C7.3,0,10.465,0,13.629,0c.093,0,.186.009.354.017m.143,24.226c.119.143.222.286.344.411.612.625,1.215,1.261,1.848,1.864a1.53,1.53,0,0,0,2.662-.657,1.6,1.6,0,0,0-.535-1.549q-.966-.991-1.97-1.944a.406.406,0,0,1-.1-.57,6.039,6.039,0,0,0-7.524-8.369,5.819,5.819,0,0,0-3.771,6.5,5.9,5.9,0,0,0,6.182,5.118,6.389,6.389,0,0,0,2.869-.806" transform="translate(0 0)" fill="#fff"/>
        <path id="Trazado_608350" data-name="Trazado 608350" d="M175.611,11.192h-7.449a1.772,1.772,0,0,1-.21-.028V3.532l7.659,7.66" transform="translate(-151.881 -3.194)" fill="#fff"/>
        <path id="Trazado_608351" data-name="Trazado 608351" d="M89.869,170.666a2.972,2.972,0,1,1-2.979-2.973,2.986,2.986,0,0,1,2.979,2.973" transform="translate(-75.894 -151.646)" fill="#fff"/>
      </g>
    </g>
  </g>
</svg>
