<svg xmlns="http://www.w3.org/2000/svg" width="189" height="190" viewBox="0 0 189 190">
  <g id="Grupo_1071833" data-name="Grupo 1071833" transform="translate(-1020.855 -4364)">
    <g id="Grupo_1071830" data-name="Grupo 1071830" transform="translate(0 -199)">
      <ellipse id="Elipse_6201" data-name="Elipse 6201" cx="94.5" cy="95" rx="94.5" ry="95" transform="translate(1020.855 4563)" fill="#dbf9bd"/>
      <path id="Trazado_829422" data-name="Trazado 829422" d="M-7374.423-6521.479l9.993,8.329,8.742-8.329" transform="translate(8478.882 11248.196)" fill="none" stroke="#1b3f5e" stroke-width="2"/>
      <g id="Grupo_1067488" data-name="Grupo 1067488" transform="translate(1069.219 4608.749)">
        <path id="Trazado_805452" data-name="Trazado 805452" d="M71.8,629.45c1.024-3.8,4.161-5.843,6.93-8.144,1.343-1.116,2.984-1.866,4.4-2.907a18.71,18.71,0,0,0,3.325-2.931,6.3,6.3,0,0,1,6.179-2.4,1.727,1.727,0,0,0,1.476-.491,11.6,11.6,0,0,1,2.974-1.728,28.119,28.119,0,0,1,4.175-.977,3.211,3.211,0,0,1,3.43,1.417,3.251,3.251,0,0,1,.134,3.789c-.932,1.529-1.951,3-2.875,4.537a1.881,1.881,0,0,0-.1,1.113,6.228,6.228,0,0,0,.347,1.011c.175.565.169,1.323.543,1.648.335.291,1.087.069,1.647.139a10.324,10.324,0,0,1,9.108,7.152,3.178,3.178,0,0,0,4.594,1.972,9.923,9.923,0,0,1,8.1-.181,5.434,5.434,0,0,0,4.242-.01,10.079,10.079,0,0,1,7.687.022,5.013,5.013,0,0,0,4.155-.011,3.863,3.863,0,0,1,1.2-.329,1.763,1.763,0,0,1,.956,3.318c-2.321,1.077-4.7,1.552-7.176.5a7.517,7.517,0,0,0-6.007-.007,7.562,7.562,0,0,1-5.926-.01,7.657,7.657,0,0,0-6.166.109,6.4,6.4,0,0,1-8.882-3.925,7.01,7.01,0,0,0-5.88-4.989c-3.084-.45-5.376.914-7.054,3.438-.231.348-.426.718-.634,1.08a4.734,4.734,0,0,1-4.072,2.5c-3.732.226-6.416,2.427-7.107,5.813a6.636,6.636,0,0,0,.727,4.765,5.323,5.323,0,0,1,0,5.6,7.024,7.024,0,0,0,2.405,9.37,5.6,5.6,0,0,1,2.778,4.869,7.084,7.084,0,0,0,10.094,6.344,7.184,7.184,0,0,1,5.978.019,7.008,7.008,0,0,0,5.9.006,7.053,7.053,0,0,1,5.979-.008,7.019,7.019,0,0,0,5.9.012,7.144,7.144,0,0,1,6.063.018,6.855,6.855,0,0,0,5.818-.02,7.294,7.294,0,0,1,5.74-.179,8.387,8.387,0,0,0,4.359.737,7.047,7.047,0,0,0,6.027-6.977,5.6,5.6,0,0,1,3.123-5.014,7.108,7.108,0,0,0-.161-12.432,5.133,5.133,0,0,1-2.933-4.751,1.777,1.777,0,0,1,1.625-1.905,1.716,1.716,0,0,1,1.892,1.624,2.319,2.319,0,0,0,1.421,2.057,10.7,10.7,0,0,1-.121,18.549,2.406,2.406,0,0,0-1.334,2.216,10.449,10.449,0,0,1-8.3,10.026c-.54.128-.709.312-.75.854q-.7,9.11-1.469,18.213c-.064.739.3.686.774.685,3.076-.005,6.153-.011,9.229,0a1.745,1.745,0,0,1,1.933,1.577,1.708,1.708,0,0,1-1.369,1.916,5.462,5.462,0,0,1-1.156.081q-33.424,0-66.846,0c-.269,0-.54.014-.806-.012a1.771,1.771,0,0,1-1.743-1.884,1.718,1.718,0,0,1,1.836-1.676c1.912-.028,3.823-.011,5.735-.012,1.822,0,3.644-.014,5.466.008.529.007.952-.028,1.027-.677a.846.846,0,0,1,.193-.4c1.994-2.5,1.508-5.393,1.087-8.154-.489-3.206-1.379-6.349-2.057-9.528-.123-.577-.338-.749-.935-.749A10.7,10.7,0,0,1,87.82,664.641a2.086,2.086,0,0,0-1.073-1.884A10.7,10.7,0,0,1,83.1,648.587a1.758,1.758,0,0,0,.146-1.85,10.717,10.717,0,0,1-.963-8.643,1.583,1.583,0,0,0,0-.339,6.266,6.266,0,0,1-5.187.852,6.731,6.731,0,0,1-5.1-5c-.057-.193-.133-.38-.2-.57Zm51.484,65.2c2.9,0,5.793-.041,8.687.021,1.03.022,1.786-.053,2.131-1.231.238-.812,1-1.52,1.078-2.318a20.179,20.179,0,0,0-.015-5.265c-.591-3.433-1.458-6.818-2.251-10.214a1.158,1.158,0,0,0-.666-.642c-.831-.319-1.709-.516-2.538-.838a3.46,3.46,0,0,0-2.778-.01,11.219,11.219,0,0,1-9.2.037,6.15,6.15,0,0,0-2.592-.064c-.59.039-.786.5-.819,1.083-.08,1.4-.206,2.8-.318,4.2-.384,4.789-.757,9.579-1.167,14.365-.063.731.165.9.865.9C116.892,694.627,120.086,694.646,123.28,694.647Zm-21.645-81.211c-.7.157-1.188.3-1.682.37a5.661,5.661,0,0,0-4.4,2.54,1.6,1.6,0,0,1-1.992.593,10.639,10.639,0,0,0-1.213-.306,3.112,3.112,0,0,0-3.157,1.15,17.444,17.444,0,0,1-3.911,3.475,40.138,40.138,0,0,0-8.915,6.984,3.447,3.447,0,0,0-.911,3.147c.329-.2.582-.349.829-.507,1.472-.947,2.462-.923,3.129.081.678,1.021.282,1.978-1.221,2.956-.389.252-.773.513-1.239.824a3.059,3.059,0,0,0,3.191.1,6.936,6.936,0,0,1,4.153-1.138,1.632,1.632,0,0,0,1.037-.35,10.581,10.581,0,0,1,6.662-2.716,1.926,1.926,0,0,0,1.87-1.219,10.212,10.212,0,0,1,4.732-4.837c.2-.1.443-.467.4-.642a9.113,9.113,0,0,0-.791-2.35c-.714-1.229-.795-1.6-.043-2.767C99.272,617.092,100.389,615.366,101.635,613.436Zm39.333,75.042c.478,0,.958-.031,1.433.008.557.047.785-.141.828-.725.3-4.078.633-8.154.933-12.232a.717.717,0,0,0-.319-.578c-2.027-.837-4.064-1.691-6.217-.337a1.552,1.552,0,0,1-.6.181c-.469.068-.56.285-.448.742.328,1.331.621,2.672.9,4.015.474,2.3,1.055,4.6,1.347,6.925C139.072,688.459,138.92,688.478,140.968,688.477Zm-33.428,0c.477,0,.958-.036,1.43.009.638.061.81-.217.833-.817.047-1.221.173-2.437.267-3.656q.311-4.057.622-8.114c.03-.393.077-.667-.525-.769-1.455-.246-2.874-.694-4.323-.976a10.647,10.647,0,0,0-2.269-.138c-.564.013-.709.378-.573.933q.52,2.125.966,4.269c.508,2.417,1.117,4.822,1.447,7.264C105.682,688.457,105.528,688.478,107.54,688.477Zm-1.086,6.113v.052c.624,0,1.25.015,1.873,0a.861.861,0,0,0,.942-.86c.031-.385.065-.771.126-1.152.072-.443-.117-.577-.537-.569-.921.019-1.845.035-2.765-.006a.837.837,0,0,0-1.013.708,14.943,14.943,0,0,1-.756,1.831Zm33.531.055c.565,0,1.131,0,1.7,0a.962.962,0,0,0,1.063-.954c.236-1.631.246-1.629-1.389-1.629a1.793,1.793,0,0,1-.268,0c-1.541-.238-2.794.012-3.127,1.834a.427.427,0,0,1-.079.159c-.295.414-.261.626.319.6S139.389,694.646,139.984,694.645Z" transform="translate(-71.796 -609.802)" fill="#1b3f5e"/>
        <path id="Trazado_805453" data-name="Trazado 805453" d="M193.867,648.788a1.743,1.743,0,0,1,1.762-1.753,1.781,1.781,0,1,1-.048,3.562A1.76,1.76,0,0,1,193.867,648.788Z" transform="translate(-115.922 -623.261)" fill="#1b3f5e"/>
        <path id="Trazado_805454" data-name="Trazado 805454" d="M94.82,630.29a1.784,1.784,0,0,1,1.746-1.785,1.8,1.8,0,0,1,1.819,1.719,1.783,1.783,0,1,1-3.565.067Z" transform="translate(-80.119 -616.563)" fill="#1b3f5e"/>
      </g>
    </g>
  </g>
</svg>
