<svg xmlns="http://www.w3.org/2000/svg" xmlns:xlink="http://www.w3.org/1999/xlink" width="190" height="278" viewBox="0 0 190 278">
  <defs>
    <clipPath id="clip-path">
      <rect id="Rectángulo_347505" data-name="Rectángulo 347505" width="24.007" height="32.061" fill="#fff"/>
    </clipPath>
  </defs>
  <g id="Grupo_1071958" data-name="Grupo 1071958" transform="translate(-1019.855 -4364)">
    <g id="Trazado_829587" data-name="Trazado 829587" transform="translate(1019.855 4579)" fill="#632059">
      <path d="M 180 62.5 L 10 62.5 C 4.761690616607666 62.5 0.5 58.23830795288086 0.5 53 L 0.5 10 C 0.5 4.761690616607666 4.761690616607666 0.5 10 0.5 L 180 0.5 C 185.2383117675781 0.5 189.5 4.761690616607666 189.5 10 L 189.5 53 C 189.5 58.23830795288086 185.2383117675781 62.5 180 62.5 Z" stroke="none"/>
      <path d="M 10 1 C 5.037368774414062 1 1 5.037376403808594 1 10 L 1 53 C 1 57.96262359619141 5.037368774414062 62 10 62 L 180 62 C 184.9626312255859 62 189 57.96262359619141 189 53 L 189 10 C 189 5.037376403808594 184.9626312255859 1 180 1 L 10 1 M 10 0 L 180 0 C 185.5228576660156 0 190 4.477149963378906 190 10 L 190 53 C 190 58.52285003662109 185.5228576660156 63 180 63 L 10 63 C 4.477157592773438 63 0 58.52285003662109 0 53 L 0 10 C 0 4.477149963378906 4.477157592773438 0 10 0 Z" stroke="none" fill="#707070"/>
    </g>
    <path id="Trazado_829588" data-name="Trazado 829588" d="M54.034,12.184a8.385,8.385,0,0,1-.771,3.682,5.7,5.7,0,0,1-2.192,2.466,6.1,6.1,0,0,1-3.237.864,6.191,6.191,0,0,1-3.223-.835,5.692,5.692,0,0,1-2.192-2.388,8.144,8.144,0,0,1-.825-3.564v-.8a8.422,8.422,0,0,1,.767-3.687,5.688,5.688,0,0,1,2.2-2.466,6.5,6.5,0,0,1,6.479-.01,5.79,5.79,0,0,1,2.2,2.446,8.18,8.18,0,0,1,.8,3.638Zm-3.486-.6A5.979,5.979,0,0,0,49.84,8.37a2.271,2.271,0,0,0-2.026-1.1q-2.578,0-2.725,3.867l-.01,1.045a6.149,6.149,0,0,0,.693,3.213,2.268,2.268,0,0,0,2.061,1.123,2.24,2.24,0,0,0,2-1.1,5.982,5.982,0,0,0,.713-3.174Zm9.316,3.5,1.67-6.65H65L61.554,19H58.194L54.747,8.434h3.477Zm11.1,4.111a5.432,5.432,0,0,1-3.936-1.45,5.008,5.008,0,0,1-1.5-3.774V13.7a6.489,6.489,0,0,1,.6-2.861,4.395,4.395,0,0,1,1.753-1.919,5.292,5.292,0,0,1,2.734-.679A4.574,4.574,0,0,1,74.132,9.62a5.43,5.43,0,0,1,1.289,3.853v1.279H68.878a2.372,2.372,0,0,0,.771,1.4,2.3,2.3,0,0,0,1.543.508,2.958,2.958,0,0,0,2.441-1.094l1.5,1.777a4.2,4.2,0,0,1-1.743,1.353A5.891,5.891,0,0,1,70.968,19.2ZM70.6,10.777q-1.445,0-1.719,1.914H72.2v-.254a1.63,1.63,0,0,0-.4-1.226A1.593,1.593,0,0,0,70.6,10.777Zm9.688-2.344V19.361a3.836,3.836,0,0,1-1.074,2.891,4.127,4.127,0,0,1-2.969,1.016,7.009,7.009,0,0,1-1.553-.166v-2.49a6.3,6.3,0,0,0,.928.088,1.2,1.2,0,0,0,1.367-1.357V8.434ZM76.739,5.709a1.469,1.469,0,0,1,.508-1.152,2.159,2.159,0,0,1,2.637,0,1.469,1.469,0,0,1,.508,1.152,1.469,1.469,0,0,1-.508,1.152,2.159,2.159,0,0,1-2.637,0A1.469,1.469,0,0,1,76.739,5.709ZM88.1,19a3.716,3.716,0,0,1-.312-.947A3.06,3.06,0,0,1,85.245,19.2a3.749,3.749,0,0,1-2.539-.9,2.875,2.875,0,0,1-1.045-2.271,2.955,2.955,0,0,1,1.27-2.6,6.468,6.468,0,0,1,3.691-.879h1.016v-.559q0-1.462-1.26-1.462a1.03,1.03,0,0,0-1.172,1.158H81.915a2.95,2.95,0,0,1,1.3-2.487,5.479,5.479,0,0,1,3.325-.956,4.8,4.8,0,0,1,3.193.986,3.429,3.429,0,0,1,1.2,2.705v4.678a4.79,4.79,0,0,0,.449,2.227V19Zm-2.061-2.148a1.836,1.836,0,0,0,1.021-.264,1.653,1.653,0,0,0,.581-.6V14.3h-.957q-1.719,0-1.719,1.543a.942.942,0,0,0,.3.728A1.1,1.1,0,0,0,86.036,16.852Zm12.256-.82a.76.76,0,0,0-.439-.674,6.685,6.685,0,0,0-1.67-.527,7.615,7.615,0,0,1-2.031-.718,3.4,3.4,0,0,1-1.221-1.079,2.577,2.577,0,0,1-.42-1.455,2.92,2.92,0,0,1,1.2-2.4,4.948,4.948,0,0,1,3.145-.942,5.482,5.482,0,0,1,3.359.947,2.962,2.962,0,0,1,1.27,2.49h-3.3q0-1.27-1.338-1.27a1.326,1.326,0,0,0-.869.288.892.892,0,0,0-.352.718.819.819,0,0,0,.43.713,4.06,4.06,0,0,0,1.372.449,11.857,11.857,0,0,1,1.655.42,3.007,3.007,0,0,1,2.383,2.939,2.767,2.767,0,0,1-1.284,2.354,5.631,5.631,0,0,1-3.325.908,5.747,5.747,0,0,1-2.422-.488,4.05,4.05,0,0,1-1.66-1.328,3.007,3.007,0,0,1-.6-1.768h3.076a1.272,1.272,0,0,0,.488,1.069,2.009,2.009,0,0,0,1.2.337,1.58,1.58,0,0,0,1.011-.273A.875.875,0,0,0,98.292,16.031Z" transform="translate(1038.855 4599)" fill="#fff"/>
    <g id="Grupo_1071833" data-name="Grupo 1071833">
      <g id="Grupo_1071830" data-name="Grupo 1071830" transform="translate(0 -199)">
        <ellipse id="Elipse_6201" data-name="Elipse 6201" cx="94.5" cy="95" rx="94.5" ry="95" transform="translate(1020.855 4563)" fill="#dbf9bd"/>
        <path id="Trazado_829422" data-name="Trazado 829422" d="M-7374.423-6521.479l9.993,8.329,8.742-8.329" transform="translate(8478.882 11248.196)" fill="none" stroke="#1b3f5e" stroke-width="2"/>
        <g id="Grupo_1067488" data-name="Grupo 1067488" transform="translate(1069.219 4608.749)">
          <path id="Trazado_805452" data-name="Trazado 805452" d="M71.8,629.45c1.024-3.8,4.161-5.843,6.93-8.144,1.343-1.116,2.984-1.866,4.4-2.907a18.71,18.71,0,0,0,3.325-2.931,6.3,6.3,0,0,1,6.179-2.4,1.727,1.727,0,0,0,1.476-.491,11.6,11.6,0,0,1,2.974-1.728,28.119,28.119,0,0,1,4.175-.977,3.211,3.211,0,0,1,3.43,1.417,3.251,3.251,0,0,1,.134,3.789c-.932,1.529-1.951,3-2.875,4.537a1.881,1.881,0,0,0-.1,1.113,6.228,6.228,0,0,0,.347,1.011c.175.565.169,1.323.543,1.648.335.291,1.087.069,1.647.139a10.324,10.324,0,0,1,9.108,7.152,3.178,3.178,0,0,0,4.594,1.972,9.923,9.923,0,0,1,8.1-.181,5.434,5.434,0,0,0,4.242-.01,10.079,10.079,0,0,1,7.687.022,5.013,5.013,0,0,0,4.155-.011,3.863,3.863,0,0,1,1.2-.329,1.763,1.763,0,0,1,.956,3.318c-2.321,1.077-4.7,1.552-7.176.5a7.517,7.517,0,0,0-6.007-.007,7.562,7.562,0,0,1-5.926-.01,7.657,7.657,0,0,0-6.166.109,6.4,6.4,0,0,1-8.882-3.925,7.01,7.01,0,0,0-5.88-4.989c-3.084-.45-5.376.914-7.054,3.438-.231.348-.426.718-.634,1.08a4.734,4.734,0,0,1-4.072,2.5c-3.732.226-6.416,2.427-7.107,5.813a6.636,6.636,0,0,0,.727,4.765,5.323,5.323,0,0,1,0,5.6,7.024,7.024,0,0,0,2.405,9.37,5.6,5.6,0,0,1,2.778,4.869,7.084,7.084,0,0,0,10.094,6.344,7.184,7.184,0,0,1,5.978.019,7.008,7.008,0,0,0,5.9.006,7.053,7.053,0,0,1,5.979-.008,7.019,7.019,0,0,0,5.9.012,7.144,7.144,0,0,1,6.063.018,6.855,6.855,0,0,0,5.818-.02,7.294,7.294,0,0,1,5.74-.179,8.387,8.387,0,0,0,4.359.737,7.047,7.047,0,0,0,6.027-6.977,5.6,5.6,0,0,1,3.123-5.014,7.108,7.108,0,0,0-.161-12.432,5.133,5.133,0,0,1-2.933-4.751,1.777,1.777,0,0,1,1.625-1.905,1.716,1.716,0,0,1,1.892,1.624,2.319,2.319,0,0,0,1.421,2.057,10.7,10.7,0,0,1-.121,18.549,2.406,2.406,0,0,0-1.334,2.216,10.449,10.449,0,0,1-8.3,10.026c-.54.128-.709.312-.75.854q-.7,9.11-1.469,18.213c-.064.739.3.686.774.685,3.076-.005,6.153-.011,9.229,0a1.745,1.745,0,0,1,1.933,1.577,1.708,1.708,0,0,1-1.369,1.916,5.462,5.462,0,0,1-1.156.081q-33.424,0-66.846,0c-.269,0-.54.014-.806-.012a1.771,1.771,0,0,1-1.743-1.884,1.718,1.718,0,0,1,1.836-1.676c1.912-.028,3.823-.011,5.735-.012,1.822,0,3.644-.014,5.466.008.529.007.952-.028,1.027-.677a.846.846,0,0,1,.193-.4c1.994-2.5,1.508-5.393,1.087-8.154-.489-3.206-1.379-6.349-2.057-9.528-.123-.577-.338-.749-.935-.749A10.7,10.7,0,0,1,87.82,664.641a2.086,2.086,0,0,0-1.073-1.884A10.7,10.7,0,0,1,83.1,648.587a1.758,1.758,0,0,0,.146-1.85,10.717,10.717,0,0,1-.963-8.643,1.583,1.583,0,0,0,0-.339,6.266,6.266,0,0,1-5.187.852,6.731,6.731,0,0,1-5.1-5c-.057-.193-.133-.38-.2-.57Zm51.484,65.2c2.9,0,5.793-.041,8.687.021,1.03.022,1.786-.053,2.131-1.231.238-.812,1-1.52,1.078-2.318a20.179,20.179,0,0,0-.015-5.265c-.591-3.433-1.458-6.818-2.251-10.214a1.158,1.158,0,0,0-.666-.642c-.831-.319-1.709-.516-2.538-.838a3.46,3.46,0,0,0-2.778-.01,11.219,11.219,0,0,1-9.2.037,6.15,6.15,0,0,0-2.592-.064c-.59.039-.786.5-.819,1.083-.08,1.4-.206,2.8-.318,4.2-.384,4.789-.757,9.579-1.167,14.365-.063.731.165.9.865.9C116.892,694.627,120.086,694.646,123.28,694.647Zm-21.645-81.211c-.7.157-1.188.3-1.682.37a5.661,5.661,0,0,0-4.4,2.54,1.6,1.6,0,0,1-1.992.593,10.639,10.639,0,0,0-1.213-.306,3.112,3.112,0,0,0-3.157,1.15,17.444,17.444,0,0,1-3.911,3.475,40.138,40.138,0,0,0-8.915,6.984,3.447,3.447,0,0,0-.911,3.147c.329-.2.582-.349.829-.507,1.472-.947,2.462-.923,3.129.081.678,1.021.282,1.978-1.221,2.956-.389.252-.773.513-1.239.824a3.059,3.059,0,0,0,3.191.1,6.936,6.936,0,0,1,4.153-1.138,1.632,1.632,0,0,0,1.037-.35,10.581,10.581,0,0,1,6.662-2.716,1.926,1.926,0,0,0,1.87-1.219,10.212,10.212,0,0,1,4.732-4.837c.2-.1.443-.467.4-.642a9.113,9.113,0,0,0-.791-2.35c-.714-1.229-.795-1.6-.043-2.767C99.272,617.092,100.389,615.366,101.635,613.436Zm39.333,75.042c.478,0,.958-.031,1.433.008.557.047.785-.141.828-.725.3-4.078.633-8.154.933-12.232a.717.717,0,0,0-.319-.578c-2.027-.837-4.064-1.691-6.217-.337a1.552,1.552,0,0,1-.6.181c-.469.068-.56.285-.448.742.328,1.331.621,2.672.9,4.015.474,2.3,1.055,4.6,1.347,6.925C139.072,688.459,138.92,688.478,140.968,688.477Zm-33.428,0c.477,0,.958-.036,1.43.009.638.061.81-.217.833-.817.047-1.221.173-2.437.267-3.656q.311-4.057.622-8.114c.03-.393.077-.667-.525-.769-1.455-.246-2.874-.694-4.323-.976a10.647,10.647,0,0,0-2.269-.138c-.564.013-.709.378-.573.933q.52,2.125.966,4.269c.508,2.417,1.117,4.822,1.447,7.264C105.682,688.457,105.528,688.478,107.54,688.477Zm-1.086,6.113v.052c.624,0,1.25.015,1.873,0a.861.861,0,0,0,.942-.86c.031-.385.065-.771.126-1.152.072-.443-.117-.577-.537-.569-.921.019-1.845.035-2.765-.006a.837.837,0,0,0-1.013.708,14.943,14.943,0,0,1-.756,1.831Zm33.531.055c.565,0,1.131,0,1.7,0a.962.962,0,0,0,1.063-.954c.236-1.631.246-1.629-1.389-1.629a1.793,1.793,0,0,1-.268,0c-1.541-.238-2.794.012-3.127,1.834a.427.427,0,0,1-.079.159c-.295.414-.261.626.319.6S139.389,694.646,139.984,694.645Z" transform="translate(-71.796 -609.802)" fill="#1b3f5e"/>
          <path id="Trazado_805453" data-name="Trazado 805453" d="M193.867,648.788a1.743,1.743,0,0,1,1.762-1.753,1.781,1.781,0,1,1-.048,3.562A1.76,1.76,0,0,1,193.867,648.788Z" transform="translate(-115.922 -623.261)" fill="#1b3f5e"/>
          <path id="Trazado_805454" data-name="Trazado 805454" d="M94.82,630.29a1.784,1.784,0,0,1,1.746-1.785,1.8,1.8,0,0,1,1.819,1.719,1.783,1.783,0,1,1-3.565.067Z" transform="translate(-80.119 -616.563)" fill="#1b3f5e"/>
        </g>
      </g>
    </g>
    <g id="Grupo_1016980" data-name="Grupo 1016980" transform="translate(1168.855 4594.47)">
      <g id="Grupo_1016980-2" data-name="Grupo 1016980" clip-path="url(#clip-path)">
        <path id="Trazado_608349" data-name="Trazado 608349" d="M13.983.019V.632c0,2.338-.02,4.677.016,7.014a3.436,3.436,0,0,0,.351,1.5,1.87,1.87,0,0,0,1.831.885c2.417-.006,4.834,0,7.252,0h.544c.011.2.028.353.028.508q0,8.637,0,17.273a3.962,3.962,0,0,1-3,4.082,4.689,4.689,0,0,1-1.269.164q-7.729.016-15.457.006A4.047,4.047,0,0,1,.007,27.817q-.015-11.786,0-23.572A3.956,3.956,0,0,1,3.01.17,4.1,4.1,0,0,1,4.136.008C7.3,0,10.465,0,13.629,0c.093,0,.186.009.354.017m.143,24.226c.119.143.222.286.344.411.612.625,1.215,1.261,1.848,1.864a1.53,1.53,0,0,0,2.662-.657,1.6,1.6,0,0,0-.535-1.549q-.966-.991-1.97-1.944a.406.406,0,0,1-.1-.57,6.039,6.039,0,0,0-7.524-8.369,5.819,5.819,0,0,0-3.771,6.5,5.9,5.9,0,0,0,6.182,5.118,6.389,6.389,0,0,0,2.869-.806" transform="translate(0 0)" fill="#fff"/>
        <path id="Trazado_608350" data-name="Trazado 608350" d="M175.611,11.192h-7.449a1.772,1.772,0,0,1-.21-.028V3.532l7.659,7.66" transform="translate(-151.881 -3.194)" fill="#fff"/>
        <path id="Trazado_608351" data-name="Trazado 608351" d="M89.869,170.666a2.972,2.972,0,1,1-2.979-2.973,2.986,2.986,0,0,1,2.979,2.973" transform="translate(-75.894 -151.646)" fill="#fff"/>
      </g>
    </g>
  </g>
</svg>
