<svg xmlns="http://www.w3.org/2000/svg" width="190" height="190" viewBox="0 0 190 190">
  <g id="Grupo_1071832" data-name="Grupo 1071832" transform="translate(-704.855 -4364)">
    <g id="Grupo_1071829" data-name="Grupo 1071829" transform="translate(0 -199)">
      <circle id="Elipse_6201" data-name="Elipse 6201" cx="95" cy="95" r="95" transform="translate(704.855 4563)" fill="#dbf9bd"/>
      <path id="Trazado_829422" data-name="Trazado 829422" d="M-7374.423-6521.478l10.008,8.342,8.756-8.342" transform="translate(8163.562 11248.154)" fill="none" stroke="#1b3f5e" stroke-width="2"/>
      <g id="Grupo_1067504" data-name="Grupo 1067504" transform="translate(752.027 4621.824)">
        <path id="Trazado_805466" data-name="Trazado 805466" d="M397.972,232.531A2.1,2.1,0,0,1,395.8,233.7c-.144.372-.285.7-.4,1.044a6.867,6.867,0,0,1-5.45,4.792q-9.723,1.968-19.45,3.909c-.25.05-.5.1-.747.156-3.726.776-3.76.751-5.966,3.857a4.4,4.4,0,0,0-.776,2.312c-.08,3.71-.049,7.423-.024,11.135a3,3,0,0,0,.337,1.236c.889,1.83,1.824,3.637,2.724,5.462.856,1.738.176,2.849-1.769,2.853q-8.242.019-16.485,0c-1.571,0-2.107-.538-2.11-2.106q-.016-8.9,0-17.8v-1.447c-.522.075-.935.142-1.351.193-1.169.144-1.98-.382-2.111-1.364-.136-1.014.472-1.691,1.642-1.882q3.874-.634,7.742-1.3c.32-.054.633-.148,1.088-.256,0-1.155,0-2.305,0-3.455,0-.692-.023-1.385.024-2.073a1.594,1.594,0,0,1,1.525-1.558,1.621,1.621,0,0,1,1.669,1.414,7.185,7.185,0,0,1,.055,1.2q0,12.883,0,25.766v1.332h6.152c-.621-1.261-1.151-2.443-1.774-3.573a5.5,5.5,0,0,1-.662-2.814c.034-3.53.045-7.06,0-10.59a7.435,7.435,0,0,1,1.874-5.2c.91-1.04,1.754-2.137,2.662-3.179a17.219,17.219,0,0,0,3.6-6.417c.35-1.169,1.147-1.648,2.1-1.349a1.615,1.615,0,0,1,1,2.277c-.433,1.3-.954,2.576-1.49,4,1.155-.216,2.276-.413,3.392-.637q7.965-1.592,15.927-3.193c2.113-.421,2.967-1.084,3.528-2.9-1.322-.2-2.641-.338-3.937-.6-1.6-.32-3.2-.685-4.768-1.132a1.566,1.566,0,0,1-1.063-2,1.637,1.637,0,0,1,2.081-1.073c.213.049.419.128.633.164,2.756.467,5.511.935,8.269,1.383a7.425,7.425,0,0,0,1.133.008V224.6a31.551,31.551,0,0,1-14.976-9.184c-.342.774-.626,1.461-.947,2.129a9.418,9.418,0,0,1-.746,1.329,1.593,1.593,0,0,1-2.19.572,1.678,1.678,0,0,1-.585-2.277,36.151,36.151,0,0,0,1.683-4.462,12.743,12.743,0,0,0-.273-6.945,14.709,14.709,0,0,0-5.585,1.569,14.937,14.937,0,0,0-4.469,3.439,2.789,2.789,0,0,1-1.343.792,1.373,1.373,0,0,1-1.522-.819,1.438,1.438,0,0,1,.148-1.735,20.115,20.115,0,0,1,2.191-2.272,18.58,18.58,0,0,1,11.292-4.346c1.5-.079,1.885.235,2.319,1.716a21.609,21.609,0,0,1,.857,6.244,2.38,2.38,0,0,0,.342,1.306,27.124,27.124,0,0,0,13.835,9.459c.07-.1.151-.212.233-.325q1.357-1.881,3.077.167Zm-48.925,16.046v18.534H352.6v-19.19Z" transform="translate(-286.142 -200.649)" fill="#1b3f5e"/>
        <path id="Trazado_805467" data-name="Trazado 805467" d="M262.021,213.307a5.35,5.35,0,0,1-3.239-3.818,5.557,5.557,0,0,1-.126-1.078q-.017-3.33,0-6.661c.006-1.191.627-1.926,1.6-1.949,1.008-.023,1.655.739,1.674,1.986.009.574,0,1.148,0,1.744,3.037-.688,5.475.154,6.921,3.547,1.66-.537,3.286-1.178,4.97-1.571a18.327,18.327,0,0,1,4.109-.443q25.88-.042,51.76-.019c.146,0,.291,0,.437,0a1.694,1.694,0,0,1,1.832,1.618,1.674,1.674,0,0,1-1.792,1.652c-.327.015-.655,0-.982,0q-25.608,0-51.214,0a15.837,15.837,0,0,0-15.719,12.724,24.57,24.57,0,0,0,.415,9.964,32.784,32.784,0,0,0,3.532,9.346c1.6,2.9,3.131,5.83,4.765,8.706a11.1,11.1,0,0,1,1.479,5.832c-.063,3.746-.017,7.494-.017,11.342h6.135a16.491,16.491,0,0,0-.837-1.73,10.562,10.562,0,0,1-1.6-6.748c.161-1.953-.058-3.95.236-5.875a32.347,32.347,0,0,1,1.524-5.1c1.123-3.417,2.276-6.824,3.417-10.234a6.211,6.211,0,0,1,.257-.717,1.569,1.569,0,0,1,1.968-.921,1.533,1.533,0,0,1,1.1,1.874c-.171.777-.466,1.527-.715,2.287-.348,1.063-.7,2.124-1.11,3.345,1.512.507,2.929,1.053,4.387,1.458a61.726,61.726,0,0,0,16.181,2.1c1.855.013,3.711-.083,5.567-.068a2.741,2.741,0,0,1,1.416.394,1.422,1.422,0,0,1,.475,1.763,1.6,1.6,0,0,1-1.6,1.089c-1.856.05-3.712.141-5.567.123a68.711,68.711,0,0,1-14.942-1.622,5.693,5.693,0,0,0-.576-.063c-.161.429-.317.892-.507,1.34a19.723,19.723,0,0,0-1.267,7.335,13.58,13.58,0,0,0,1.95,8.083,22.978,22.978,0,0,1,1.225,2.433c.851,1.746.178,2.818-1.791,2.838-1.42.014-2.839,0-4.259,0q-6.006,0-12.012,0c-1.82,0-2.324-.516-2.325-2.347,0-4.259-.02-8.517.01-12.776a7.026,7.026,0,0,0-.908-3.542c-1.723-3.118-3.422-6.25-5.125-9.38a35.838,35.838,0,0,1-4.468-17.348,18.763,18.763,0,0,1,2.964-10.229C261.734,213.807,261.839,213.618,262.021,213.307Zm19.749,32.2c-.512,1.512-.91,2.949-1.477,4.315-1.432,3.443-.69,7.042-.86,10.574a.454.454,0,0,0,.039.213c.948,1.912,1.9,3.823,2.814,5.661h3.323c-.681-1.375-1.359-2.608-1.9-3.9a6.5,6.5,0,0,1-.536-2.285c-.069-2.327-.052-4.658-.009-6.986a8.24,8.24,0,0,1,.348-2.128c.415-1.424.912-2.826,1.4-4.309Zm-16.133-37.018a1.853,1.853,0,1,0-1.93,1.792A1.851,1.851,0,0,0,265.637,208.489Z" transform="translate(-258.646 -199.801)" fill="#1b3f5e"/>
        <path id="Trazado_805468" data-name="Trazado 805468" d="M398.288,231.029a1.642,1.642,0,0,1,1.626,1.687,1.688,1.688,0,0,1-1.653,1.569,1.645,1.645,0,0,1-1.6-1.708A1.589,1.589,0,0,1,398.288,231.029Z" transform="translate(-304.062 -210.077)" fill="#1b3f5e"/>
      </g>
    </g>
  </g>
</svg>
