<svg xmlns="http://www.w3.org/2000/svg" width="190" height="189" viewBox="0 0 190 189">
  <g id="Grupo_1071831" data-name="Grupo 1071831" transform="translate(-389.855 -4365)">
    <ellipse id="Elipse_6201" data-name="Elipse 6201" cx="95" cy="94.5" rx="95" ry="94.5" transform="translate(389.855 4365)" fill="#dbf9bd"/>
    <g id="Grupo_1067490" data-name="Grupo 1067490" transform="translate(430.674 4419.346)">
      <path id="Trazado_805455" data-name="Trazado 805455" d="M368.417,647.889c-.289,3.364-.355,6.409-.859,9.38a40.044,40.044,0,0,0-.763,10.17c.134,1.57.252,3.144.477,4.7A49.35,49.35,0,0,1,366.9,685.6c-.726,5.613-1.579,11.211-2.385,16.814-.3,2.1-.609,2.349-2.752,2.35-1.614,0-3.228.008-4.841,0-1.645-.01-2.194-.554-2.05-2.183.459-5.193.957-10.383,1.441-15.574.077-.822.2-1.643.206-2.465a1.333,1.333,0,0,0-.423-.886c-.5-.447-.752-.358-.845.4q-.708,5.748-1.522,11.484c-.354,2.524-.761,5.041-1.167,7.557-.2,1.239-.706,1.656-1.983,1.666-1.914.015-3.828.02-5.742,0-1.37-.016-1.953-.713-1.824-2.084.558-5.9,1.1-11.8,1.684-17.7a1.849,1.849,0,0,0-.807-1.747c-1.7-1.565-3.237-3.314-4.883-4.945a2.219,2.219,0,0,0-1.35-.7c-5.1.047-10.2.163-15.3.258-.321.006-.641,0-1.388,0,2.6,1.792,1.638,4.061,1.389,6.066-.792,6.4-1.759,12.774-2.681,19.156-.188,1.3-.7,1.69-2.066,1.7q-2.758.017-5.517,0c-1.481-.011-2.008-.545-2.012-2.059-.009-4.275,0-8.55,0-12.826l-.492-.046c-.212.97-.439,1.937-.635,2.911-.693,3.454-1.373,6.91-2.064,10.364-.252,1.26-.708,1.643-2,1.656-1.5.015-3,.021-4.5,0-1.344-.021-1.947-.632-1.813-1.978.842-8.454.055-16.853-.639-25.272-.263-3.191-2.194-5.225-3.967-7.461a29.208,29.208,0,0,0-2.077-2.218,10.223,10.223,0,0,0-4.069-2.812c-3.3-1.127-4.942-3.983-5.861-7.107-.895-3.041-1.408-6.2-2-9.322-.137-.727-.369-.955-1.076-1.093a10.779,10.779,0,0,1-6.627-4.129c-1.156-1.494-.936-2.432.782-3.286a14.213,14.213,0,0,1,6.66-1.339,7.083,7.083,0,0,0,1.155-.172,6.4,6.4,0,0,0-.519-1.139A17.85,17.85,0,0,1,276.95,626c.038-.87.192-1.659,1.155-1.977.985-.325,1.539.278,2.061.964a33.753,33.753,0,0,0,7.3,7.127,2.611,2.611,0,0,0,1.415.356q4.263.048,8.527,0a2.612,2.612,0,0,0,1.415-.356,33.464,33.464,0,0,0,7.232-7.038c.537-.7,1.081-1.4,2.129-1.054,1.022.337,1.132,1.192,1.164,2.088a17.793,17.793,0,0,1-3.529,11.49,5.686,5.686,0,0,0-.434.859,4.319,4.319,0,0,0,1.023.12,149.267,149.267,0,0,1,21.808-.613,167.892,167.892,0,0,0,19.762-1.124c3.958-.364,7.936-.7,11.868.275a10.005,10.005,0,0,1,6.975,5.7,1.461,1.461,0,0,0,.607.736c2.781,1.092,4.235,3.36,5.315,5.948a37.47,37.47,0,0,1,2.354,10.267c.231,2.011.325,4.036.507,6.053a1.363,1.363,0,0,0,.311.89c2.281,1.68,2.417,4.137,2.3,6.593a11.639,11.639,0,0,1-2.622,6.705c-.93,1.179-1.962,1.182-2.87-.016a11.461,11.461,0,0,1-2.3-10.05,13.353,13.353,0,0,1,1.656-2.972,1.841,1.841,0,0,0,.354-.851c-.256-4.874-.627-9.739-2.248-14.394C369.743,650.478,369.075,649.305,368.417,647.889Zm-3.168,2.866-.1-.021c-.064-1.011-.065-2.03-.2-3.03a9.737,9.737,0,0,0-2.436-5.689c-.43-.447-.784-.588-1.321-.142a44.537,44.537,0,0,0-3.5,2.817c-3.177,3.238-6.242,6.586-9.385,9.857a15.157,15.157,0,0,1-3.061,2.778,11.794,11.794,0,0,1-17.906-9.049,58.347,58.347,0,0,0-1.38-6.351c-.155-.664-.618-.914-1.334-.9-2.813.041-5.628.016-8.443.033-.775,0-1.715-.22-1.519,1.176.049.349-.368.8-.64,1.15a10.706,10.706,0,0,1-6.634,4.112c-.741.138-.928.427-1.05,1.124-.476,2.728-.875,5.487-1.617,8.147-1.368,4.9-3.905,8.711-9.638,9.066-.8.05-.269.458-.072.7,1.462,1.805,2.912,3.621,4.407,5.4a25.322,25.322,0,0,0,2.646,2.874,31.557,31.557,0,0,0,8.891,5.423,2.181,2.181,0,0,1,1.539,2.106c.225,5.586.5,11.169.7,16.756.092,2.588.031,2.561,2.646,2.538.735-.006.931-.263,1.023-.953.841-6.355,1.735-12.7,2.565-19.059a2.49,2.49,0,0,0-.426-1.409,36.972,36.972,0,0,1-1.938-3.149,2.106,2.106,0,0,1,.139-1.91c.845-.739.232-.9-.232-1.239a15.311,15.311,0,0,1-4.652-4.661,5.235,5.235,0,0,1,.75-6.712,11.385,11.385,0,0,1,6.216-3.413c5.2-1.063,9.677.169,12.357,5.149.568,1.055,1.133,2.115,1.629,3.205.946,2.08,1.813,4.2,2.786,6.262a1.389,1.389,0,0,0,1.05.658,40.937,40.937,0,0,0,4.6-.356c2.7-.384,5.438-.6,7.869-2.085,1-.614,2.022.134,2.3,1.331a11.6,11.6,0,0,0,1.116,3.123,11.061,11.061,0,0,0,5.362,4.791,2.1,2.1,0,0,1,1.464,2.434c-.513,5.188-.955,10.384-1.473,15.572-.243,2.437-.294,2.394,2.1,2.423.824.01,1.081-.263,1.189-1.054.605-4.42,1.305-8.826,1.9-13.247.758-5.621,1.271-11.24.406-16.922a35.789,35.789,0,0,1,.353-12.756C364.761,655.384,364.939,653.055,365.249,650.754Zm-61.826-5.46c-.055-.825-.062-1.842-.2-2.842-.546-3.953-2.525-6.283-6.1-6.767a29.74,29.74,0,0,0-6.719-.177c-4.842.454-7.03,2.821-7.417,7.692a35.118,35.118,0,0,0,1.615,12.863c1.592,5.348,3.808,6.809,9.358,6.721a7.118,7.118,0,0,0,7.094-4.993A40.683,40.683,0,0,0,303.424,645.294Zm54.71-5.1-.095-.43c-2.341,0-4.689-.113-7.023.021-7.067.406-14.128.917-21.194,1.357-.714.045-.634.3-.522.842.449,2.157.884,4.32,1.234,6.5.426,2.652,1.476,4.873,3.957,6.177a9.994,9.994,0,0,0,6.562.851,6.116,6.116,0,0,0,3.689-1.734C349.015,649.057,353,644.06,358.133,640.19Zm-30.164,34.457c1.519,0,2.8-.014,4.07.007.686.011.862-.181.545-.849-.514-1.083-.9-2.225-1.426-3.3-.952-1.949-1.906-3.9-2.978-5.786a4.972,4.972,0,0,0-3.218-2.474,10.309,10.309,0,0,0-8.492,1.477c-2.245,1.524-2.526,3.051-.654,4.984a49.24,49.24,0,0,0,4.514,3.686C322.635,674.265,325.165,675.365,327.969,674.647Zm14.31,2.686a13.875,13.875,0,0,0,4.4,3.938,2.025,2.025,0,0,1,1.275,2.32q-.773,7.83-1.439,15.669c-.219,2.534-.183,2.555,2.416,2.32a1.049,1.049,0,0,0,.741-.661q1.377-9.676,2.658-19.364a1.871,1.871,0,0,0-.277-1.126c-.856-1.4-1.758-2.768-2.667-4.133-.136-.2-.433-.491-.595-.456C346.644,676.3,344.51,676.812,342.279,677.333Zm-41.1,1.12c.039.581.063,1.14.117,1.7a131.741,131.741,0,0,1,.639,20.343c-.024.427-.382,1.153.579,1.114.694-.029,1.445.275,1.664-.9,1-5.378,2.088-10.742,3.174-16.1a16.382,16.382,0,0,1,.638-1.638c.06-.188.016-.562-.109-.635C305.7,681.038,303.492,679.781,301.181,678.453Zm72.981-2.1a7.829,7.829,0,0,0,.56-6.225c-.081-.245-.372-.42-.565-.628-.192.207-.489.384-.56.627A8.182,8.182,0,0,0,374.162,676.358Zm-68.255-45.69-.271-.153c-1.178,1.037-2.368,2.061-3.516,3.129-.112.1-.058.533.065.706.19.264.544.4.762.654.408.466.678.323.907-.142Q304.886,632.767,305.907,630.668Zm-25.242-.146-.223.119a33.88,33.88,0,0,0,1.492,3.341c1.091,1.9.581,1.555,2.257.3a.654.654,0,0,0-.016-.632C283.024,632.584,281.84,631.558,280.665,630.522Zm-4.792,11.705-.073.41a21.691,21.691,0,0,0,2.05,1.263c1.769.844,1.956.693,2.038-1.231.025-.585-.117-.836-.715-.773C278.075,642.012,276.974,642.118,275.874,642.227Zm34.636.524-.076-.444c-.762-.128-1.518-.3-2.285-.375-1.838-.169-1.842-.121-1.683,1.712.057.654.3.927.9.655C308.427,643.815,309.463,643.271,310.51,642.751Z" transform="translate(-271.538 -623.936)" fill="#1b3f5e"/>
    </g>
    <path id="Trazado_829422" data-name="Trazado 829422" d="M-7374.423-6521.479l9.967,8.308,8.721-8.308" transform="translate(7848.481 11049.262)" fill="none" stroke="#1b3f5e" stroke-width="2"/>
  </g>
</svg>
