<svg xmlns="http://www.w3.org/2000/svg" xmlns:xlink="http://www.w3.org/1999/xlink" width="820" height="278" viewBox="0 0 820 278">
  <defs>
    <clipPath id="clip-path">
      <rect id="Rectángulo_347505" data-name="Rectángulo 347505" width="24.007" height="32.061" fill="#fff"/>
    </clipPath>
  </defs>
  <g id="Grupo_1071960" data-name="Grupo 1071960" transform="translate(-389.855 -4364)">
    <g id="Grupo_1071958" data-name="Grupo 1071958">
      <g id="Trazado_829587" data-name="Trazado 829587" transform="translate(1019.855 4579)" fill="#632059">
        <path d="M 180 62.5 L 10 62.5 C 4.761690616607666 62.5 0.5 58.23830795288086 0.5 53 L 0.5 10 C 0.5 4.761690616607666 4.761690616607666 0.5 10 0.5 L 180 0.5 C 185.2383117675781 0.5 189.5 4.761690616607666 189.5 10 L 189.5 53 C 189.5 58.23830795288086 185.2383117675781 62.5 180 62.5 Z" stroke="none"/>
        <path d="M 10 1 C 5.037368774414062 1 1 5.037376403808594 1 10 L 1 53 C 1 57.96262359619141 5.037368774414062 62 10 62 L 180 62 C 184.9626312255859 62 189 57.96262359619141 189 53 L 189 10 C 189 5.037376403808594 184.9626312255859 1 180 1 L 10 1 M 10 0 L 180 0 C 185.5228576660156 0 190 4.477149963378906 190 10 L 190 53 C 190 58.52285003662109 185.5228576660156 63 180 63 L 10 63 C 4.477157592773438 63 0 58.52285003662109 0 53 L 0 10 C 0 4.477149963378906 4.477157592773438 0 10 0 Z" stroke="none" fill="#707070"/>
      </g>
      <path id="Trazado_829588" data-name="Trazado 829588" d="M54.034,12.184a8.385,8.385,0,0,1-.771,3.682,5.7,5.7,0,0,1-2.192,2.466,6.1,6.1,0,0,1-3.237.864,6.191,6.191,0,0,1-3.223-.835,5.692,5.692,0,0,1-2.192-2.388,8.144,8.144,0,0,1-.825-3.564v-.8a8.422,8.422,0,0,1,.767-3.687,5.688,5.688,0,0,1,2.2-2.466,6.5,6.5,0,0,1,6.479-.01,5.79,5.79,0,0,1,2.2,2.446,8.18,8.18,0,0,1,.8,3.638Zm-3.486-.6A5.979,5.979,0,0,0,49.84,8.37a2.271,2.271,0,0,0-2.026-1.1q-2.578,0-2.725,3.867l-.01,1.045a6.149,6.149,0,0,0,.693,3.213,2.268,2.268,0,0,0,2.061,1.123,2.24,2.24,0,0,0,2-1.1,5.982,5.982,0,0,0,.713-3.174Zm9.316,3.5,1.67-6.65H65L61.554,19H58.194L54.747,8.434h3.477Zm11.1,4.111a5.432,5.432,0,0,1-3.936-1.45,5.008,5.008,0,0,1-1.5-3.774V13.7a6.489,6.489,0,0,1,.6-2.861,4.395,4.395,0,0,1,1.753-1.919,5.292,5.292,0,0,1,2.734-.679A4.574,4.574,0,0,1,74.132,9.62a5.43,5.43,0,0,1,1.289,3.853v1.279H68.878a2.372,2.372,0,0,0,.771,1.4,2.3,2.3,0,0,0,1.543.508,2.958,2.958,0,0,0,2.441-1.094l1.5,1.777a4.2,4.2,0,0,1-1.743,1.353A5.891,5.891,0,0,1,70.968,19.2ZM70.6,10.777q-1.445,0-1.719,1.914H72.2v-.254a1.63,1.63,0,0,0-.4-1.226A1.593,1.593,0,0,0,70.6,10.777Zm9.688-2.344V19.361a3.836,3.836,0,0,1-1.074,2.891,4.127,4.127,0,0,1-2.969,1.016,7.009,7.009,0,0,1-1.553-.166v-2.49a6.3,6.3,0,0,0,.928.088,1.2,1.2,0,0,0,1.367-1.357V8.434ZM76.739,5.709a1.469,1.469,0,0,1,.508-1.152,2.159,2.159,0,0,1,2.637,0,1.469,1.469,0,0,1,.508,1.152,1.469,1.469,0,0,1-.508,1.152,2.159,2.159,0,0,1-2.637,0A1.469,1.469,0,0,1,76.739,5.709ZM88.1,19a3.716,3.716,0,0,1-.312-.947A3.06,3.06,0,0,1,85.245,19.2a3.749,3.749,0,0,1-2.539-.9,2.875,2.875,0,0,1-1.045-2.271,2.955,2.955,0,0,1,1.27-2.6,6.468,6.468,0,0,1,3.691-.879h1.016v-.559q0-1.462-1.26-1.462a1.03,1.03,0,0,0-1.172,1.158H81.915a2.95,2.95,0,0,1,1.3-2.487,5.479,5.479,0,0,1,3.325-.956,4.8,4.8,0,0,1,3.193.986,3.429,3.429,0,0,1,1.2,2.705v4.678a4.79,4.79,0,0,0,.449,2.227V19Zm-2.061-2.148a1.836,1.836,0,0,0,1.021-.264,1.653,1.653,0,0,0,.581-.6V14.3h-.957q-1.719,0-1.719,1.543a.942.942,0,0,0,.3.728A1.1,1.1,0,0,0,86.036,16.852Zm12.256-.82a.76.76,0,0,0-.439-.674,6.685,6.685,0,0,0-1.67-.527,7.615,7.615,0,0,1-2.031-.718,3.4,3.4,0,0,1-1.221-1.079,2.577,2.577,0,0,1-.42-1.455,2.92,2.92,0,0,1,1.2-2.4,4.948,4.948,0,0,1,3.145-.942,5.482,5.482,0,0,1,3.359.947,2.962,2.962,0,0,1,1.27,2.49h-3.3q0-1.27-1.338-1.27a1.326,1.326,0,0,0-.869.288.892.892,0,0,0-.352.718.819.819,0,0,0,.43.713,4.06,4.06,0,0,0,1.372.449,11.857,11.857,0,0,1,1.655.42,3.007,3.007,0,0,1,2.383,2.939,2.767,2.767,0,0,1-1.284,2.354,5.631,5.631,0,0,1-3.325.908,5.747,5.747,0,0,1-2.422-.488,4.05,4.05,0,0,1-1.66-1.328,3.007,3.007,0,0,1-.6-1.768h3.076a1.272,1.272,0,0,0,.488,1.069,2.009,2.009,0,0,0,1.2.337,1.58,1.58,0,0,0,1.011-.273A.875.875,0,0,0,98.292,16.031Z" transform="translate(1038.855 4599)" fill="#fff"/>
      <g id="Grupo_1071833" data-name="Grupo 1071833">
        <g id="Grupo_1071830" data-name="Grupo 1071830" transform="translate(0 -199)">
          <ellipse id="Elipse_6201" data-name="Elipse 6201" cx="94.5" cy="95" rx="94.5" ry="95" transform="translate(1020.855 4563)" fill="#dbf9bd"/>
          <path id="Trazado_829422" data-name="Trazado 829422" d="M-7374.423-6521.479l9.993,8.329,8.742-8.329" transform="translate(8478.882 11248.196)" fill="none" stroke="#1b3f5e" stroke-width="2"/>
          <g id="Grupo_1067488" data-name="Grupo 1067488" transform="translate(1069.219 4608.749)">
            <path id="Trazado_805452" data-name="Trazado 805452" d="M71.8,629.45c1.024-3.8,4.161-5.843,6.93-8.144,1.343-1.116,2.984-1.866,4.4-2.907a18.71,18.71,0,0,0,3.325-2.931,6.3,6.3,0,0,1,6.179-2.4,1.727,1.727,0,0,0,1.476-.491,11.6,11.6,0,0,1,2.974-1.728,28.119,28.119,0,0,1,4.175-.977,3.211,3.211,0,0,1,3.43,1.417,3.251,3.251,0,0,1,.134,3.789c-.932,1.529-1.951,3-2.875,4.537a1.881,1.881,0,0,0-.1,1.113,6.228,6.228,0,0,0,.347,1.011c.175.565.169,1.323.543,1.648.335.291,1.087.069,1.647.139a10.324,10.324,0,0,1,9.108,7.152,3.178,3.178,0,0,0,4.594,1.972,9.923,9.923,0,0,1,8.1-.181,5.434,5.434,0,0,0,4.242-.01,10.079,10.079,0,0,1,7.687.022,5.013,5.013,0,0,0,4.155-.011,3.863,3.863,0,0,1,1.2-.329,1.763,1.763,0,0,1,.956,3.318c-2.321,1.077-4.7,1.552-7.176.5a7.517,7.517,0,0,0-6.007-.007,7.562,7.562,0,0,1-5.926-.01,7.657,7.657,0,0,0-6.166.109,6.4,6.4,0,0,1-8.882-3.925,7.01,7.01,0,0,0-5.88-4.989c-3.084-.45-5.376.914-7.054,3.438-.231.348-.426.718-.634,1.08a4.734,4.734,0,0,1-4.072,2.5c-3.732.226-6.416,2.427-7.107,5.813a6.636,6.636,0,0,0,.727,4.765,5.323,5.323,0,0,1,0,5.6,7.024,7.024,0,0,0,2.405,9.37,5.6,5.6,0,0,1,2.778,4.869,7.084,7.084,0,0,0,10.094,6.344,7.184,7.184,0,0,1,5.978.019,7.008,7.008,0,0,0,5.9.006,7.053,7.053,0,0,1,5.979-.008,7.019,7.019,0,0,0,5.9.012,7.144,7.144,0,0,1,6.063.018,6.855,6.855,0,0,0,5.818-.02,7.294,7.294,0,0,1,5.74-.179,8.387,8.387,0,0,0,4.359.737,7.047,7.047,0,0,0,6.027-6.977,5.6,5.6,0,0,1,3.123-5.014,7.108,7.108,0,0,0-.161-12.432,5.133,5.133,0,0,1-2.933-4.751,1.777,1.777,0,0,1,1.625-1.905,1.716,1.716,0,0,1,1.892,1.624,2.319,2.319,0,0,0,1.421,2.057,10.7,10.7,0,0,1-.121,18.549,2.406,2.406,0,0,0-1.334,2.216,10.449,10.449,0,0,1-8.3,10.026c-.54.128-.709.312-.75.854q-.7,9.11-1.469,18.213c-.064.739.3.686.774.685,3.076-.005,6.153-.011,9.229,0a1.745,1.745,0,0,1,1.933,1.577,1.708,1.708,0,0,1-1.369,1.916,5.462,5.462,0,0,1-1.156.081q-33.424,0-66.846,0c-.269,0-.54.014-.806-.012a1.771,1.771,0,0,1-1.743-1.884,1.718,1.718,0,0,1,1.836-1.676c1.912-.028,3.823-.011,5.735-.012,1.822,0,3.644-.014,5.466.008.529.007.952-.028,1.027-.677a.846.846,0,0,1,.193-.4c1.994-2.5,1.508-5.393,1.087-8.154-.489-3.206-1.379-6.349-2.057-9.528-.123-.577-.338-.749-.935-.749A10.7,10.7,0,0,1,87.82,664.641a2.086,2.086,0,0,0-1.073-1.884A10.7,10.7,0,0,1,83.1,648.587a1.758,1.758,0,0,0,.146-1.85,10.717,10.717,0,0,1-.963-8.643,1.583,1.583,0,0,0,0-.339,6.266,6.266,0,0,1-5.187.852,6.731,6.731,0,0,1-5.1-5c-.057-.193-.133-.38-.2-.57Zm51.484,65.2c2.9,0,5.793-.041,8.687.021,1.03.022,1.786-.053,2.131-1.231.238-.812,1-1.52,1.078-2.318a20.179,20.179,0,0,0-.015-5.265c-.591-3.433-1.458-6.818-2.251-10.214a1.158,1.158,0,0,0-.666-.642c-.831-.319-1.709-.516-2.538-.838a3.46,3.46,0,0,0-2.778-.01,11.219,11.219,0,0,1-9.2.037,6.15,6.15,0,0,0-2.592-.064c-.59.039-.786.5-.819,1.083-.08,1.4-.206,2.8-.318,4.2-.384,4.789-.757,9.579-1.167,14.365-.063.731.165.9.865.9C116.892,694.627,120.086,694.646,123.28,694.647Zm-21.645-81.211c-.7.157-1.188.3-1.682.37a5.661,5.661,0,0,0-4.4,2.54,1.6,1.6,0,0,1-1.992.593,10.639,10.639,0,0,0-1.213-.306,3.112,3.112,0,0,0-3.157,1.15,17.444,17.444,0,0,1-3.911,3.475,40.138,40.138,0,0,0-8.915,6.984,3.447,3.447,0,0,0-.911,3.147c.329-.2.582-.349.829-.507,1.472-.947,2.462-.923,3.129.081.678,1.021.282,1.978-1.221,2.956-.389.252-.773.513-1.239.824a3.059,3.059,0,0,0,3.191.1,6.936,6.936,0,0,1,4.153-1.138,1.632,1.632,0,0,0,1.037-.35,10.581,10.581,0,0,1,6.662-2.716,1.926,1.926,0,0,0,1.87-1.219,10.212,10.212,0,0,1,4.732-4.837c.2-.1.443-.467.4-.642a9.113,9.113,0,0,0-.791-2.35c-.714-1.229-.795-1.6-.043-2.767C99.272,617.092,100.389,615.366,101.635,613.436Zm39.333,75.042c.478,0,.958-.031,1.433.008.557.047.785-.141.828-.725.3-4.078.633-8.154.933-12.232a.717.717,0,0,0-.319-.578c-2.027-.837-4.064-1.691-6.217-.337a1.552,1.552,0,0,1-.6.181c-.469.068-.56.285-.448.742.328,1.331.621,2.672.9,4.015.474,2.3,1.055,4.6,1.347,6.925C139.072,688.459,138.92,688.478,140.968,688.477Zm-33.428,0c.477,0,.958-.036,1.43.009.638.061.81-.217.833-.817.047-1.221.173-2.437.267-3.656q.311-4.057.622-8.114c.03-.393.077-.667-.525-.769-1.455-.246-2.874-.694-4.323-.976a10.647,10.647,0,0,0-2.269-.138c-.564.013-.709.378-.573.933q.52,2.125.966,4.269c.508,2.417,1.117,4.822,1.447,7.264C105.682,688.457,105.528,688.478,107.54,688.477Zm-1.086,6.113v.052c.624,0,1.25.015,1.873,0a.861.861,0,0,0,.942-.86c.031-.385.065-.771.126-1.152.072-.443-.117-.577-.537-.569-.921.019-1.845.035-2.765-.006a.837.837,0,0,0-1.013.708,14.943,14.943,0,0,1-.756,1.831Zm33.531.055c.565,0,1.131,0,1.7,0a.962.962,0,0,0,1.063-.954c.236-1.631.246-1.629-1.389-1.629a1.793,1.793,0,0,1-.268,0c-1.541-.238-2.794.012-3.127,1.834a.427.427,0,0,1-.079.159c-.295.414-.261.626.319.6S139.389,694.646,139.984,694.645Z" transform="translate(-71.796 -609.802)" fill="#1b3f5e"/>
            <path id="Trazado_805453" data-name="Trazado 805453" d="M193.867,648.788a1.743,1.743,0,0,1,1.762-1.753,1.781,1.781,0,1,1-.048,3.562A1.76,1.76,0,0,1,193.867,648.788Z" transform="translate(-115.922 -623.261)" fill="#1b3f5e"/>
            <path id="Trazado_805454" data-name="Trazado 805454" d="M94.82,630.29a1.784,1.784,0,0,1,1.746-1.785,1.8,1.8,0,0,1,1.819,1.719,1.783,1.783,0,1,1-3.565.067Z" transform="translate(-80.119 -616.563)" fill="#1b3f5e"/>
          </g>
        </g>
      </g>
      <g id="Grupo_1016980" data-name="Grupo 1016980" transform="translate(1168.855 4594.47)">
        <g id="Grupo_1016980-2" data-name="Grupo 1016980" clip-path="url(#clip-path)">
          <path id="Trazado_608349" data-name="Trazado 608349" d="M13.983.019V.632c0,2.338-.02,4.677.016,7.014a3.436,3.436,0,0,0,.351,1.5,1.87,1.87,0,0,0,1.831.885c2.417-.006,4.834,0,7.252,0h.544c.011.2.028.353.028.508q0,8.637,0,17.273a3.962,3.962,0,0,1-3,4.082,4.689,4.689,0,0,1-1.269.164q-7.729.016-15.457.006A4.047,4.047,0,0,1,.007,27.817q-.015-11.786,0-23.572A3.956,3.956,0,0,1,3.01.17,4.1,4.1,0,0,1,4.136.008C7.3,0,10.465,0,13.629,0c.093,0,.186.009.354.017m.143,24.226c.119.143.222.286.344.411.612.625,1.215,1.261,1.848,1.864a1.53,1.53,0,0,0,2.662-.657,1.6,1.6,0,0,0-.535-1.549q-.966-.991-1.97-1.944a.406.406,0,0,1-.1-.57,6.039,6.039,0,0,0-7.524-8.369,5.819,5.819,0,0,0-3.771,6.5,5.9,5.9,0,0,0,6.182,5.118,6.389,6.389,0,0,0,2.869-.806" transform="translate(0 0)" fill="#fff"/>
          <path id="Trazado_608350" data-name="Trazado 608350" d="M175.611,11.192h-7.449a1.772,1.772,0,0,1-.21-.028V3.532l7.659,7.66" transform="translate(-151.881 -3.194)" fill="#fff"/>
          <path id="Trazado_608351" data-name="Trazado 608351" d="M89.869,170.666a2.972,2.972,0,1,1-2.979-2.973,2.986,2.986,0,0,1,2.979,2.973" transform="translate(-75.894 -151.646)" fill="#fff"/>
        </g>
      </g>
    </g>
    <g id="Grupo_1071957" data-name="Grupo 1071957">
      <g id="Trazado_829585" data-name="Trazado 829585" transform="translate(704.855 4579)" fill="#632059">
        <path d="M 180 62.5 L 10 62.5 C 4.761690616607666 62.5 0.5 58.23830795288086 0.5 53 L 0.5 10 C 0.5 4.761690616607666 4.761690616607666 0.5 10 0.5 L 180 0.5 C 185.2383117675781 0.5 189.5 4.761690616607666 189.5 10 L 189.5 53 C 189.5 58.23830795288086 185.2383117675781 62.5 180 62.5 Z" stroke="none"/>
        <path d="M 10 1 C 5.037368774414062 1 1 5.037376403808594 1 10 L 1 53 C 1 57.96262359619141 5.037368774414062 62 10 62 L 180 62 C 184.9626312255859 62 189 57.96262359619141 189 53 L 189 10 C 189 5.037376403808594 184.9626312255859 1 180 1 L 10 1 M 10 0 L 180 0 C 185.5228576660156 0 190 4.477149963378906 190 10 L 190 53 C 190 58.52285003662109 185.5228576660156 63 180 63 L 10 63 C 4.477157592773438 63 0 58.52285003662109 0 53 L 0 10 C 0 4.477149963378906 4.477157592773438 0 10 0 Z" stroke="none" fill="#707070"/>
      </g>
      <path id="Trazado_829586" data-name="Trazado 829586" d="M53.513,14.186a5.193,5.193,0,0,1-.8,2.622,4.833,4.833,0,0,1-2.056,1.763,7,7,0,0,1-3.022.625,5.584,5.584,0,0,1-4.414-1.826,7.54,7.54,0,0,1-1.611-5.156v-.7a8.607,8.607,0,0,1,.728-3.657,5.513,5.513,0,0,1,2.095-2.422,5.844,5.844,0,0,1,3.164-.854,6.129,6.129,0,0,1,4.16,1.362,5.383,5.383,0,0,1,1.787,3.755H50.124a2.547,2.547,0,0,0-.654-1.865,2.691,2.691,0,0,0-1.875-.566,2.048,2.048,0,0,0-1.875.957,6.151,6.151,0,0,0-.625,3.057v1.006a6.806,6.806,0,0,0,.571,3.252,2.091,2.091,0,0,0,1.968.977,2.632,2.632,0,0,0,1.807-.557,2.363,2.363,0,0,0,.664-1.768Zm6.582,5.01a5.432,5.432,0,0,1-3.936-1.45,5.008,5.008,0,0,1-1.5-3.774V13.7a6.489,6.489,0,0,1,.6-2.861,4.395,4.395,0,0,1,1.753-1.919,5.292,5.292,0,0,1,2.734-.679A4.574,4.574,0,0,1,63.259,9.62a5.43,5.43,0,0,1,1.289,3.853v1.279H58a2.372,2.372,0,0,0,.771,1.4,2.3,2.3,0,0,0,1.543.508,2.958,2.958,0,0,0,2.441-1.094l1.5,1.777a4.2,4.2,0,0,1-1.743,1.353A5.891,5.891,0,0,1,60.095,19.2Zm-.371-8.418q-1.445,0-1.719,1.914h3.32v-.254a1.63,1.63,0,0,0-.4-1.226A1.593,1.593,0,0,0,59.724,10.777Zm12.539.635-1.084-.078a1.947,1.947,0,0,0-1.992.977V19H65.9V8.434h3.086l.107,1.357A2.548,2.548,0,0,1,71.4,8.238a3.209,3.209,0,0,1,.918.117Zm.586,2.227a6.455,6.455,0,0,1,1.084-3.955A3.568,3.568,0,0,1,76.96,8.238a3.035,3.035,0,0,1,2.383,1.113V4h3.3V19H79.685l-.166-1.133A3.116,3.116,0,0,1,76.94,19.2a3.562,3.562,0,0,1-2.988-1.445A6.659,6.659,0,0,1,72.849,13.639Zm3.291.205q0,2.813,1.641,2.813a1.62,1.62,0,0,0,1.563-.918V11.715a1.576,1.576,0,0,0-1.543-.937q-1.523,0-1.65,2.461Zm7.959-.225a6.236,6.236,0,0,1,.615-2.817,4.4,4.4,0,0,1,1.768-1.9,5.323,5.323,0,0,1,2.705-.664,4.858,4.858,0,0,1,3.74,1.47,5.64,5.64,0,0,1,1.367,4v.117a5.472,5.472,0,0,1-1.372,3.921,4.871,4.871,0,0,1-3.716,1.45,4.927,4.927,0,0,1-3.623-1.353,5.29,5.29,0,0,1-1.475-3.667Zm3.291.205a3.932,3.932,0,0,0,.459,2.148,1.529,1.529,0,0,0,1.357.684q1.758,0,1.8-2.705v-.332q0-2.842-1.816-2.842-1.65,0-1.787,2.451Zm13.887,2.207a.76.76,0,0,0-.439-.674,6.685,6.685,0,0,0-1.67-.527,7.615,7.615,0,0,1-2.031-.718,3.4,3.4,0,0,1-1.221-1.079,2.577,2.577,0,0,1-.42-1.455,2.92,2.92,0,0,1,1.2-2.4,4.948,4.948,0,0,1,3.145-.942,5.482,5.482,0,0,1,3.359.947,2.962,2.962,0,0,1,1.27,2.49h-3.3q0-1.27-1.338-1.27a1.326,1.326,0,0,0-.869.288.892.892,0,0,0-.352.718.819.819,0,0,0,.43.713,4.06,4.06,0,0,0,1.372.449,11.857,11.857,0,0,1,1.655.42,3.007,3.007,0,0,1,2.383,2.939,2.767,2.767,0,0,1-1.284,2.354,5.631,5.631,0,0,1-3.325.908,5.747,5.747,0,0,1-2.422-.488,4.05,4.05,0,0,1-1.66-1.328,3.007,3.007,0,0,1-.6-1.768h3.076a1.272,1.272,0,0,0,.488,1.069,2.009,2.009,0,0,0,1.2.337,1.58,1.58,0,0,0,1.011-.273A.875.875,0,0,0,101.276,16.031Z" transform="translate(723.855 4599)" fill="#fff"/>
      <g id="Grupo_1071832" data-name="Grupo 1071832">
        <g id="Grupo_1071829" data-name="Grupo 1071829" transform="translate(0 -199)">
          <circle id="Elipse_6201-2" data-name="Elipse 6201" cx="95" cy="95" r="95" transform="translate(704.855 4563)" fill="#dbf9bd"/>
          <path id="Trazado_829422-2" data-name="Trazado 829422" d="M-7374.423-6521.478l10.008,8.342,8.756-8.342" transform="translate(8163.562 11248.154)" fill="none" stroke="#1b3f5e" stroke-width="2"/>
          <g id="Grupo_1067504" data-name="Grupo 1067504" transform="translate(752.027 4621.824)">
            <path id="Trazado_805466" data-name="Trazado 805466" d="M397.972,232.531A2.1,2.1,0,0,1,395.8,233.7c-.144.372-.285.7-.4,1.044a6.867,6.867,0,0,1-5.45,4.792q-9.723,1.968-19.45,3.909c-.25.05-.5.1-.747.156-3.726.776-3.76.751-5.966,3.857a4.4,4.4,0,0,0-.776,2.312c-.08,3.71-.049,7.423-.024,11.135a3,3,0,0,0,.337,1.236c.889,1.83,1.824,3.637,2.724,5.462.856,1.738.176,2.849-1.769,2.853q-8.242.019-16.485,0c-1.571,0-2.107-.538-2.11-2.106q-.016-8.9,0-17.8v-1.447c-.522.075-.935.142-1.351.193-1.169.144-1.98-.382-2.111-1.364-.136-1.014.472-1.691,1.642-1.882q3.874-.634,7.742-1.3c.32-.054.633-.148,1.088-.256,0-1.155,0-2.305,0-3.455,0-.692-.023-1.385.024-2.073a1.594,1.594,0,0,1,1.525-1.558,1.621,1.621,0,0,1,1.669,1.414,7.185,7.185,0,0,1,.055,1.2q0,12.883,0,25.766v1.332h6.152c-.621-1.261-1.151-2.443-1.774-3.573a5.5,5.5,0,0,1-.662-2.814c.034-3.53.045-7.06,0-10.59a7.435,7.435,0,0,1,1.874-5.2c.91-1.04,1.754-2.137,2.662-3.179a17.219,17.219,0,0,0,3.6-6.417c.35-1.169,1.147-1.648,2.1-1.349a1.615,1.615,0,0,1,1,2.277c-.433,1.3-.954,2.576-1.49,4,1.155-.216,2.276-.413,3.392-.637q7.965-1.592,15.927-3.193c2.113-.421,2.967-1.084,3.528-2.9-1.322-.2-2.641-.338-3.937-.6-1.6-.32-3.2-.685-4.768-1.132a1.566,1.566,0,0,1-1.063-2,1.637,1.637,0,0,1,2.081-1.073c.213.049.419.128.633.164,2.756.467,5.511.935,8.269,1.383a7.425,7.425,0,0,0,1.133.008V224.6a31.551,31.551,0,0,1-14.976-9.184c-.342.774-.626,1.461-.947,2.129a9.418,9.418,0,0,1-.746,1.329,1.593,1.593,0,0,1-2.19.572,1.678,1.678,0,0,1-.585-2.277,36.151,36.151,0,0,0,1.683-4.462,12.743,12.743,0,0,0-.273-6.945,14.709,14.709,0,0,0-5.585,1.569,14.937,14.937,0,0,0-4.469,3.439,2.789,2.789,0,0,1-1.343.792,1.373,1.373,0,0,1-1.522-.819,1.438,1.438,0,0,1,.148-1.735,20.115,20.115,0,0,1,2.191-2.272,18.58,18.58,0,0,1,11.292-4.346c1.5-.079,1.885.235,2.319,1.716a21.609,21.609,0,0,1,.857,6.244,2.38,2.38,0,0,0,.342,1.306,27.124,27.124,0,0,0,13.835,9.459c.07-.1.151-.212.233-.325q1.357-1.881,3.077.167Zm-48.925,16.046v18.534H352.6v-19.19Z" transform="translate(-286.142 -200.649)" fill="#1b3f5e"/>
            <path id="Trazado_805467" data-name="Trazado 805467" d="M262.021,213.307a5.35,5.35,0,0,1-3.239-3.818,5.557,5.557,0,0,1-.126-1.078q-.017-3.33,0-6.661c.006-1.191.627-1.926,1.6-1.949,1.008-.023,1.655.739,1.674,1.986.009.574,0,1.148,0,1.744,3.037-.688,5.475.154,6.921,3.547,1.66-.537,3.286-1.178,4.97-1.571a18.327,18.327,0,0,1,4.109-.443q25.88-.042,51.76-.019c.146,0,.291,0,.437,0a1.694,1.694,0,0,1,1.832,1.618,1.674,1.674,0,0,1-1.792,1.652c-.327.015-.655,0-.982,0q-25.608,0-51.214,0a15.837,15.837,0,0,0-15.719,12.724,24.57,24.57,0,0,0,.415,9.964,32.784,32.784,0,0,0,3.532,9.346c1.6,2.9,3.131,5.83,4.765,8.706a11.1,11.1,0,0,1,1.479,5.832c-.063,3.746-.017,7.494-.017,11.342h6.135a16.491,16.491,0,0,0-.837-1.73,10.562,10.562,0,0,1-1.6-6.748c.161-1.953-.058-3.95.236-5.875a32.347,32.347,0,0,1,1.524-5.1c1.123-3.417,2.276-6.824,3.417-10.234a6.211,6.211,0,0,1,.257-.717,1.569,1.569,0,0,1,1.968-.921,1.533,1.533,0,0,1,1.1,1.874c-.171.777-.466,1.527-.715,2.287-.348,1.063-.7,2.124-1.11,3.345,1.512.507,2.929,1.053,4.387,1.458a61.726,61.726,0,0,0,16.181,2.1c1.855.013,3.711-.083,5.567-.068a2.741,2.741,0,0,1,1.416.394,1.422,1.422,0,0,1,.475,1.763,1.6,1.6,0,0,1-1.6,1.089c-1.856.05-3.712.141-5.567.123a68.711,68.711,0,0,1-14.942-1.622,5.693,5.693,0,0,0-.576-.063c-.161.429-.317.892-.507,1.34a19.723,19.723,0,0,0-1.267,7.335,13.58,13.58,0,0,0,1.95,8.083,22.978,22.978,0,0,1,1.225,2.433c.851,1.746.178,2.818-1.791,2.838-1.42.014-2.839,0-4.259,0q-6.006,0-12.012,0c-1.82,0-2.324-.516-2.325-2.347,0-4.259-.02-8.517.01-12.776a7.026,7.026,0,0,0-.908-3.542c-1.723-3.118-3.422-6.25-5.125-9.38a35.838,35.838,0,0,1-4.468-17.348,18.763,18.763,0,0,1,2.964-10.229C261.734,213.807,261.839,213.618,262.021,213.307Zm19.749,32.2c-.512,1.512-.91,2.949-1.477,4.315-1.432,3.443-.69,7.042-.86,10.574a.454.454,0,0,0,.039.213c.948,1.912,1.9,3.823,2.814,5.661h3.323c-.681-1.375-1.359-2.608-1.9-3.9a6.5,6.5,0,0,1-.536-2.285c-.069-2.327-.052-4.658-.009-6.986a8.24,8.24,0,0,1,.348-2.128c.415-1.424.912-2.826,1.4-4.309Zm-16.133-37.018a1.853,1.853,0,1,0-1.93,1.792A1.851,1.851,0,0,0,265.637,208.489Z" transform="translate(-258.646 -199.801)" fill="#1b3f5e"/>
            <path id="Trazado_805468" data-name="Trazado 805468" d="M398.288,231.029a1.642,1.642,0,0,1,1.626,1.687,1.688,1.688,0,0,1-1.653,1.569,1.645,1.645,0,0,1-1.6-1.708A1.589,1.589,0,0,1,398.288,231.029Z" transform="translate(-304.062 -210.077)" fill="#1b3f5e"/>
          </g>
        </g>
      </g>
      <g id="Grupo_1071834" data-name="Grupo 1071834" transform="translate(857.851 4594.47)">
        <g id="Grupo_1016980-3" data-name="Grupo 1016980" clip-path="url(#clip-path)">
          <path id="Trazado_608349-2" data-name="Trazado 608349" d="M13.983.019V.632c0,2.338-.02,4.677.016,7.014a3.436,3.436,0,0,0,.351,1.5,1.87,1.87,0,0,0,1.831.885c2.417-.006,4.834,0,7.252,0h.544c.011.2.028.353.028.508q0,8.637,0,17.273a3.962,3.962,0,0,1-3,4.082,4.689,4.689,0,0,1-1.269.164q-7.729.016-15.457.006A4.047,4.047,0,0,1,.007,27.817q-.015-11.786,0-23.572A3.956,3.956,0,0,1,3.01.17,4.1,4.1,0,0,1,4.136.008C7.3,0,10.465,0,13.629,0c.093,0,.186.009.354.017m.143,24.226c.119.143.222.286.344.411.612.625,1.215,1.261,1.848,1.864a1.53,1.53,0,0,0,2.662-.657,1.6,1.6,0,0,0-.535-1.549q-.966-.991-1.97-1.944a.406.406,0,0,1-.1-.57,6.039,6.039,0,0,0-7.524-8.369,5.819,5.819,0,0,0-3.771,6.5,5.9,5.9,0,0,0,6.182,5.118,6.389,6.389,0,0,0,2.869-.806" transform="translate(0 0)" fill="#fff"/>
          <path id="Trazado_608350-2" data-name="Trazado 608350" d="M175.611,11.192h-7.449a1.772,1.772,0,0,1-.21-.028V3.532l7.659,7.66" transform="translate(-151.881 -3.194)" fill="#fff"/>
          <path id="Trazado_608351-2" data-name="Trazado 608351" d="M89.869,170.666a2.972,2.972,0,1,1-2.979-2.973,2.986,2.986,0,0,1,2.979,2.973" transform="translate(-75.894 -151.646)" fill="#fff"/>
        </g>
      </g>
    </g>
    <g id="Grupo_1071959" data-name="Grupo 1071959">
      <g id="Grupo_1071831" data-name="Grupo 1071831" transform="translate(0 3)">
        <ellipse id="Elipse_6201-3" data-name="Elipse 6201" cx="95" cy="94.5" rx="95" ry="94.5" transform="translate(389.855 4365)" fill="#dbf9bd"/>
        <g id="Grupo_1067490" data-name="Grupo 1067490" transform="translate(430.674 4419.346)">
          <path id="Trazado_805455" data-name="Trazado 805455" d="M368.417,647.889c-.289,3.364-.355,6.409-.859,9.38a40.044,40.044,0,0,0-.763,10.17c.134,1.57.252,3.144.477,4.7A49.35,49.35,0,0,1,366.9,685.6c-.726,5.613-1.579,11.211-2.385,16.814-.3,2.1-.609,2.349-2.752,2.35-1.614,0-3.228.008-4.841,0-1.645-.01-2.194-.554-2.05-2.183.459-5.193.957-10.383,1.441-15.574.077-.822.2-1.643.206-2.465a1.333,1.333,0,0,0-.423-.886c-.5-.447-.752-.358-.845.4q-.708,5.748-1.522,11.484c-.354,2.524-.761,5.041-1.167,7.557-.2,1.239-.706,1.656-1.983,1.666-1.914.015-3.828.02-5.742,0-1.37-.016-1.953-.713-1.824-2.084.558-5.9,1.1-11.8,1.684-17.7a1.849,1.849,0,0,0-.807-1.747c-1.7-1.565-3.237-3.314-4.883-4.945a2.219,2.219,0,0,0-1.35-.7c-5.1.047-10.2.163-15.3.258-.321.006-.641,0-1.388,0,2.6,1.792,1.638,4.061,1.389,6.066-.792,6.4-1.759,12.774-2.681,19.156-.188,1.3-.7,1.69-2.066,1.7q-2.758.017-5.517,0c-1.481-.011-2.008-.545-2.012-2.059-.009-4.275,0-8.55,0-12.826l-.492-.046c-.212.97-.439,1.937-.635,2.911-.693,3.454-1.373,6.91-2.064,10.364-.252,1.26-.708,1.643-2,1.656-1.5.015-3,.021-4.5,0-1.344-.021-1.947-.632-1.813-1.978.842-8.454.055-16.853-.639-25.272-.263-3.191-2.194-5.225-3.967-7.461a29.208,29.208,0,0,0-2.077-2.218,10.223,10.223,0,0,0-4.069-2.812c-3.3-1.127-4.942-3.983-5.861-7.107-.895-3.041-1.408-6.2-2-9.322-.137-.727-.369-.955-1.076-1.093a10.779,10.779,0,0,1-6.627-4.129c-1.156-1.494-.936-2.432.782-3.286a14.213,14.213,0,0,1,6.66-1.339,7.083,7.083,0,0,0,1.155-.172,6.4,6.4,0,0,0-.519-1.139A17.85,17.85,0,0,1,276.95,626c.038-.87.192-1.659,1.155-1.977.985-.325,1.539.278,2.061.964a33.753,33.753,0,0,0,7.3,7.127,2.611,2.611,0,0,0,1.415.356q4.263.048,8.527,0a2.612,2.612,0,0,0,1.415-.356,33.464,33.464,0,0,0,7.232-7.038c.537-.7,1.081-1.4,2.129-1.054,1.022.337,1.132,1.192,1.164,2.088a17.793,17.793,0,0,1-3.529,11.49,5.686,5.686,0,0,0-.434.859,4.319,4.319,0,0,0,1.023.12,149.267,149.267,0,0,1,21.808-.613,167.892,167.892,0,0,0,19.762-1.124c3.958-.364,7.936-.7,11.868.275a10.005,10.005,0,0,1,6.975,5.7,1.461,1.461,0,0,0,.607.736c2.781,1.092,4.235,3.36,5.315,5.948a37.47,37.47,0,0,1,2.354,10.267c.231,2.011.325,4.036.507,6.053a1.363,1.363,0,0,0,.311.89c2.281,1.68,2.417,4.137,2.3,6.593a11.639,11.639,0,0,1-2.622,6.705c-.93,1.179-1.962,1.182-2.87-.016a11.461,11.461,0,0,1-2.3-10.05,13.353,13.353,0,0,1,1.656-2.972,1.841,1.841,0,0,0,.354-.851c-.256-4.874-.627-9.739-2.248-14.394C369.743,650.478,369.075,649.305,368.417,647.889Zm-3.168,2.866-.1-.021c-.064-1.011-.065-2.03-.2-3.03a9.737,9.737,0,0,0-2.436-5.689c-.43-.447-.784-.588-1.321-.142a44.537,44.537,0,0,0-3.5,2.817c-3.177,3.238-6.242,6.586-9.385,9.857a15.157,15.157,0,0,1-3.061,2.778,11.794,11.794,0,0,1-17.906-9.049,58.347,58.347,0,0,0-1.38-6.351c-.155-.664-.618-.914-1.334-.9-2.813.041-5.628.016-8.443.033-.775,0-1.715-.22-1.519,1.176.049.349-.368.8-.64,1.15a10.706,10.706,0,0,1-6.634,4.112c-.741.138-.928.427-1.05,1.124-.476,2.728-.875,5.487-1.617,8.147-1.368,4.9-3.905,8.711-9.638,9.066-.8.05-.269.458-.072.7,1.462,1.805,2.912,3.621,4.407,5.4a25.322,25.322,0,0,0,2.646,2.874,31.557,31.557,0,0,0,8.891,5.423,2.181,2.181,0,0,1,1.539,2.106c.225,5.586.5,11.169.7,16.756.092,2.588.031,2.561,2.646,2.538.735-.006.931-.263,1.023-.953.841-6.355,1.735-12.7,2.565-19.059a2.49,2.49,0,0,0-.426-1.409,36.972,36.972,0,0,1-1.938-3.149,2.106,2.106,0,0,1,.139-1.91c.845-.739.232-.9-.232-1.239a15.311,15.311,0,0,1-4.652-4.661,5.235,5.235,0,0,1,.75-6.712,11.385,11.385,0,0,1,6.216-3.413c5.2-1.063,9.677.169,12.357,5.149.568,1.055,1.133,2.115,1.629,3.205.946,2.08,1.813,4.2,2.786,6.262a1.389,1.389,0,0,0,1.05.658,40.937,40.937,0,0,0,4.6-.356c2.7-.384,5.438-.6,7.869-2.085,1-.614,2.022.134,2.3,1.331a11.6,11.6,0,0,0,1.116,3.123,11.061,11.061,0,0,0,5.362,4.791,2.1,2.1,0,0,1,1.464,2.434c-.513,5.188-.955,10.384-1.473,15.572-.243,2.437-.294,2.394,2.1,2.423.824.01,1.081-.263,1.189-1.054.605-4.42,1.305-8.826,1.9-13.247.758-5.621,1.271-11.24.406-16.922a35.789,35.789,0,0,1,.353-12.756C364.761,655.384,364.939,653.055,365.249,650.754Zm-61.826-5.46c-.055-.825-.062-1.842-.2-2.842-.546-3.953-2.525-6.283-6.1-6.767a29.74,29.74,0,0,0-6.719-.177c-4.842.454-7.03,2.821-7.417,7.692a35.118,35.118,0,0,0,1.615,12.863c1.592,5.348,3.808,6.809,9.358,6.721a7.118,7.118,0,0,0,7.094-4.993A40.683,40.683,0,0,0,303.424,645.294Zm54.71-5.1-.095-.43c-2.341,0-4.689-.113-7.023.021-7.067.406-14.128.917-21.194,1.357-.714.045-.634.3-.522.842.449,2.157.884,4.32,1.234,6.5.426,2.652,1.476,4.873,3.957,6.177a9.994,9.994,0,0,0,6.562.851,6.116,6.116,0,0,0,3.689-1.734C349.015,649.057,353,644.06,358.133,640.19Zm-30.164,34.457c1.519,0,2.8-.014,4.07.007.686.011.862-.181.545-.849-.514-1.083-.9-2.225-1.426-3.3-.952-1.949-1.906-3.9-2.978-5.786a4.972,4.972,0,0,0-3.218-2.474,10.309,10.309,0,0,0-8.492,1.477c-2.245,1.524-2.526,3.051-.654,4.984a49.24,49.24,0,0,0,4.514,3.686C322.635,674.265,325.165,675.365,327.969,674.647Zm14.31,2.686a13.875,13.875,0,0,0,4.4,3.938,2.025,2.025,0,0,1,1.275,2.32q-.773,7.83-1.439,15.669c-.219,2.534-.183,2.555,2.416,2.32a1.049,1.049,0,0,0,.741-.661q1.377-9.676,2.658-19.364a1.871,1.871,0,0,0-.277-1.126c-.856-1.4-1.758-2.768-2.667-4.133-.136-.2-.433-.491-.595-.456C346.644,676.3,344.51,676.812,342.279,677.333Zm-41.1,1.12c.039.581.063,1.14.117,1.7a131.741,131.741,0,0,1,.639,20.343c-.024.427-.382,1.153.579,1.114.694-.029,1.445.275,1.664-.9,1-5.378,2.088-10.742,3.174-16.1a16.382,16.382,0,0,1,.638-1.638c.06-.188.016-.562-.109-.635C305.7,681.038,303.492,679.781,301.181,678.453Zm72.981-2.1a7.829,7.829,0,0,0,.56-6.225c-.081-.245-.372-.42-.565-.628-.192.207-.489.384-.56.627A8.182,8.182,0,0,0,374.162,676.358Zm-68.255-45.69-.271-.153c-1.178,1.037-2.368,2.061-3.516,3.129-.112.1-.058.533.065.706.19.264.544.4.762.654.408.466.678.323.907-.142Q304.886,632.767,305.907,630.668Zm-25.242-.146-.223.119a33.88,33.88,0,0,0,1.492,3.341c1.091,1.9.581,1.555,2.257.3a.654.654,0,0,0-.016-.632C283.024,632.584,281.84,631.558,280.665,630.522Zm-4.792,11.705-.073.41a21.691,21.691,0,0,0,2.05,1.263c1.769.844,1.956.693,2.038-1.231.025-.585-.117-.836-.715-.773C278.075,642.012,276.974,642.118,275.874,642.227Zm34.636.524-.076-.444c-.762-.128-1.518-.3-2.285-.375-1.838-.169-1.842-.121-1.683,1.712.057.654.3.927.9.655C308.427,643.815,309.463,643.271,310.51,642.751Z" transform="translate(-271.538 -623.936)" fill="#1b3f5e"/>
        </g>
        <path id="Trazado_829422-3" data-name="Trazado 829422" d="M-7374.423-6521.479l9.967,8.308,8.721-8.308" transform="translate(7848.481 11049.262)" fill="none" stroke="#1b3f5e" stroke-width="2"/>
      </g>
      <g id="Trazado_829583" data-name="Trazado 829583" transform="translate(389.855 4586)" fill="#632059">
        <path d="M 180 55.5 L 10 55.5 C 4.761690616607666 55.5 0.5 51.23830795288086 0.5 46 L 0.5 10 C 0.5 4.761690616607666 4.761690616607666 0.5 10 0.5 L 180 0.5 C 185.2383117675781 0.5 189.5 4.761690616607666 189.5 10 L 189.5 46 C 189.5 51.23830795288086 185.2383117675781 55.5 180 55.5 Z" stroke="none"/>
        <path d="M 10 1 C 5.037368774414062 1 1 5.037376403808594 1 10 L 1 46 C 1 50.96262359619141 5.037368774414062 55 10 55 L 180 55 C 184.9626312255859 55 189 50.96262359619141 189 46 L 189 10 C 189 5.037376403808594 184.9626312255859 1 180 1 L 10 1 M 10 0 L 180 0 C 185.5228576660156 0 190 4.477149963378906 190 10 L 190 46 C 190 51.52285003662109 185.5228576660156 56 180 56 L 10 56 C 4.477157592773438 56 0 51.52285003662109 0 46 L 0 10 C 0 4.477149963378906 4.477157592773438 0 10 0 Z" stroke="none" fill="#707070"/>
      </g>
      <path id="Trazado_829584" data-name="Trazado 829584" d="M28.79,19V4.781H33.9a7.232,7.232,0,0,1,4.175,1.006A3.347,3.347,0,0,1,39.5,8.707,3.383,3.383,0,0,1,39,10.592,2.959,2.959,0,0,1,37.5,11.744a3,3,0,0,1,1.709,1.094,3.18,3.18,0,0,1,.6,1.953,3.765,3.765,0,0,1-1.323,3.14A6.3,6.3,0,0,1,34.562,19Zm3.428-6.045v3.408h2.246a2.136,2.136,0,0,0,1.426-.425,1.487,1.487,0,0,0,.5-1.2,1.576,1.576,0,0,0-1.768-1.787Zm0-2.246H34a2.539,2.539,0,0,0,1.6-.411,1.46,1.46,0,0,0,.479-1.185,1.533,1.533,0,0,0-.518-1.3,2.77,2.77,0,0,0-1.67-.4h-1.68Zm8.906,2.91a6.236,6.236,0,0,1,.615-2.817,4.4,4.4,0,0,1,1.768-1.9,5.323,5.323,0,0,1,2.705-.664,4.858,4.858,0,0,1,3.74,1.47,5.64,5.64,0,0,1,1.367,4v.117a5.472,5.472,0,0,1-1.372,3.921,4.871,4.871,0,0,1-3.716,1.45,4.927,4.927,0,0,1-3.623-1.353,5.29,5.29,0,0,1-1.475-3.667Zm3.291.205a3.932,3.932,0,0,0,.459,2.148,1.529,1.529,0,0,0,1.357.684q1.758,0,1.8-2.705v-.332q0-2.842-1.816-2.842-1.65,0-1.787,2.451Zm12.422,1.26,1.67-6.65h3.467L58.526,19H55.167L51.72,8.434H55.2ZM66.427,19h-3.3V8.434h3.3Zm-3.5-13.291a1.469,1.469,0,0,1,.508-1.152,2.159,2.159,0,0,1,2.637,0,1.469,1.469,0,0,1,.508,1.152,1.469,1.469,0,0,1-.508,1.152,2.159,2.159,0,0,1-2.637,0A1.469,1.469,0,0,1,62.931,5.709Zm8.545,2.725.107,1.24A3.583,3.583,0,0,1,74.6,8.238a3.015,3.015,0,0,1,2.466.986,4.7,4.7,0,0,1,.845,2.969V19h-3.3V12.33a1.783,1.783,0,0,0-.322-1.177,1.491,1.491,0,0,0-1.172-.376,1.569,1.569,0,0,0-1.436.762V19H68.39V8.434Zm7.842,5.186a6.236,6.236,0,0,1,.615-2.817A4.4,4.4,0,0,1,81.7,8.9a5.323,5.323,0,0,1,2.705-.664,4.858,4.858,0,0,1,3.74,1.47,5.64,5.64,0,0,1,1.367,4v.117a5.472,5.472,0,0,1-1.372,3.921,4.871,4.871,0,0,1-3.716,1.45A4.927,4.927,0,0,1,80.8,17.843a5.29,5.29,0,0,1-1.475-3.667Zm3.291.205a3.932,3.932,0,0,0,.459,2.148,1.529,1.529,0,0,0,1.357.684q1.758,0,1.8-2.705v-.332q0-2.842-1.816-2.842-1.65,0-1.787,2.451ZM96.5,16.031a.76.76,0,0,0-.439-.674,6.685,6.685,0,0,0-1.67-.527,7.615,7.615,0,0,1-2.031-.718,3.4,3.4,0,0,1-1.221-1.079,2.577,2.577,0,0,1-.42-1.455,2.92,2.92,0,0,1,1.2-2.4,4.948,4.948,0,0,1,3.145-.942,5.482,5.482,0,0,1,3.359.947,2.962,2.962,0,0,1,1.27,2.49h-3.3q0-1.27-1.338-1.27a1.326,1.326,0,0,0-.869.288.892.892,0,0,0-.352.718.819.819,0,0,0,.43.713,4.06,4.06,0,0,0,1.372.449,11.857,11.857,0,0,1,1.655.42,3.007,3.007,0,0,1,2.383,2.939,2.767,2.767,0,0,1-1.284,2.354,5.631,5.631,0,0,1-3.325.908,5.747,5.747,0,0,1-2.422-.488,4.05,4.05,0,0,1-1.66-1.328,3.007,3.007,0,0,1-.6-1.768h3.076a1.272,1.272,0,0,0,.488,1.069,2.009,2.009,0,0,0,1.2.337,1.58,1.58,0,0,0,1.011-.273A.875.875,0,0,0,96.5,16.031Z" transform="translate(407.855 4604)" fill="#fff"/>
      <g id="Grupo_1071835" data-name="Grupo 1071835" transform="translate(535.855 4594.47)">
        <g id="Grupo_1016980-4" data-name="Grupo 1016980" clip-path="url(#clip-path)">
          <path id="Trazado_608349-3" data-name="Trazado 608349" d="M13.983.019V.632c0,2.338-.02,4.677.016,7.014a3.436,3.436,0,0,0,.351,1.5,1.87,1.87,0,0,0,1.831.885c2.417-.006,4.834,0,7.252,0h.544c.011.2.028.353.028.508q0,8.637,0,17.273a3.962,3.962,0,0,1-3,4.082,4.689,4.689,0,0,1-1.269.164q-7.729.016-15.457.006A4.047,4.047,0,0,1,.007,27.817q-.015-11.786,0-23.572A3.956,3.956,0,0,1,3.01.17,4.1,4.1,0,0,1,4.136.008C7.3,0,10.465,0,13.629,0c.093,0,.186.009.354.017m.143,24.226c.119.143.222.286.344.411.612.625,1.215,1.261,1.848,1.864a1.53,1.53,0,0,0,2.662-.657,1.6,1.6,0,0,0-.535-1.549q-.966-.991-1.97-1.944a.406.406,0,0,1-.1-.57,6.039,6.039,0,0,0-7.524-8.369,5.819,5.819,0,0,0-3.771,6.5,5.9,5.9,0,0,0,6.182,5.118,6.389,6.389,0,0,0,2.869-.806" transform="translate(0 0)" fill="#fff"/>
          <path id="Trazado_608350-3" data-name="Trazado 608350" d="M175.611,11.192h-7.449a1.772,1.772,0,0,1-.21-.028V3.532l7.659,7.66" transform="translate(-151.881 -3.194)" fill="#fff"/>
          <path id="Trazado_608351-3" data-name="Trazado 608351" d="M89.869,170.666a2.972,2.972,0,1,1-2.979-2.973,2.986,2.986,0,0,1,2.979,2.973" transform="translate(-75.894 -151.646)" fill="#fff"/>
        </g>
      </g>
    </g>
  </g>
</svg>
