<svg xmlns="http://www.w3.org/2000/svg" width="295" height="258.259" viewBox="0 0 295 258.259">
  <g id="Grupo_1071740" data-name="Grupo 1071740" transform="translate(0 0)">
    <path id="Trazado_829041" data-name="Trazado 829041" d="M69.392,184.908a.389.389,0,0,1-.383-.352l-11.54-146.2H51.557l-11.589,146.2a.37.37,0,0,1-.037.147.375.375,0,0,1-.093.12.369.369,0,0,1-.133.072.374.374,0,0,1-.151.013.389.389,0,0,1-.352-.414L50.821,37.938a.383.383,0,0,1,.383-.352h6.617a.377.377,0,0,1,.377.352L69.775,184.494a.389.389,0,0,1-.353.414Z" transform="translate(-10.358 -9.929)" fill="#455a64"/>
    <path id="Trazado_829042" data-name="Trazado 829042" d="M63.459,67.061H52.327a.383.383,0,0,1-.322-.587L57.448,57.9l-4.211-6.625a.376.376,0,0,1,0-.4l4.23-7.243-3.2-5.469a.383.383,0,0,1,.662-.383l2.981,5.1,2.975-5.1a.383.383,0,0,1,.662.383l-3.2,5.469,4.205,7.249a.365.365,0,0,1,0,.4l-4.211,6.625,5.448,8.565a.383.383,0,0,1,0,.389.4.4,0,0,1-.334.2ZM53,66.294H62.76l-4.879-7.675Zm.989-15.227,3.9,6.124,3.9-6.124-3.9-6.668Z" transform="translate(-13.726 -9.937)" fill="#455a64"/>
    <path id="Trazado_829043" data-name="Trazado 829043" d="M50.024,98.462a.331.331,0,0,1-.2-.055.385.385,0,0,1-.11-.1.377.377,0,0,1-.02-.42l12.826-21.11a.384.384,0,0,1,.526-.13.389.389,0,0,1,.13.525L50.351,98.265a.386.386,0,0,1-.137.142A.379.379,0,0,1,50.024,98.462Z" transform="translate(-13.116 -20.236)" fill="#455a64"/>
    <path id="Trazado_829044" data-name="Trazado 829044" d="M65.776,123.354H47.348a.379.379,0,0,1-.2-.052.389.389,0,0,1-.143-.146.408.408,0,0,1,0-.4l9.1-13.725L48.993,98.289a.407.407,0,0,1,0-.4.385.385,0,0,1,.34-.2h13.8L50.656,77.166a.383.383,0,1,1,.656-.4l12.82,21.1c.014.029.026.057.037.087v.068a.4.4,0,0,1-.062.26L57.02,109.036l9.072,13.725a.383.383,0,0,1-.108.565.387.387,0,0,1-.207.053Zm-17.718-.76H65.065l-8.5-12.866Zm1.967-24.139,6.537,9.888L63.1,98.456Z" transform="translate(-12.407 -20.229)" fill="#455a64"/>
    <path id="Trazado_829045" data-name="Trazado 829045" d="M67.314,159.313a.371.371,0,0,1-.266-.111L47.079,139.779a.4.4,0,0,1,0-.544.389.389,0,0,1,.544,0L67.58,158.664a.38.38,0,0,1,.083.124.376.376,0,0,1-.083.414.363.363,0,0,1-.266.111Z" transform="translate(-12.411 -36.758)" fill="#455a64"/>
    <path id="Trazado_829046" data-name="Trazado 829046" d="M45.258,159.311a.363.363,0,0,1-.272-.117.383.383,0,0,1,0-.538l19.969-19.43a.383.383,0,0,1,.538,0,.389.389,0,0,1,0,.544L45.524,159.2a.371.371,0,0,1-.266.111Z" transform="translate(-11.857 -36.756)" fill="#455a64"/>
    <path id="Trazado_829047" data-name="Trazado 829047" d="M64.151,54.443H50.36a.779.779,0,0,0-.779.779v.142a.779.779,0,0,0,.779.779H64.151a.779.779,0,0,0,.779-.779v-.142A.779.779,0,0,0,64.151,54.443Z" transform="translate(-13.1 -14.383)" fill="#455a64"/>
    <path id="Trazado_829048" data-name="Trazado 829048" d="M59.874,184.877a.383.383,0,0,1-.383-.383V37.969a.383.383,0,0,1,.383-.383.377.377,0,0,1,.377.383V184.494a.377.377,0,0,1-.027.146.373.373,0,0,1-.081.124.379.379,0,0,1-.269.113Z" transform="translate(-15.719 -9.929)" fill="#455a64"/>
    <path id="Trazado_829049" data-name="Trazado 829049" d="M58.028,17.543a1.459,1.459,0,1,1,.427,1.031A1.458,1.458,0,0,1,58.028,17.543Z" transform="translate(-15.333 -4.248)" fill="#455a64"/>
    <path id="Trazado_829050" data-name="Trazado 829050" d="M59.414,9.7s-2.362-4.536-1.459-6.68,2.61-3.77,2.913-2.657S59.414,9.7,59.414,9.7Z" transform="translate(-15.259 0.003)" fill="#455a64"/>
    <path id="Trazado_829051" data-name="Trazado 829051" d="M55.2,11.044S50.621,8.757,50.1,6.5s-.105-4.579.792-3.856S55.2,11.044,55.2,11.044Z" transform="translate(-13.175 -0.66)" fill="#455a64"/>
    <path id="Trazado_829052" data-name="Trazado 829052" d="M52.153,15.021s-5.046.84-6.8-.68-2.777-3.646-1.626-3.591S52.153,15.021,52.153,15.021Z" transform="translate(-11.424 -2.838)" fill="#455a64"/>
    <path id="Trazado_829053" data-name="Trazado 829053" d="M51.917,19.578s-3.587,3.646-5.906,3.448S41.62,21.71,42.585,21.08,51.917,19.578,51.917,19.578Z" transform="translate(-11.188 -5.171)" fill="#455a64"/>
    <path id="Trazado_829054" data-name="Trazado 829054" d="M54.707,22.056s-.761,5.061-2.752,6.26-4.329,1.514-3.921.433S54.707,22.056,54.707,22.056Z" transform="translate(-12.68 -5.826)" fill="#455a64"/>
    <path id="Trazado_829055" data-name="Trazado 829055" d="M59.475,22.955s2.356,4.542,1.453,6.68-2.61,3.77-2.913,2.657S59.475,22.955,59.475,22.955Z" transform="translate(-15.32 -6.063)" fill="#455a64"/>
    <path id="Trazado_829056" data-name="Trazado 829056" d="M62.886,22.056s4.576,2.286,5.108,4.548.105,4.579-.8,3.856S62.886,22.056,62.886,22.056Z" transform="translate(-16.616 -5.826)" fill="#455a64"/>
    <path id="Trazado_829057" data-name="Trazado 829057" d="M64.685,19.5s5.052-.84,6.8.68,2.783,3.646,1.626,3.591S64.685,19.5,64.685,19.5Z" transform="translate(-17.091 -5.088)" fill="#455a64"/>
    <path id="Trazado_829058" data-name="Trazado 829058" d="M64.685,15.314s3.593-3.646,5.906-3.448S74.969,13.182,74,13.8,64.685,15.314,64.685,15.314Z" transform="translate(-17.091 -3.131)" fill="#455a64"/>
    <path id="Trazado_829059" data-name="Trazado 829059" d="M62.886,11.469s.761-5.055,2.752-6.26,4.329-1.514,3.915-.433S62.886,11.469,62.886,11.469Z" transform="translate(-16.616 -1.085)" fill="#455a64"/>
    <path id="Trazado_829060" data-name="Trazado 829060" d="M292.7,192.927c4.081-2.9,4.05-10.432-1.132-12.045,3.574-3.578,2.474-11.29-2.69-11.741,1.268-3.165.649-7.49-3.42-8.288,1.292-3.88-2.3-6.569-5.9-5.178-.16-4.085-5.955-4.326-7.26-1.44.074-1.589-2.3-4.518-3.816-4.524,2.622-2.052,1.9-6.18-.352-6.718,3.062-2.324,1.422-7.626-2.239-7.576,2.474-3.863-2.783-7.9-6.036-6.712,1.856-4.326-6.765-7.805-8.658-3.2-3.3-5.42-14.588-2.231-13.079,4.821a2.688,2.688,0,0,0-2,4.789,3.885,3.885,0,0,0-5.3,1.156,2.082,2.082,0,0,0-1.737-2.719c3.58-1.458,1.07-6.8-2.239-6.569,3.123-4.011-3.216-8.652-6.58-5.488-1.571-3.708-7.167-2.9-6.8,1.409-1.237-2.249-3.71-2.089-5.684-.884-2.764,1.656-2.393,4.61-.878,7.008-1.144-1.372-4.644-2.126-5.176.142a2.735,2.735,0,0,0-3.945-.451c-1.039-3.708-7.687-4.2-8.948.377.191-.686-3.049.111-3.29.272a2.958,2.958,0,0,0-1.237,3.263,2.738,2.738,0,0,0-3.71,3.38,4.188,4.188,0,0,0-2.882-.618,2.393,2.393,0,0,0-1.942,2.02,3.276,3.276,0,0,0-4.446-.315A5.38,5.38,0,0,0,169.5,141.5c-1.008-1.168-3.383-2.052-4.3-.247a3.341,3.341,0,0,0-4.712.241,2.475,2.475,0,0,0-4.23-.469,2.517,2.517,0,0,0-2.393-1.675,3.515,3.515,0,0,0-2.684,1.4c-1.187-2.651-4.842-1.155-4.99.674-.563-.8-1.361-1.755-2.4-1.8a2.76,2.76,0,0,0-2.474,1.446,3.092,3.092,0,0,0-5.7,1.273,3.313,3.313,0,0,0-2.591-2.41,3.261,3.261,0,0,0-3.234,1.421,2.87,2.87,0,0,0-2.338-2.218,4.328,4.328,0,0,0-3.234.847,4.07,4.07,0,0,0-1.237-3.307,2.323,2.323,0,0,0-3.247.167,4.6,4.6,0,0,0-2.343-2.842,3.507,3.507,0,0,0-1.725-.692c-.217,0-1.725.037-1.745.346.161-2.533-1.533-6.445-4.743-4.6-1.237-4.579-7.91-4.091-8.943-.377a2.742,2.742,0,0,0-3.952.451c-.532-2.268-4.032-1.514-5.176-.142,1.522-2.4,1.892-5.352-.872-7.008-2-1.205-4.446-1.366-5.689.884.371-4.326-5.226-5.092-6.8-1.409-3.364-3.182-9.7,1.477-6.58,5.488-3.309-.2-5.819,5.111-2.232,6.569a2.076,2.076,0,0,0-1.738,2.719,3.892,3.892,0,0,0-5.306-1.156,2.688,2.688,0,0,0-2-4.789c1.515-7.052-9.783-10.24-13.08-4.821-1.855-4.6-10.476-1.149-8.658,3.2-3.253-1.193-8.491,2.849-6.036,6.712-3.655-.05-5.3,5.253-2.232,7.576-2.257.55-2.981,4.666-.353,6.718-1.521,0-3.9,2.935-3.822,4.524-1.3-2.88-7.1-2.645-7.254,1.44-3.605-1.391-7.192,1.3-5.906,5.178-4.063.8-4.688,5.123-3.42,8.288-5.182.475-6.265,8.188-2.69,11.741-5.182,1.613-5.207,9.14-1.132,12.045-2.7,1.285-2.968,7.539,1.429,9.27-.111.1-.216.21-.322.315-2.591,2.762-.427,7.317,3.364,7.317H288.238c3.785,0,5.949-4.555,3.358-7.317-.1-.105-.21-.216-.322-.315C295.671,200.491,295.405,194.237,292.7,192.927Z" transform="translate(-0.631 -31.469)" fill="#455a64"/>
    <path id="Trazado_829061" data-name="Trazado 829061" d="M58.02,144.032a4.153,4.153,0,0,1,5.856-.346,3.992,3.992,0,0,1,.792.921,4.137,4.137,0,0,1,6.716,2.379,4.949,4.949,0,0,0-8.206.976,3.466,3.466,0,0,1,0-.711,4.084,4.084,0,0,1,.557-1.594,3.706,3.706,0,0,0-.427-.451,4.952,4.952,0,0,0-5.708-.618A3.743,3.743,0,0,1,58.02,144.032Z" transform="translate(-15.219 -37.687)" fill="#37474f"/>
    <path id="Trazado_829062" data-name="Trazado 829062" d="M113.092,134.437a3.192,3.192,0,0,0-4.515-.266,3.084,3.084,0,0,0-.618.711,3.2,3.2,0,0,0-5.183,1.853,3.861,3.861,0,0,1,2.43-1.328,3.8,3.8,0,0,1,3.9,2.089,2.75,2.75,0,0,0,0-.55,3.179,3.179,0,0,0-.433-1.236,3.019,3.019,0,0,1,.333-.352,3.807,3.807,0,0,1,4.4-.463A2.633,2.633,0,0,0,113.092,134.437Z" transform="translate(-27.156 -35.235)" fill="#37474f"/>
    <path id="Trazado_829063" data-name="Trazado 829063" d="M5.365,196.331c-2.7,1.285-2.968,7.539,1.429,9.27-.111.1-.223.21-.322.315-2.591,2.762-.427,7.317,3.358,7.317h3.711a5.119,5.119,0,0,1,4.255-3c-1.237-1.051-3.092-2.12-3.791-3.591-.26-.525-.8-4.048.427-4.03a3.56,3.56,0,0,1-3.389-3.25,6.95,6.95,0,0,1,1.509-3.961,5.288,5.288,0,0,1-1.917-8.652,1.545,1.545,0,0,0,.39-.507c.179-.507-.291-.989-.649-1.391a4.487,4.487,0,0,1,2.7-7.416,4.438,4.438,0,0,1,4.632-6.322c-1.008-1.576-.142-3.825,1.466-4.808a6.785,6.785,0,0,1,5.4-.4,3.466,3.466,0,0,1,1.509-3.8,4.67,4.67,0,0,1,4.218-.272c-.322-2.6,1.8-4.326,4.125-4.789.674-.13,2.777-.39,3.253.259-1.694-2.317,1.008-6.247,3.673-4.19C40,151.607,39.2,150.854,37.7,150.563a4.511,4.511,0,0,0-3.377.569c-1.2-1.607-.81-5.562,2.177-5.958-2.183-2.583-.835-5.525,2.1-6.52-1.237-.618-3.092-.859-3.785-2.305-.773-1.619.192-3.183,1.237-4.357-2.907.581-5.807,3.758-3.859,6.829-3.661-.05-5.3,5.253-2.232,7.576-2.257.55-2.981,4.666-.352,6.718-1.521,0-3.9,2.935-3.822,4.524-1.3-2.88-7.1-2.645-7.254,1.44-3.605-1.391-7.192,1.3-5.906,5.178-4.063.8-4.688,5.123-3.42,8.288-5.182.475-6.265,8.188-2.69,11.741C1.315,185.924,1.29,193.451,5.365,196.331Z" transform="translate(-0.647 -34.873)" fill="#37474f"/>
    <path id="Trazado_829064" data-name="Trazado 829064" d="M340.411,144.032a4.152,4.152,0,0,0-5.856-.346,3.993,3.993,0,0,0-.767.921,4.136,4.136,0,0,0-6.715,2.379,4.949,4.949,0,0,1,8.206.976,3.475,3.475,0,0,0,0-.711,4.085,4.085,0,0,0-.556-1.594,4.117,4.117,0,0,1,.427-.451,4.951,4.951,0,0,1,5.707-.618A3.342,3.342,0,0,0,340.411,144.032Z" transform="translate(-86.421 -37.687)" fill="#37474f"/>
    <path id="Trazado_829065" data-name="Trazado 829065" d="M286.465,134.438a3.206,3.206,0,0,1,4.521-.266,3.022,3.022,0,0,1,.619.711,3.2,3.2,0,0,1,5.182,1.854,3.838,3.838,0,0,0-2.43-1.329,3.8,3.8,0,0,0-3.9,2.089,2.75,2.75,0,0,1,0-.55,3.168,3.168,0,0,1,.433-1.236,3.611,3.611,0,0,0-.327-.352,3.817,3.817,0,0,0-4.4-.463A2.64,2.64,0,0,1,286.465,134.438Z" transform="translate(-75.61 -35.236)" fill="#37474f"/>
    <path id="Trazado_829066" data-name="Trazado 829066" d="M351.756,157.294c.469-.618,2.572-.389,3.246-.259a4.541,4.541,0,0,1,3.482,5.914,3.671,3.671,0,0,1,4.07,5.289c2.672-.618,6.8-.129,8.868,1.891a3.557,3.557,0,0,1,.717,4.326c.161-.247,2.264-.272,4,.8a3.975,3.975,0,0,1,1.787,3.158,6.557,6.557,0,0,1-1.237,3.98c.142-.266,1.763.865,1.9.995a4.062,4.062,0,0,1,1.138,1.78,2.22,2.22,0,0,1-1.935,2.769,6.024,6.024,0,0,1,2.672,2.1,3.344,3.344,0,0,1,.3,3.282c-.692,1.341-2.338,1.854-3.809,2.207a4.169,4.169,0,0,1,1.045,3.708,2.888,2.888,0,0,1-2.962,2.182,3.992,3.992,0,0,1-1.886,7.361c.742-.043,1.3,1.5,1.49,1.99.34.89.8,1.527,1.237,2.423h3.711c3.785,0,5.949-4.555,3.358-7.317-.1-.105-.21-.216-.322-.315,4.4-1.731,4.131-7.985,1.429-9.27,4.081-2.9,4.05-10.432-1.132-12.045,3.574-3.578,2.474-11.29-2.69-11.741,1.268-3.165.65-7.49-3.42-8.288,1.293-3.88-2.3-6.569-5.9-5.178-.161-4.085-5.955-4.326-7.254-1.44.068-1.589-2.307-4.518-3.822-4.524,2.622-2.052,1.9-6.18-.353-6.718,3.062-2.324,1.423-7.626-2.238-7.576,1.948-3.09-.952-6.248-3.859-6.829,1.057,1.174,2.016,2.737,1.237,4.357-.686,1.446-2.554,1.7-3.785,2.305,2.931.995,4.28,3.936,2.1,6.52,2.987.377,3.376,4.326,2.176,5.958a4.6,4.6,0,0,0-3.376-.569c-1.5.291-2.307,1.044-3.655,2.552C350.741,151.047,353.443,154.977,351.756,157.294Z" transform="translate(-91.971 -34.863)" fill="#37474f"/>
    <path id="Trazado_829067" data-name="Trazado 829067" d="M147.5,296.366c81.461,0,147.5-34.057,147.5-76.068S228.96,144.23,147.5,144.23,0,178.287,0,220.3,66.037,296.366,147.5,296.366Z" transform="translate(0 -38.107)" fill="#505c44"/>
    <path id="Trazado_829068" data-name="Trazado 829068" d="M147.5,296.366c81.461,0,147.5-34.057,147.5-76.068S228.96,144.23,147.5,144.23,0,178.287,0,220.3,66.037,296.366,147.5,296.366Z" transform="translate(0 -38.107)" fill="#fff" opacity="0.7"/>
    <path id="Trazado_829069" data-name="Trazado 829069" d="M214.591,17.151c0-2.682-2.95-4.548-6.283-4.864-3.928-.371-6.716,1.378-6.8,4.474-2.572-1.057-5.281-.377-5.077,2.472-.668-.766-3.167-.748-4.063-.531a3.517,3.517,0,0,0-2.239,1.9,2.632,2.632,0,0,0-.235,1.446c-1.5-.488-4.9-.791-5.757.618-1.516,2.472,4.545,2.515,5.763,1.78.26,1.9,6.771,2.212,8.349.457,1.237,1.236,3,1.514,4.91,1.625,3.222.192,5.195-.9,7.712-2.181,2.728,2.317,7.459,2.361,9.895-.29.619.618,2.357.779,3.711.445.909-.216,1.12-.618,1.12-.618a8.334,8.334,0,0,0,1.675.5c1.781.371,5.108,0,3.711-1.632a4.22,4.22,0,0,0-2.95-.723c-.779-1.533-3.9-2.985-5.7-1.687-.068-1.854-1.763-3.306-4.156-3.708C217.424,16.5,215.5,16.372,214.591,17.151Z" transform="translate(-48.589 -3.231)" fill="#f5f5f5"/>
    <path id="Trazado_829070" data-name="Trazado 829070" d="M138.353,46.931c0-3.263-3.581-5.562-7.637-5.914-4.78-.451-8.169,1.675-8.287,5.438-3.123-1.279-6.419-.457-6.184,2.973-.816-.933-3.853-.908-4.947-.618a4.267,4.267,0,0,0-2.721,2.324,3.171,3.171,0,0,0-.285,1.755c-1.855-.618-5.968-.964-7,.711-1.855,2.973,5.522,3.09,7.007,2.163.315,2.317,8.237,2.694,10.154.562,1.5,1.508,3.649,1.854,5.974,1.978,3.921.235,6.32-1.094,9.381-2.651,3.321,2.812,9.072,2.867,12.065-.358.767.723,2.87.945,4.558.544,1.107-.266,1.36-.735,1.36-.735a9.82,9.82,0,0,0,2.034.618c2.171.451,6.184,0,4.521-1.984a5.122,5.122,0,0,0-3.593-.884C153.807,51,150,49.224,147.821,50.8c-.087-2.256-2.152-4.023-5.058-4.468C141.8,46.146,139.466,46.01,138.353,46.931Z" transform="translate(-26.685 -10.82)" fill="#f5f5f5"/>
    <path id="Trazado_829071" data-name="Trazado 829071" d="M297.389,236.613c17.224,0,31.187-8.057,31.187-18s-13.963-18-31.187-18-31.186,8.057-31.186,18S280.166,236.613,297.389,236.613Z" transform="translate(-70.338 -53.007)" fill="#505c44" opacity="0.2"/>
    <path id="Trazado_829072" data-name="Trazado 829072" d="M207.47,243.521,151.515,275.8c-13.345,7.7-34.99,7.7-48.335,0L97,272.239c-13.352-7.7-13.346-20.178,0-27.865l56.034-32.265c13.358-7.688,35-7.681,48.348,0l6.079,3.5C220.815,223.337,220.815,235.82,207.47,243.521Z" transform="translate(-22.983 -54.519)" fill="#505c44" opacity="0.2"/>
    <path id="Trazado_829073" data-name="Trazado 829073" d="M276.266,202.258l2.294-7.459-9.833-3.4s-.4,3.986-.847,7.119a8.491,8.491,0,0,1-2.474,5.457,14.114,14.114,0,0,1-7.223,3.51c-2.975.519-5.906,1.447-5.485,3.177s4.385,3.306,6.252,3.306a29.431,29.431,0,0,0,8.627-2.354c2.338-1.069,5.826-1.082,6.673-1.236s1.237-1.236,1.608-3.046A40.118,40.118,0,0,0,276.266,202.258Z" transform="translate(-66.759 -50.571)" fill="#f28f8f"/>
    <path id="Trazado_829074" data-name="Trazado 829074" d="M283.848,104.141c-1.435,5.092-4.193,19.819-6.079,30.714-.89,5.135-1.478,12.582-1.769,14.887-.816,6.507-2.443,21.457-2.443,21.457s4.947,3.251,10.142,2.36c2.474-7.867,7.706-18.694,6.994-25.955l12.368-39.452Z" transform="translate(-72.281 -27.515)" fill="#455a64"/>
    <path id="Trazado_829075" data-name="Trazado 829075" d="M289.7,154.074c.2-2.089,4.632-21.086,4.676-21.278l-.433-.1c-.18.778-4.483,19.213-4.681,21.333a18.545,18.545,0,0,0-.031,2,36.74,36.74,0,0,1-1.138,10.2c-1.039,4.252-2.665,10.734-3.747,15.03h.451c1.089-4.3,2.7-10.7,3.711-14.924a36.941,36.941,0,0,0,1.193-10.314Q289.647,155.052,289.7,154.074Z" transform="translate(-75.13 -35.06)" fill="#37474f"/>
    <path id="Trazado_829076" data-name="Trazado 829076" d="M295,151.939l6.463-21.2c-6.8-2.41-10.928-6.91-11.608-10.055a10.436,10.436,0,0,0,4.577,8.93s-1.144,13.6-1.342,18.435.334,7.354.08,15.208C294.447,159.188,295.313,155.221,295,151.939Z" transform="translate(-76.585 -31.886)" fill="#37474f"/>
    <path id="Trazado_829077" data-name="Trazado 829077" d="M251.8,217.1a2.187,2.187,0,0,0,0,2.237,9.486,9.486,0,0,0,6.481,2.837,11.991,11.991,0,0,0,7.019-1.335c1.558-.859,3.748-2.082,5.331-2.12a14.608,14.608,0,0,0,4.459-.741c.532-.352.841-2.287.841-2.287Z" transform="translate(-66.452 -56.988)" fill="#263238"/>
    <path id="Trazado_829078" data-name="Trazado 829078" d="M276.045,205.336a1.033,1.033,0,0,1,.414.76c0,.55-.124,1.236-.068,2.151a15.968,15.968,0,0,1-.569,4.752c-.377.958-3.606,1.236-5.183,1.483a19.237,19.237,0,0,0-5.343,2.082,14.234,14.234,0,0,1-7.594,1.267c-3.352-.618-5.349-1.916-5.788-3.238a2.915,2.915,0,0,1,1.441-3.121,19.338,19.338,0,0,1,4.515-1.557c2.4-.656,5.108-1.514,6.895-3.312a5.4,5.4,0,0,0,1.5-2.806,1.137,1.137,0,0,1,.155-.475.959.959,0,0,1,.847-.254c1.689.068,2.981,1.069,4.4,1.947a1.786,1.786,0,0,1,.779.822c.285.736-.408,1.5-.427,2.28a.454.454,0,0,0,0,.154c.068.18.322.192.508.13.656-.223.977-.945,1.441-1.465a2.915,2.915,0,0,1,1.373-.859,4.113,4.113,0,0,1,.5-.093S276.057,205.349,276.045,205.336Z" transform="translate(-66.538 -53.649)" fill="#37474f"/>
    <path id="Trazado_829079" data-name="Trazado 829079" d="M255.968,213.061a6.865,6.865,0,0,1,5.25,7.354,11.882,11.882,0,0,1-3.574.062c-3.352-.618-5.485-1.94-5.924-3.263C251.206,215.669,252.289,213.7,255.968,213.061Z" transform="translate(-66.479 -56.294)" fill="#fafafa"/>
    <path id="Trazado_829080" data-name="Trazado 829080" d="M265.007,214.59a.286.286,0,0,0,.161,0,.243.243,0,0,0,.118-.143.24.24,0,0,0,.009-.094.232.232,0,0,0-.028-.09c-.519-.945-2.1-2.725-3.889-2.873a.228.228,0,0,0-.094.011.239.239,0,0,0-.082.046.24.24,0,0,0-.083.166.242.242,0,0,0,.216.26c1.676.142,3.092,1.853,3.506,2.62a.246.246,0,0,0,.074.067A.235.235,0,0,0,265.007,214.59Z" transform="translate(-68.994 -55.852)" fill="#f0f0f0"/>
    <path id="Trazado_829081" data-name="Trazado 829081" d="M268.167,213.49a.216.216,0,0,0,.16,0,.223.223,0,0,0,.073-.058.228.228,0,0,0,.02-.263c-.513-.951-2.09-2.731-3.889-2.88a.244.244,0,0,0-.172.06.239.239,0,0,0-.082.163.22.22,0,0,0,.009.093.235.235,0,0,0,.044.082.234.234,0,0,0,.163.084c1.676.136,3.092,1.854,3.507,2.621a.254.254,0,0,0,.073.067A.251.251,0,0,0,268.167,213.49Z" transform="translate(-69.828 -55.561)" fill="#f0f0f0"/>
    <path id="Trazado_829082" data-name="Trazado 829082" d="M271.14,212.119a.283.283,0,0,0,.16,0,.238.238,0,0,0,.073-.06.232.232,0,0,0,.045-.084.227.227,0,0,0,.009-.094.24.24,0,0,0-.027-.09c-.519-.952-2.1-2.732-3.89-2.874a.24.24,0,0,0-.1,0,.229.229,0,0,0-.093.041.241.241,0,0,0,.051.418.237.237,0,0,0,.1.018c1.676.142,3.092,1.854,3.507,2.627a.254.254,0,0,0,.073.067A.246.246,0,0,0,271.14,212.119Z" transform="translate(-70.605 -55.197)" fill="#f0f0f0"/>
    <path id="Trazado_829083" data-name="Trazado 829083" d="M273.862,210.286a.223.223,0,0,0,.155,0,.244.244,0,0,0,.118-.142.25.25,0,0,0-.013-.185,5.979,5.979,0,0,0-4.292-2.973.243.243,0,0,0-.1,0,.241.241,0,0,0-.16.119.229.229,0,0,0-.029.1.236.236,0,0,0,.014.1.232.232,0,0,0,.054.087.249.249,0,0,0,.086.056.234.234,0,0,0,.1.015,5.565,5.565,0,0,1,3.9,2.719.229.229,0,0,0,.071.071A.219.219,0,0,0,273.862,210.286Z" transform="translate(-71.218 -54.687)" fill="#f0f0f0"/>
    <path id="Trazado_829084" data-name="Trazado 829084" d="M273.674,192.332c1.669,1.786,6.969,4.215,10.63,2.664l-1.391,3.918c-2.2.871-7.99.2-9.709-2.812Z" transform="translate(-72.188 -50.817)" fill="#37474f"/>
    <path id="Trazado_829085" data-name="Trazado 829085" d="M326.373,197.555l.2-8.306-10.223.347,1.509,8.4s.619,3.405.717,4.233a61.026,61.026,0,0,1,.544,7.113c.037,3.134.216,6.038,1.156,7.478a2.662,2.662,0,0,0,3.513,1.193,6.277,6.277,0,0,0,4.014-4.536,15.353,15.353,0,0,0-.569-7.008A51.848,51.848,0,0,1,326.373,197.555Z" transform="translate(-83.589 -50.003)" fill="#f28f8f"/>
    <path id="Trazado_829086" data-name="Trazado 829086" d="M320.845,103.291l-20.215-.1c.661,4.629,5.349,36.065,6.394,41.4s5.628,26.147,5.628,26.147,1.082,1.557,4.526,1.366c3.865-.216,5.362-1.638,5.362-1.638s.748-11.192.829-17.767a39.263,39.263,0,0,0-1.725-12.286s.507-11.976.494-19.979S322.089,109.829,320.845,103.291Z" transform="translate(-79.434 -27.264)" fill="#455a64"/>
    <path id="Trazado_829087" data-name="Trazado 829087" d="M319,221.1a9.368,9.368,0,0,0,1.293,4.944,3.786,3.786,0,0,0,4.1,1.371c1.626-.352,3.766-1.329,4.267-3.213a10.994,10.994,0,0,0,.458-5.223Z" transform="translate(-84.289 -57.858)" fill="#263238"/>
    <path id="Trazado_829088" data-name="Trazado 829088" d="M326.815,200.538c.674.062.452,2.966.792,5.927.365,3.17.848,4.431,1.182,7.033a7.5,7.5,0,0,1-1.361,6.056c-1.175,1.774-5.256,3.473-7.211.878-1.6-2.114-1.62-4.437-1.428-7.416a38.514,38.514,0,0,0-.328-7.416c-.241-2.4-.748-4.388-.155-4.623,0,0,.39,1.823.544,2.207.068.16.322.581.433-.038a5.672,5.672,0,0,0,0-.791.771.771,0,0,1,.619-.7,7.085,7.085,0,0,1,2.888-.531,8.515,8.515,0,0,1,3.2.34c.439.216.421.618.464.97s.056.723.174.618C326.877,202.9,326.741,200.847,326.815,200.538Z" transform="translate(-84.031 -52.985)" fill="#37474f"/>
    <path id="Trazado_829089" data-name="Trazado 829089" d="M329.2,220.146a6.875,6.875,0,0,1-1.336,4.487c-1.175,1.773-5.565,3.473-7.538.877A7.87,7.87,0,0,1,319,221.184C320.233,219.2,327.345,218.434,329.2,220.146Z" transform="translate(-84.289 -57.916)" fill="#fafafa"/>
    <path id="Trazado_829090" data-name="Trazado 829090" d="M320.972,217.113a.184.184,0,0,0,.08,0,12.585,12.585,0,0,1,6.184-.451.271.271,0,0,0,.309-.166.236.236,0,0,0,0-.093.227.227,0,0,0-.035-.086.217.217,0,0,0-.066-.065.232.232,0,0,0-.087-.033,12.9,12.9,0,0,0-6.543.482.218.218,0,0,0-.077.049.215.215,0,0,0-.05.076.223.223,0,0,0-.015.091.225.225,0,0,0,.024.088.253.253,0,0,0,.272.111Z" transform="translate(-84.731 -57.071)" fill="#f0f0f0"/>
    <path id="Trazado_829091" data-name="Trazado 829091" d="M327.07,213.58a.246.246,0,0,0,.129-.044.25.25,0,0,0,.088-.1.233.233,0,0,0,.013-.093.24.24,0,0,0-.025-.09.234.234,0,0,0-.06-.072.231.231,0,0,0-.082-.042,10.709,10.709,0,0,0-6.531.432.226.226,0,0,0-.075.051.223.223,0,0,0-.049.076.22.22,0,0,0-.013.09.214.214,0,0,0,.025.087.278.278,0,0,0,.34.105s3.327-1.323,6.135-.408A.283.283,0,0,0,327.07,213.58Z" transform="translate(-84.675 -56.22)" fill="#f0f0f0"/>
    <path id="Trazado_829092" data-name="Trazado 829092" d="M326.966,210.734a.241.241,0,0,0,.21-.142.213.213,0,0,0,.016-.09.22.22,0,0,0-.077-.163.241.241,0,0,0-.081-.044,9.65,9.65,0,0,0-6.654.414.211.211,0,0,0-.12.225.2.2,0,0,0,.034.084.253.253,0,0,0,.34.08,9.4,9.4,0,0,1,6.221-.377A.233.233,0,0,0,326.966,210.734Z" transform="translate(-84.62 -55.456)" fill="#f0f0f0"/>
    <path id="Trazado_829093" data-name="Trazado 829093" d="M326.771,207.938a.254.254,0,0,0,.125-.042.25.25,0,0,0,.085-.1.223.223,0,0,0-.062-.253.237.237,0,0,0-.08-.044c-3.092-1.106-6.568.408-6.7.476a.214.214,0,0,0-.074.054.217.217,0,0,0-.046.079.21.21,0,0,0-.009.09.225.225,0,0,0,.029.086.26.26,0,0,0,.341.087c.031,0,3.389-1.477,6.27-.445A.257.257,0,0,0,326.771,207.938Z" transform="translate(-84.556 -54.718)" fill="#ebebeb"/>
    <path id="Trazado_829094" data-name="Trazado 829094" d="M316.137,191.354c2.09,1.087,7.779,1.736,10.742-.618l-.136,3.789c-1.793,1.36-7.421,2.385-9.926.241Z" transform="translate(-83.531 -50.395)" fill="#37474f"/>
    <path id="Trazado_829095" data-name="Trazado 829095" d="M325.55,145.108c-.136-1.026-.272-1.853-.4-2.626-.427-2.627-.834-5.1-1.379-15.017-.2-3.708-.223-6.607-.235-9.146a63.671,63.671,0,0,0-1.527-15.592h-.452a61.006,61.006,0,0,1,1.527,14.671c-2.7-.105-4.236-2.472-4.836-7.416-.618-5.241-1.268-8.819-1.274-8.856l-.439.062c0,.037.619,3.609,1.274,8.837s2.349,7.676,5.281,7.774v.544c0,2.546.031,5.426.241,9.165.544,9.937.946,12.421,1.38,15.06.124.785.253,1.594.4,2.614a135.524,135.524,0,0,1,.879,23.546h.445A136.241,136.241,0,0,0,325.55,145.108Z" transform="translate(-83.638 -26.718)" fill="#37474f"/>
    <path id="Trazado_829096" data-name="Trazado 829096" d="M305.286,31.01c4.4,1.922,9.2.42,10.717-3.349s-.828-8.392-5.225-10.314-9.2-.42-10.717,3.349S300.883,29.082,305.286,31.01Z" transform="translate(-79.162 -4.36)" fill="#505c44"/>
    <path id="Trazado_829097" data-name="Trazado 829097" d="M307.131,18.167c-9.1-4.487-18.621-3.393-21.273,2.472s2.566,14.214,11.663,18.7,18.62,3.4,21.273-2.472S316.222,22.66,307.131,18.167Z" transform="translate(-75.348 -4.069)" fill="#505c44"/>
    <path id="Trazado_829098" data-name="Trazado 829098" d="M307.131,18.167c-9.1-4.487-18.621-3.393-21.273,2.472s2.566,14.214,11.663,18.7,18.62,3.4,21.273-2.472S316.222,22.66,307.131,18.167Z" transform="translate(-75.348 -4.069)" opacity="0.3"/>
    <path id="Trazado_829099" data-name="Trazado 829099" d="M312.988,37.057a5.078,5.078,0,0,1-3.476,2.688,8.18,8.18,0,0,1-.828.179,13.421,13.421,0,0,1-7.91-1.465c-5.22-2.571-8.213-7.379-6.691-10.753a4.587,4.587,0,0,1,2.176-2.188c2.474-1.236,6.3-1.051,10.031.791a13.914,13.914,0,0,1,6.284,5.772A5.734,5.734,0,0,1,312.988,37.057Z" transform="translate(-77.599 -6.533)" opacity="0.3"/>
    <path id="Trazado_829100" data-name="Trazado 829100" d="M251.238,60.276c-1.614-1.032-2.065-2.249-2.882-3.282a29.131,29.131,0,0,0-4.212-3.708l-.99-.779a4.742,4.742,0,0,1-.464-.4c-.13-.136-.247-.247-.47-.136a.7.7,0,0,0-.315.4,2.016,2.016,0,0,0,.191,1.638,8.906,8.906,0,0,0,1,1.366c.266.34-.235.358-.476.327-1.169-.136-3.191-2.62-4.094-3.319-.408-.321-.668-.871-1.268-.692a3.064,3.064,0,0,1-.619.185,2.35,2.35,0,0,1-.656-.08,1.485,1.485,0,0,0-.965.142.84.84,0,0,0-.433.816c.043.253.229.476.229.729a1.747,1.747,0,0,1-.068.358c-.087.531.309.995.557,1.471s.253.871.445,1.285a8.974,8.974,0,0,0,.661,1.285,16.574,16.574,0,0,0,2.2,2.583,11.514,11.514,0,0,0,3.97,2.225,7.54,7.54,0,0,1,3.3,1.854c1.645,1.434,7.848,6.829,10.637,8.732,3.376,2.3,4.329,3.028,8.491,1.125,2.752-1.236,12.474-7.62,12.474-7.62l3.253-10.815s-4.07-1.421-9.895,2.973c-4.168,3.146-9.079,6.835-9.079,6.835S252.611,61.154,251.238,60.276Z" transform="translate(-61.984 -13.647)" fill="#f28f8f"/>
    <path id="Trazado_829101" data-name="Trazado 829101" d="M276.7,73.385l8.447-4.944v-12.9c-1.855.266-3.469,1.458-5.287,2.806-2.3,1.718-10.4,8.275-10.4,8.275l-2.232-.9a12.355,12.355,0,0,1-1.046,4.394,7.478,7.478,0,0,1-3.092,3.652s3.24,2.744,4.842,2.96S270.384,77.062,276.7,73.385Z" transform="translate(-69.516 -14.674)" fill="#37474f"/>
    <path id="Trazado_829102" data-name="Trazado 829102" d="M271.742,70.392a5.94,5.94,0,0,1,2.894,4.653,5.035,5.035,0,0,0-2.165-5.241Z" transform="translate(-71.802 -18.442)" fill="#263238"/>
    <path id="Trazado_829103" data-name="Trazado 829103" d="M267.217,69.964a2.106,2.106,0,0,0-1.3-1.91c-1.33-.667-2.938-1.724-3.321-1.063l1.015.482a8.564,8.564,0,0,1-1.157,3.708c-1.812,3.146-3.407,3.189-3.407,3.189l-.7-.581s-.408.278.327,1.044a12.076,12.076,0,0,0,3.327,2.243c1.28.346,2.9-1.236,3.8-2.75C267.335,71.818,267.248,70.681,267.217,69.964Z" transform="translate(-68.23 -17.644)" fill="#455a64"/>
    <path id="Trazado_829104" data-name="Trazado 829104" d="M246.446,58.475c-.352,1.811,1.193,3.708,2.146,4.326a4.379,4.379,0,0,1-2.2-1.786A2.261,2.261,0,0,1,246.446,58.475Z" transform="translate(-65.009 -15.448)" fill="#b16668"/>
    <path id="Trazado_829105" data-name="Trazado 829105" d="M307.808,53.78c5.609,3.85,6.215,5.389,7.229,7.558,1.5,3.257,2.134,9.77,1.12,12.638-.934,2.651-.452,5.562-.352,9.183.142,5.111,1.6,6.439,1.917,10.654,0,0-5.053,5.08-19.034,4.252-9.338-.55-12.059-4.685-12.059-4.685s0-15.449.21-22.3c.309-9.029,2.251-14.455,4.552-15.969l6.722-1.2Z" transform="translate(-75.734 -14.208)" fill="#505c44"/>
    <path id="Trazado_829106" data-name="Trazado 829106" d="M313.19,33.507c-.118.692-.285,1.477-.5,2.367a18.764,18.764,0,0,1-.884,2.793c-.532,1.3-1.032,2.07-1.3,2.639a2.419,2.419,0,0,1-1.367,1.149V38.747l.068-2.608s-2.152-1.854-2.388-3.708a7.414,7.414,0,0,1,.031-2.089L294.316,31.5a8.857,8.857,0,0,1-.352-3.226,4.985,4.985,0,0,1,.191-.507,4.626,4.626,0,0,1,2.177-2.194c2.474-1.236,6.3-1.051,10.031.791a13.985,13.985,0,0,1,6.277,5.723A7.745,7.745,0,0,1,313.19,33.507Z" transform="translate(-77.666 -6.548)" fill="#37474f"/>
    <path id="Trazado_829107" data-name="Trazado 829107" d="M312.629,40.459a2,2,0,0,1-2.807-.507v7.379c-3.612,5.068-13.643,3.875-9.678.037l-.043-1.755a11.608,11.608,0,0,1-1.676-.117c-1.725-.222-2.839-1.557-3.4-3.4a25.891,25.891,0,0,1-.352-11.779,3.207,3.207,0,0,1,1.355-2.336c2.029-1.075,3.976.34,6.871,1.378a9.95,9.95,0,0,0,4.836.179c-.971,1.131-.866,4.616.618,5.988a3.264,3.264,0,0,0,.761.939c.618.531,1.119-.89,1.633-1.458a2.159,2.159,0,0,1,3.376.68,3.515,3.515,0,0,1-1.491,4.771Z" transform="translate(-77.724 -7.29)" fill="#f28f8f"/>
    <path id="Trazado_829108" data-name="Trazado 829108" d="M303.526,43.432l-2.653.439a1.324,1.324,0,0,0,1.515,1.15,1.409,1.409,0,0,0,1.138-1.588Z" transform="translate(-79.499 -11.473)" fill="#b16668"/>
    <path id="Trazado_829109" data-name="Trazado 829109" d="M303.575,43.991a1.408,1.408,0,0,1,.327,0,1.4,1.4,0,0,1-1.126,1.156,1.267,1.267,0,0,1-.433,0,1.236,1.236,0,0,1,1.231-1.156Z" transform="translate(-79.887 -11.619)" fill="#ffa8a7"/>
    <path id="Trazado_829110" data-name="Trazado 829110" d="M305.488,33.475l1.917.772a1.094,1.094,0,0,0-.618-1.378,1.014,1.014,0,0,0-1.3.606Z" transform="translate(-80.718 -8.667)" fill="#37474f"/>
    <path id="Trazado_829111" data-name="Trazado 829111" d="M295.809,33.151l1.985-.618a1,1,0,0,0-1.274-.692,1.094,1.094,0,0,0-.711,1.31Z" transform="translate(-78.152 -8.398)" fill="#37474f"/>
    <path id="Trazado_829112" data-name="Trazado 829112" d="M306.354,36.224a.84.84,0,1,1-.513-.78.84.84,0,0,1,.452.458A.832.832,0,0,1,306.354,36.224Z" transform="translate(-80.503 -9.346)" fill="#263238"/>
    <path id="Trazado_829113" data-name="Trazado 829113" d="M297.781,35.611a.841.841,0,1,1-.834-.847.847.847,0,0,1,.834.847Z" transform="translate(-78.237 -9.183)" fill="#263238"/>
    <path id="Trazado_829114" data-name="Trazado 829114" d="M301.164,34.159l-.544,5.364-2.858-.964A12.576,12.576,0,0,1,301.164,34.159Z" transform="translate(-78.677 -9.024)" fill="#b16668"/>
    <path id="Trazado_829115" data-name="Trazado 829115" d="M308.37,37.618c-.266,3.658-1.516,4.054-2.839,4.066-1.856,0-2.56-.983-5.646-1.057a7.158,7.158,0,0,0-3.587.952c-.792.309-1.4.414-1.676-.3a12.238,12.238,0,0,1-.494-3.974,29.43,29.43,0,0,0,0,6.013,6.513,6.513,0,0,0,1.744,4.048c1.293,1.143,4.039,1.669,7.5.995s4.811-2.076,5.257-3.288c1.441-3.918.958-5.8,1.428-6.538S308.37,37.618,308.37,37.618Zm-6.389,8.318c-.779.086-1.354.117-1.366-.371a2,2,0,0,1,.136-1.1c.284-.328.191-.377-.581-.377s-.767.136-.544.377.136.772.124,1.112-.1.519-1.206.377c-.971-.111-1.193-.995-1.138-2.472.037-1,.878-1.854,2.875-1.854,1.756,0,2.739.674,2.8,1.854C303.156,45.244,302.644,45.862,301.981,45.936Z" transform="translate(-77.675 -9.856)" fill="#37474f"/>
    <path id="Trazado_829116" data-name="Trazado 829116" d="M263.82,83.328s-6.9-1.576-11.193-3c-2.313-.76-2.388-2.008-3.785-1.934s-3.9.371-4.632.457a.563.563,0,0,1-.371-.087l-.859-.531.513-1.013c.39-.049.712-.13.817-.3s-.111-.519-.309-.686l.074-.155h.247c.445,0,.414-.365.105-.7l.433-.853a6.717,6.717,0,0,1-.507-1.564,2.242,2.242,0,0,1,0-.507,2.842,2.842,0,0,0-.352-.2,6.805,6.805,0,0,0-2.233-.742,4.121,4.121,0,0,1-3.407-.2c-1.008-.618-.773-.9.241-1.273a14.68,14.68,0,0,1,2.844-.976,15.691,15.691,0,0,1,3.841.655l1.6.42a.851.851,0,0,1,.167.049,9.9,9.9,0,0,1,3.184,1.8,8.893,8.893,0,0,0,3.092,1.588c.94.321,8.856,1.137,8.856,1.137C266.287,78.353,266.751,81.227,263.82,83.328Z" transform="translate(-62.809 -18.246)" fill="#ffa8a7"/>
    <path id="Trazado_829117" data-name="Trazado 829117" d="M306.112,65.189c-6.184-2.268-8.812-1.335-16.079,3.331-4.329,2.769-7.136,4.443-8.466,5.21a3.094,3.094,0,0,1-1.892.4,3.09,3.09,0,0,0-3.228,4.14,4.533,4.533,0,0,1,.222,2.188,3.035,3.035,0,0,0,2.3,3.356c.81.2,1.769.439,2.894.7,4.947,1.149,6.061.915,9.122-.847,3.908-2.256,7.915-4.4,7.915-4.4s5.566-2.954,7.421-5.247a9.411,9.411,0,0,0,2.171-5.685,3.09,3.09,0,0,0-2.034-3.016Z" transform="translate(-72.994 -16.91)" fill="#37474f"/>
    <path id="Trazado_829118" data-name="Trazado 829118" d="M273.477,76.349a20.39,20.39,0,0,0-5.114-.7c-.786-.019-.619.618-.619.618l1.144.161a9.562,9.562,0,0,1,3.092,4.357,4.845,4.845,0,0,1-.619,4.073l-1.157-.247a1.237,1.237,0,0,0,1.039,1.162c2.257.618,3.606.933,4.255,1.075s3.376.983,3.123-4.1C278.436,78.9,274.54,76.757,273.477,76.349Z" transform="translate(-70.741 -19.987)" fill="#455a64"/>
    <path id="Trazado_829119" data-name="Trazado 829119" d="M230.074,99.55c2.987.322-.452-.34,1.855-2.231,2.524-2.045,4.255-6.05,4.787-9.165,1.5-8.732,3.556-19.4,3.222-26.264s2-11.643,8.089-13.1c-3.9-.618-8.887,2.237-9.58,10.184a226.684,226.684,0,0,1-3.9,24.5c-.662,3-2.659,8.077-4.521,10.364S229.808,99.507,230.074,99.55Z" transform="translate(-60.547 -12.869)" fill="#ebebeb"/>
    <path id="Trazado_829120" data-name="Trazado 829120" d="M244.764,52.424c1.132.7,3.531.383,5.418-1.471s3.179-4.128,6.8-4.029c3.16.093,3.661,2.472,3.661,2.472a6.53,6.53,0,0,0-.779-4.066c-1.441-2.472-5.659-4.239-10.569-2.867s-7.551,6.8-5.677,9.115C244.046,51.324,245.011,51.948,244.764,52.424Z" transform="translate(-64.211 -11.091)" fill="#263238"/>
    <path id="Trazado_829121" data-name="Trazado 829121" d="M193.567,179.794c7.192,10.623,22.189,6.069,26.11-3.85-.185-5.809-11.262-11.062-17.724-7.18A20.3,20.3,0,0,0,193.567,179.794Z" transform="translate(-51.146 -44.237)" fill="#505c44"/>
    <path id="Trazado_829122" data-name="Trazado 829122" d="M210.171,174.687c.649-2.472-.965-4.888.408-8.182-.117,3.559,2.777,8.651,5.566,10.091a12.085,12.085,0,0,0-8.28,1.928A7.711,7.711,0,0,0,210.171,174.687Z" transform="translate(-54.923 -43.993)" fill="#f0f0f0"/>
    <path id="Trazado_829123" data-name="Trazado 829123" d="M150,270.147a3.255,3.255,0,0,1-1.416-1.582c1.324,1.44,5.04.686,6.556-2.218s.958-4.839.315-8.263-.81-4.264-.043-5.883c.946-1.99,2.431-2.039,2.678-4.771a10.5,10.5,0,0,1-.619,3.535c-.674,2.219-1.021,4.412-.34,9.579.575,4.388,1.348,6.18,1.5,8.077C157.4,270.166,152.807,271.946,150,270.147Z" transform="translate(-39.259 -65.375)" fill="#f0f0f0"/>
    <path id="Trazado_829124" data-name="Trazado 829124" d="M172.465,217.328a24.887,24.887,0,0,1-3.407,1.853c3.63-6.229,4.533-8.72,5.516-11.816A32.546,32.546,0,0,1,172.465,217.328Z" transform="translate(-44.67 -54.79)" fill="#f0f0f0"/>
    <path id="Trazado_829125" data-name="Trazado 829125" d="M120.406,253.442c.285,1.427.618,2.471-.619,4.276a11,11,0,0,1-5.924,4.24c-2.349.55-2.313-.087-2.269-.9s.2-3.429.2-3.429-1.088,2.336-1.5,3.133-1.051.118-1.4-1.854-.241-3.176.736-6.05c1.051-3.09,5.467-3.986,7.341-3.381S119.281,251.155,120.406,253.442Z" transform="translate(-28.726 -65.868)" fill="#263238"/>
    <path id="Trazado_829126" data-name="Trazado 829126" d="M126.473,194.869l-.779,15.37c-3.914-.167-5.782,2.138-5.46,5.061a11.423,11.423,0,0,1-.439,5.945c-.681,2.237-1.021,4.412-.34,9.585.575,4.387,1.348,6.18,1.5,8.077-1.237,1.544-5.826,3.3-8.658,1.526s-1.311-4.042-.167-8.751c1.689-6.916,1.509-9.041,1.2-12.125s1.088-4.944,1.237-7.676-1.961-8.1-1.719-16.068C112.849,195.833,115.91,193.132,126.473,194.869Z" transform="translate(-29.246 -51.333)" fill="#ebebeb"/>
    <path id="Trazado_829127" data-name="Trazado 829127" d="M112.362,248.845a3.279,3.279,0,0,1-1.416-1.582c1.323,1.44,5.04.686,6.555-2.218s.959-4.839.316-8.263-.81-4.27-.043-5.883c.946-2,2.43-2.04,2.677-4.777a10.413,10.413,0,0,1-.618,3.535c-.674,2.225-1.021,4.412-.34,9.585.575,4.387,1.348,6.18,1.5,8.077C119.758,248.863,115.169,250.619,112.362,248.845Z" transform="translate(-29.315 -59.745)" fill="#e0e0e0"/>
    <path id="Trazado_829128" data-name="Trazado 829128" d="M127.262,194.869l-.779,15.37a6.019,6.019,0,0,0-3.772.92,38.354,38.354,0,0,1-3.9-2.471c-4.8-3.442-5.145-10.395-5.139-12.879C113.638,195.833,116.7,193.132,127.262,194.869Z" transform="translate(-30.034 -51.333)" fill="#e0e0e0"/>
    <path id="Trazado_829129" data-name="Trazado 829129" d="M204.448,213.428c.161,1.447.372,2.528-1.014,4.2a11.008,11.008,0,0,1-6.277,3.708c-2.387.34-2.294-.284-2.177-1.093s.489-3.4.489-3.4-1.286,2.231-1.762,2.985-1.057,0-1.237-1.965,0-3.183,1.237-5.963c1.317-2.973,5.794-3.492,7.606-2.725S203.527,211.407,204.448,213.428Z" transform="translate(-50.84 -55.184)" fill="#263238"/>
    <path id="Trazado_829130" data-name="Trazado 829130" d="M196.633,119.087c1.3,9.356,0,14.127-1.447,25.782-.934,7.447,6.462,17.372,7.1,18.539.841,1.552-.087,3.708-.952,5.89s-3.092,6.989-2.857,12.2c.191,4.418.8,6.247.791,8.176-1.36,1.427-6.085,2.781-8.731.766s-1.454-4.326.618-8.732c5.2-11.123,5.225-12.551,4.224-15.487a5.664,5.664,0,0,0-2.474-3.467c-2.424-2.02-21-5.938-20.068-13.843C172.837,148.9,186.263,116.442,196.633,119.087Z" transform="translate(-45.659 -31.423)" fill="#ebebeb"/>
    <path id="Trazado_829131" data-name="Trazado 829131" d="M195.214,205.96c.823,1.44,4.521,1.854,6,0s1.237-4.443.755-9.542.828-6.854,1.954-8.7,3.271-2.725,4.41-4.456a24.577,24.577,0,0,1-1.082,3.047c-.872,2.15-3.092,6.989-2.857,12.2.191,4.419.8,6.248.791,8.177-1.36,1.427-6.085,2.78-8.731.766A3.862,3.862,0,0,1,195.214,205.96Z" transform="translate(-51.58 -48.42)" fill="#e0e0e0"/>
    <path id="Trazado_829132" data-name="Trazado 829132" d="M193.567,179.794c7.192,10.623,22.189,6.069,26.11-3.85-.185-5.809-11.262-11.062-17.724-7.18A20.3,20.3,0,0,0,193.567,179.794Z" transform="translate(-51.146 -44.237)" fill="#fff" opacity="0.4"/>
    <path id="Trazado_829133" data-name="Trazado 829133" d="M234.176,229.708c.16,1.446.371,2.521-1.021,4.2a10.975,10.975,0,0,1-6.277,3.721c-2.387.34-2.3-.291-2.183-1.094l.494-3.405s-1.286,2.237-1.762,2.991-1.057,0-1.237-1.965.031-3.189,1.237-5.963c1.311-2.973,5.794-3.5,7.606-2.731S233.255,227.687,234.176,229.708Z" transform="translate(-58.694 -59.487)" fill="#263238"/>
    <path id="Trazado_829134" data-name="Trazado 829134" d="M158.043,274.74c.285,1.427.619,2.472-.618,4.276a10.975,10.975,0,0,1-5.924,4.24c-2.35.55-2.313-.087-2.27-.9s.2-3.436.2-3.436-1.088,2.336-1.5,3.133-1.051.124-1.4-1.853-.241-3.183.736-6.05c1.051-3.09,5.467-3.992,7.341-3.387S157.308,273.121,158.043,274.74Z" transform="translate(-38.671 -71.495)" fill="#263238"/>
    <path id="Trazado_829135" data-name="Trazado 829135" d="M141.822,231.2a5,5,0,0,1-2.721-.711c-2.078-1.31-1.639-2.842-.754-5.9.216-.76.464-1.625.7-2.577,1.72-7.058,1.5-9.214,1.206-12.211a10.828,10.828,0,0,1,.619-4.437,14.324,14.324,0,0,0,.618-3.195,10.589,10.589,0,0,0-1.021-3.856,33.943,33.943,0,0,1-2.164-7.787v-.18l-.26-.049a28.54,28.54,0,0,1-10.229-4.029,57.442,57.442,0,0,0-7.105-3.566c-4.62-1.9-7.669-6.019-8.572-11.6-.148-.909-.278-1.854-.4-2.756-.223-1.625-.452-3.306-.81-4.944a26.3,26.3,0,0,0-1.9-5.086,27.931,27.931,0,0,1-1.75-4.486c-1.664-6.359,1.546-12.91,4.533-17.922.241-.4.5-.834.785-1.236a6.656,6.656,0,0,1,2.418-2.329,9.045,9.045,0,0,1,3.822-.692c.47,0,.94-.037,1.4-.074a23.141,23.141,0,0,0,7.5-2.286c11.447-5.2,22.312-12.428,29.814-19.825,5.863-5.791,12.783-11.161,23.629-11.3h.4c12.857,0,22.263,8.318,24.8,14.214l.334.754a25.934,25.934,0,0,1,2.388,7.645c.946,6.8.21,11.427-.8,17.854-.377,2.4-.81,5.129-1.237,8.305-.483,3.869-.674,7.83-.8,11.192-.068,1.724-.136,3.708-.124,5.692v1.044a13.931,13.931,0,0,0,.575,5.086l.174.463a4.968,4.968,0,0,1,.458,1.761A4,4,0,0,1,206.3,174.5a8.239,8.239,0,0,0-.792,1.236q-.608,1.322-1.082,2.7l-.105.3a24.04,24.04,0,0,0-1.664,9.283,51.507,51.507,0,0,0,.526,5.432,19.26,19.26,0,0,1,.266,2.633,8.075,8.075,0,0,1-5.028,1.637,5.36,5.36,0,0,1-3.3-.97c-2.412-1.854-1.435-3.925.514-8.083l.16-.34a59.235,59.235,0,0,0,4.54-13.039,6.727,6.727,0,0,0-1.033-6.019,42.3,42.3,0,0,0-4.527-6.236l-.655-.76a20.23,20.23,0,0,0-1.558-1.743c-1.008-.988-2.264-2.138-3.092-2.212-.525-.05-1.045-.074-1.54-.074-7.31,0-10.661,5.135-14.9,11.636-2.8,4.277-5.955,9.121-10.9,13.565a37.784,37.784,0,0,1-9.622,6.681l-.074.031-.043.074c-4.088,7.211-6.085,12.539-5.77,15.406a11.152,11.152,0,0,1-.427,5.846c-.736,2.416-1.008,4.679-.352,9.684a51.363,51.363,0,0,0,1,5.37,20.048,20.048,0,0,1,.494,2.6A8.437,8.437,0,0,1,141.822,231.2Z" transform="translate(-28.225 -25.937)" fill="#fafafa"/>
    <path id="Trazado_829136" data-name="Trazado 829136" d="M181.478,98.309c12.739,0,22.04,8.232,24.576,14.078.105.253.217.5.334.76a25.728,25.728,0,0,1,2.368,7.582c.94,6.736.2,11.365-.8,17.773-.383,2.4-.817,5.136-1.237,8.312-.483,3.881-.674,7.843-.8,11.217-.068,1.811-.136,3.738-.124,5.7v1.044a14.206,14.206,0,0,0,.588,5.172l.18.464a4.712,4.712,0,0,1,.439,1.675,3.82,3.82,0,0,1-.983,2.169,8.1,8.1,0,0,0-.816,1.274,28.037,28.037,0,0,0-1.089,2.713l-.111.309a24.373,24.373,0,0,0-1.669,9.331,50.058,50.058,0,0,0,.531,5.457,20.329,20.329,0,0,1,.26,2.472,8.11,8.11,0,0,1-4.774,1.5,5.136,5.136,0,0,1-3.142-.915c-2.14-1.631-1.522-3.269.588-7.78l.16-.334a59.726,59.726,0,0,0,4.558-13.1,7,7,0,0,0-1.064-6.18,41.937,41.937,0,0,0-4.558-6.272l-.661-.767a20.467,20.467,0,0,0-1.577-1.755c-1.095-1.087-2.338-2.2-3.253-2.287-.532-.049-1.064-.074-1.565-.074-7.421,0-10.828,5.184-15.114,11.741-2.783,4.264-5.931,9.1-10.853,13.515a37.3,37.3,0,0,1-9.548,6.637l-.155.068-.08.149c-4.119,7.255-6.122,12.631-5.807,15.554a11.006,11.006,0,0,1-.414,5.747c-.748,2.472-1.027,4.74-.359,9.8a51.673,51.673,0,0,0,1,5.389,20,20,0,0,1,.476,2.472,8.253,8.253,0,0,1-5.25,1.934,4.8,4.8,0,0,1-2.585-.667c-1.856-1.156-1.6-2.349-.65-5.618.223-.76.47-1.625.706-2.583,1.731-7.1,1.508-9.27,1.237-12.3a10.872,10.872,0,0,1,.618-4.326,14.579,14.579,0,0,0,.656-3.251,10.571,10.571,0,0,0-1.039-3.961,33.35,33.35,0,0,1-2.146-7.725l-.049-.364-.365-.068h-.08a28.3,28.3,0,0,1-10.142-4,57.5,57.5,0,0,0-7.137-3.584c-4.539-1.854-7.532-5.914-8.422-11.4-.149-.908-.278-1.853-.4-2.75-.223-1.632-.452-3.325-.81-4.944a26.282,26.282,0,0,0-1.917-5.142,28.1,28.1,0,0,1-1.731-4.443c-1.645-6.272,1.546-12.761,4.5-17.712.229-.377.5-.822.779-1.235a6.5,6.5,0,0,1,2.326-2.25,8.948,8.948,0,0,1,3.711-.661c.464,0,.94-.038,1.41-.074a23.6,23.6,0,0,0,7.576-2.305c11.471-5.216,22.368-12.459,29.888-19.881,5.826-5.754,12.7-11.093,23.457-11.229h.358m0-.5h-.383c-10.087.13-16.871,4.53-23.809,11.377-8.114,8.034-19.388,15.073-29.74,19.775a22.9,22.9,0,0,1-7.421,2.262c-1.8.16-3.711,0-5.312.791A7.023,7.023,0,0,0,112.3,134.5c-.278.408-.538.834-.791,1.235-3.278,5.488-6.184,11.909-4.558,18.095.866,3.319,2.9,6.211,3.643,9.567.556,2.521.792,5.136,1.206,7.681.853,5.253,3.667,9.709,8.731,11.785,7.6,3.09,9.839,6.285,17.384,7.62h.08c.859,6.106,3.3,9.4,3.179,11.588-.155,2.738-1.552,4.591-1.237,7.681s.489,5.2-1.2,12.119c-1.144,4.709-2.641,6.977.167,8.751a5.294,5.294,0,0,0,2.857.742,8.377,8.377,0,0,0,5.776-2.268c-.155-1.915-.928-3.708-1.5-8.077-.681-5.167-.334-7.361.34-9.579a11.56,11.56,0,0,0,.439-5.951c-.285-2.577,1.422-7.639,5.739-15.253a37.585,37.585,0,0,0,9.684-6.724c12.5-11.223,13.722-25.133,25.627-25.133a10.642,10.642,0,0,1,1.515.074c.859.074,2.363,1.557,2.95,2.144.779.76,1.472,1.65,2.2,2.472a42.906,42.906,0,0,1,4.5,6.18,8.286,8.286,0,0,1,1.237,2.942,8.4,8.4,0,0,1-.222,2.9,59.436,59.436,0,0,1-4.521,12.978c-2.054,4.394-3.24,6.718-.619,8.732a5.683,5.683,0,0,0,3.451,1.02,8.2,8.2,0,0,0,5.281-1.786c0-1.928-.618-3.757-.792-8.182a24.048,24.048,0,0,1,1.639-9.134,29.942,29.942,0,0,1,1.181-2.973c.618-1.236,1.855-2.151,1.855-3.658a6.793,6.793,0,0,0-.649-2.318c-.717-1.984-.544-3.986-.55-6.044,0-1.892.049-3.788.124-5.679.136-3.708.334-7.472.8-11.173,1.453-11.655,3.315-16.859,2.01-26.215a28.713,28.713,0,0,0-2.74-8.472c-2.591-5.983-12.164-14.387-25.039-14.381Z" transform="translate(-28.135 -25.841)" fill="#e6e6e6"/>
    <path id="Trazado_829137" data-name="Trazado 829137" d="M231.048,222.576c1.5-1.885,1.237-4.443.748-9.536s.835-6.854,1.96-8.7c.891-1.458,2.641-1.854,3.983-2.867.235-.173.458-.371.686-.556-.421.717-1.014,1.353-1.379,2.1a30.023,30.023,0,0,0-1.182,2.973,24.065,24.065,0,0,0-1.639,9.134c.192,4.425.8,6.254.792,8.183-1.367,1.427-6.091,2.775-8.732.766a4.491,4.491,0,0,1-.965-.982C227.275,224.029,229.705,224.269,231.048,222.576Z" transform="translate(-59.536 -53.085)" fill="#f0f0f0"/>
    <path id="Trazado_829138" data-name="Trazado 829138" d="M152.18,167.659a3.035,3.035,0,0,0-.854,1.409,14.36,14.36,0,0,0-.043,1.458c-.148,1.31-1.385,2.2-2.566,2.793s-2.5,1.15-3.135,2.312a4.029,4.029,0,0,0,.785,4.357,17.585,17.585,0,0,0,3.71,2.886,12.088,12.088,0,0,1,4.44,5.011c.39.921.619,1.91,1.051,2.8a5.746,5.746,0,0,0,3.711,3,5.23,5.23,0,0,0,4.619-1.125,11.228,11.228,0,0,0,2.474-4.159,10.991,10.991,0,0,1,3.563-4.894c1.181-.8,2.7-1.267,3.4-2.5a4.011,4.011,0,0,0-.7-4.233,20.378,20.378,0,0,0-3.506-2.911,6.159,6.159,0,0,1-2.573-3.646c-.136-.871.043-1.773-.155-2.633C165.123,161.838,154.746,164.965,152.18,167.659Z" transform="translate(-38.372 -43.423)" fill="#37474f"/>
    <path id="Trazado_829139" data-name="Trazado 829139" d="M164.773,144.506c-.73.667-1.41,1.638-1.082,2.565a2.326,2.326,0,0,0,1.626,1.279,11.04,11.04,0,0,1,2.054.618c2.009,1.069,2.146,4.147,4.094,5.334a4.1,4.1,0,0,0,4.41-.507,5.036,5.036,0,0,0,2.04-3.09,3.7,3.7,0,0,0-1.188-3.442c-.618-.494-1.391-.748-1.991-1.236a16.79,16.79,0,0,1-1.75-2.243C170.53,140.866,167.085,142.373,164.773,144.506Z" transform="translate(-43.229 -37.561)" fill="#37474f"/>
    <path id="Trazado_829140" data-name="Trazado 829140" d="M189.378,98.841a4.068,4.068,0,0,1,.618.513,3.333,3.333,0,0,1,.921,3.152c-.229.773-.8,1.464-.791,2.268,0,1.138,1.15,1.854,1.756,2.849a3.4,3.4,0,0,1-.619,4.215,5.791,5.791,0,0,1-3.253,1.156,22.59,22.59,0,0,1-4.793.031c-2.368-.235-5.009-.778-6.926.618A12.955,12.955,0,0,0,174.6,115.4c-2.808,3.09-8.5,3.491-12.479,2.28a85.923,85.923,0,0,0,9.814-8.219C177.324,104.186,182.606,100.361,189.378,98.841Z" transform="translate(-42.837 -26.114)" fill="#37474f"/>
    <path id="Trazado_829141" data-name="Trazado 829141" d="M217.516,125.457a14.381,14.381,0,0,0-8.386.389,7.9,7.9,0,0,0-3.463,2.219c-2.084,2.5-1.274,6.736,1.435,8.547,1.608,1.069,3.71,1.4,5.1,2.707.619.575,1.07,1.3,1.682,1.884,2.771,2.608,7.317,1.2,10.192,3.708a2.066,2.066,0,0,0,1.237.7c1.385,0,2.931-3.158,3.549-4.171a10.066,10.066,0,0,0,1.151-2.256c.847-2.676-.575-5.562-.149-8.349.173-1.113.618-2.163.816-3.269.5-2.991-.76-6.545-3.438-8.108-4.273-2.472-9.5,1.422-9.425,6.081Z" transform="translate(-54.032 -31.36)" fill="#37474f"/>
    <path id="Trazado_829142" data-name="Trazado 829142" d="M224.885,159.875c.18.352.575.544.792.865.458.686,0,1.656.34,2.41a1.941,1.941,0,0,0,1.614.952,18.343,18.343,0,0,1,1.948.142,1.812,1.812,0,0,0,1.088.086,1.232,1.232,0,0,0,.575-.809,2,2,0,0,0-.216-1.984c-.371-.377-.946-.464-1.355-.791-.946-.76-1.558-2.182-2.863-2.472C225.955,158.039,224.328,158.769,224.885,159.875Z" transform="translate(-59.39 -41.806)" fill="#37474f"/>
    <path id="Trazado_829143" data-name="Trazado 829143" d="M106.955,171.936a13.786,13.786,0,0,1-.371-2.045c.155-.155.309-.309.476-.458a17.9,17.9,0,0,1,3.958-2.4,4.026,4.026,0,0,1,2.406-.617,3.315,3.315,0,0,1,1.644,1.013c1.658,1.675,2.586,3.924,3.822,5.927,3.159,5.1,7.99,9.678,11.978,14.133,4.7,5.259,9.2,14.164,7.186,21.475l-.056-.383h-.08c-7.545-1.335-9.784-4.5-17.384-7.62-5.064-2.076-7.879-6.532-8.732-11.785-.414-2.547-.618-5.161-1.206-7.682C109.855,178.147,107.821,175.255,106.955,171.936Z" transform="translate(-28.162 -43.967)" fill="#f0f0f0"/>
    <path id="Trazado_829144" data-name="Trazado 829144" d="M111.685,145.937c.254-.426.514-.853.792-1.236a7.03,7.03,0,0,1,2.517-2.416c1.608-.815,3.513-.618,5.312-.791a22.879,22.879,0,0,0,7.421-2.262q2.77-1.236,5.609-2.738a11.125,11.125,0,0,1,1.478,1.274c2.029,2.089,3.2,5.382,1.856,7.947s-4.855,3.479-6.8,5.753c-1.416,1.656-1.9,3.894-2.77,5.89a10.6,10.6,0,0,1-.483.964c-1.645,2.843-4.181,3.374-7.563,2.794-3.209-.55-6.271-1.8-9.493-2.256a1.861,1.861,0,0,1-.854-.272,1.773,1.773,0,0,1-.55-.766c-.316-.656-.618-1.316-.915-1.978A37.983,37.983,0,0,1,111.685,145.937Z" transform="translate(-28.335 -36.063)" fill="#37474f"/>
    <path id="Trazado_829145" data-name="Trazado 829145" d="M84.862,120.226c-1.936-.426-2,2.311-1.936,3.554a14.2,14.2,0,0,0,1.027,4.906,10.765,10.765,0,0,0,3.148,3.783,21.574,21.574,0,0,1,2.1,1.644,2.471,2.471,0,0,1,.822,1.817c0-.074,1.484-1.409,1.707-1.675a5.932,5.932,0,0,0,.532-.618,4.8,4.8,0,0,0,.816-3.374C92.734,127.79,91.658,124.039,84.862,120.226Z" transform="translate(-21.907 -31.753)" fill="#505c44"/>
    <path id="Trazado_829146" data-name="Trazado 829146" d="M84.862,120.226c-1.936-.426-2,2.311-1.936,3.554a14.2,14.2,0,0,0,1.027,4.906,10.765,10.765,0,0,0,3.148,3.783,21.574,21.574,0,0,1,2.1,1.644,2.471,2.471,0,0,1,.822,1.817c0-.074,1.484-1.409,1.707-1.675a5.932,5.932,0,0,0,.532-.618,4.8,4.8,0,0,0,.816-3.374C92.734,127.79,91.658,124.039,84.862,120.226Z" transform="translate(-21.907 -31.753)" fill="#fff" opacity="0.6"/>
    <path id="Trazado_829147" data-name="Trazado 829147" d="M87.16,121.166c2.158,3.183,3.871,6.365,3.092,9.709a7.077,7.077,0,0,1-2.109-2.638A6.341,6.341,0,0,0,90,132.172a8.473,8.473,0,0,1,1.9,3.287c.414-.389.872-.822.989-.958a5.863,5.863,0,0,0,.532-.618,4.8,4.8,0,0,0,.816-3.374C93.876,128.2,92.886,124.75,87.16,121.166Z" transform="translate(-23.03 -32.013)" fill="#505c44" opacity="0.2"/>
    <path id="Trazado_829148" data-name="Trazado 829148" d="M90.9,127.1c-.087-.2-.186-.414-.285-.618a17.548,17.548,0,0,0-5.052-6.236,17.709,17.709,0,0,1,6.283,3.529c1.472,1.285,3.828,3.381,3.469,5.562a10.306,10.306,0,0,1-2.9,4.944A21.463,21.463,0,0,0,90.9,127.1Z" transform="translate(-22.608 -31.771)" fill="#e0e0e0"/>
    <path id="Trazado_829149" data-name="Trazado 829149" d="M102.45,123.979c-3.426-2.886-2.374-7.774-3.636-7.261s-4.02,4.394-2.709,9.394C97.5,129.609,103.519,126.927,102.45,123.979Z" transform="translate(-25.302 -30.827)" fill="#f5f5f5"/>
    <path id="Trazado_829150" data-name="Trazado 829150" d="M86.612,171.522a11.415,11.415,0,0,1-6.976-2.614c-2.14-1.854-2.474-4.975-2.622-6.668l-.037-.371c-.235-2.169.7-3.8,2.517-4.375h.062l.049-.043c1.855-1.854,5.38-7.138,6.184-10.277a27.474,27.474,0,0,0,.532-3.893c.322-3.405.73-7.651,2.6-10.766,2.474-4.153,5.12-4.629,6.883-4.629a12.393,12.393,0,0,1,3.272.618,21.66,21.66,0,0,0,3.259.723c.686.086,1.422.124,2.2.155,2.566.117,5.214.235,6.679,2.237a7.214,7.214,0,0,1,1.15,5.025c-.266,3.535.618,6.643,1.5,9.937l.18.618a12.655,12.655,0,0,1-.118,7.607c-1.515,4.27-5.231,5.562-9.165,6.885-2.474.853-5.077,1.736-7.111,3.448-.334.272-.7.618-1.095.94-2.152,1.891-5.1,4.48-8.04,5.209A8.029,8.029,0,0,1,86.612,171.522Z" transform="translate(-20.33 -33.788)" fill="#fafafa"/>
    <path id="Trazado_829151" data-name="Trazado 829151" d="M95.712,128.013a12.319,12.319,0,0,1,3.2.618,22.452,22.452,0,0,0,3.29.736c.7.086,1.441.117,2.226.155,2.5.111,5.083.222,6.475,2.126A6.8,6.8,0,0,1,112,136.492c-.266,3.578.618,6.711,1.515,10.03l.174.618a12.432,12.432,0,0,1-.105,7.416c-1.472,4.153-5.127,5.4-9,6.717a21.923,21.923,0,0,0-7.2,3.5c-.328.278-.693.618-1.095.952-2.134,1.854-5.053,4.437-7.934,5.147a7.837,7.837,0,0,1-1.855.216,11.26,11.26,0,0,1-6.8-2.552c-2.053-1.755-2.362-4.833-2.529-6.482a1.245,1.245,0,0,0-.037-.377c-.223-2.027.649-3.553,2.331-4.085l.13-.037.093-.1c1.892-1.891,5.442-7.212,6.271-10.4a28.333,28.333,0,0,0,.532-3.936c.322-3.38.724-7.589,2.566-10.648,2.418-4.035,4.947-4.505,6.648-4.505m0-.537c-2,0-4.638.618-7.111,4.764-2.777,4.623-2.381,11.742-3.16,14.727s-4.236,8.262-6.129,10.153a4.071,4.071,0,0,0-2.709,4.654c.173,1.564.359,5.173,2.752,7.218a11.751,11.751,0,0,0,7.167,2.694,8.247,8.247,0,0,0,1.973-.229c3.562-.884,7.136-4.431,9.276-6.211,5.127-4.326,13.8-3.251,16.357-10.444a13.068,13.068,0,0,0,.124-7.774c-.971-3.529-1.948-6.8-1.67-10.506a7.26,7.26,0,0,0-1.2-5.209c-2-2.738-6.122-2.126-9.072-2.472-2.566-.322-4.558-1.347-6.562-1.347Z" transform="translate(-20.228 -33.669)" fill="#e6e6e6"/>
    <path id="Trazado_829152" data-name="Trazado 829152" d="M89.849,169.211c2.066.074,5.145,1.891,4.063,5.129,1.033-.488,1.064-2.287.773-3.349-.495-1.854-1.292-1.706,0-4.326s4.3-9.1,4.3-9.1-3.815,6.18-5.083,8.169C92.051,168.691,90.2,168.031,89.849,169.211Z" transform="translate(-23.741 -41.631)" fill="#e0e0e0"/>
    <path id="Trazado_829153" data-name="Trazado 829153" d="M88.487,180.98c-3.519.865-7.273-.859-9.128-2.472-2.393-2.045-2.579-5.654-2.752-7.218a4.094,4.094,0,0,1,2.709-4.653,24.008,24.008,0,0,0,2.474-3.09,11.755,11.755,0,0,1,1.237.037c3.092.285,7.532,2.243,9.456,4.654,1.707,2.151,1.923,3.943,2.381,6.643.081.476.21,1.681.229,2.163A17.651,17.651,0,0,1,88.487,180.98Z" transform="translate(-20.232 -43.21)" fill="#505c44"/>
    <path id="Trazado_829154" data-name="Trazado 829154" d="M88.487,180.98c-3.519.865-7.273-.859-9.128-2.472-2.393-2.045-2.579-5.654-2.752-7.218a4.094,4.094,0,0,1,2.709-4.653,24.008,24.008,0,0,0,2.474-3.09,11.755,11.755,0,0,1,1.237.037c3.092.285,7.532,2.243,9.456,4.654,1.707,2.151,1.923,3.943,2.381,6.643.081.476.21,1.681.229,2.163A17.651,17.651,0,0,1,88.487,180.98Z" transform="translate(-20.232 -43.21)" fill="#fff" opacity="0.5"/>
    <path id="Trazado_829155" data-name="Trazado 829155" d="M78.665,180.866a5.1,5.1,0,0,0,1.936.587,8.243,8.243,0,0,1,1.985.451,8.3,8.3,0,0,1,1.478.921,4.813,4.813,0,0,0,1.484.581,5.244,5.244,0,0,0,4.867-1.236,3.5,3.5,0,0,1-2.3,1.687,6.807,6.807,0,0,1-3.97-.129c-.662-.285-1.206-.674-1.855-.958a4.834,4.834,0,0,0-1.336-.291,3.74,3.74,0,0,1-2.727-1.489,8.043,8.043,0,0,1-.421-.945A3.161,3.161,0,0,0,78.665,180.866Z" transform="translate(-20.558 -47.57)" fill="#505c44" opacity="0.3"/>
    <path id="Trazado_829156" data-name="Trazado 829156" d="M88.569,176.949a1.327,1.327,0,0,0,.068,1.335,1.379,1.379,0,0,0,2.27-.464c.284-.618.185-1.31.42-1.928a3.873,3.873,0,0,1,1.342-1.527c.062-.049.13-.142.074-.2a.112.112,0,0,0-.054-.032.109.109,0,0,0-.063,0,4.106,4.106,0,0,0-1.892.489,5.05,5.05,0,0,0-2.022,2.02C88.662,176.745,88.612,176.844,88.569,176.949Z" transform="translate(-23.363 -46.008)" fill="#455a64"/>
    <path id="Trazado_829157" data-name="Trazado 829157" d="M80.035,173.138c0,.488-.414,2.009-1.237,1.366-.575-.457-.179-1.52,0-2.07a3.375,3.375,0,0,0,.161-1.7c-.043-.247-.056-.921.3-.408a4.738,4.738,0,0,1,.724,2.4A1.074,1.074,0,0,1,80.035,173.138Z" transform="translate(-20.741 -44.953)" fill="#455a64"/>
    <path id="Trazado_829158" data-name="Trazado 829158" d="M108.234,152.2a5.5,5.5,0,0,1,2.053-.494,3.949,3.949,0,0,1,1.175.111,2.434,2.434,0,0,1,.915.445c.043.031.08.18,0,.173a8.513,8.513,0,0,0-1.163,0,10.354,10.354,0,0,0-1.188.1,4.379,4.379,0,0,0-1.552.433,5.376,5.376,0,0,0-1.36.989c-.618.519-.692.617-1.138.995-.038,0-.081-.056-.074-.08A4.018,4.018,0,0,1,108.234,152.2Z" transform="translate(-27.982 -40.08)" fill="#263238"/>
    <path id="Trazado_829159" data-name="Trazado 829159" d="M108.584,154.175a1.638,1.638,0,1,0,.48-1.158A1.64,1.64,0,0,0,108.584,154.175Z" transform="translate(-28.691 -40.302)" fill="#263238"/>
    <path id="Trazado_829160" data-name="Trazado 829160" d="M117.491,127.019c4.106-1.8,4.484-6.8,5.566-5.938s2.616,5.351-.062,9.776C120.664,133.817,115.637,129.541,117.491,127.019Z" transform="translate(-30.938 -31.964)" fill="#f5f5f5"/>
    <path id="Trazado_829161" data-name="Trazado 829161" d="M137.669,127.936c2.207.513.927,3.368.241,4.61a15.91,15.91,0,0,1-3.47,4.549,12.311,12.311,0,0,1-5.1,2.349,25.241,25.241,0,0,0-2.975.655,2.805,2.805,0,0,0-1.744,1.465c.038-.074-.841-2.182-.934-2.558a6.428,6.428,0,0,1-.235-.921,5.45,5.45,0,0,1,.823-3.875C125.839,131.854,128.8,128.517,137.669,127.936Z" transform="translate(-32.6 -33.802)" fill="#505c44"/>
    <path id="Trazado_829162" data-name="Trazado 829162" d="M137.669,127.936c2.207.513.927,3.368.241,4.61a15.91,15.91,0,0,1-3.47,4.549,12.311,12.311,0,0,1-5.1,2.349,25.241,25.241,0,0,0-2.975.655,2.805,2.805,0,0,0-1.744,1.465c.038-.074-.841-2.182-.934-2.558a6.428,6.428,0,0,1-.235-.921,5.45,5.45,0,0,1,.823-3.875C125.839,131.854,128.8,128.517,137.669,127.936Z" transform="translate(-32.6 -33.802)" fill="#fff" opacity="0.6"/>
    <path id="Trazado_829163" data-name="Trazado 829163" d="M136.123,128.12c-3.8,2.212-7.124,4.654-7.959,8.485a8.265,8.265,0,0,0,3.476-1.686c-.686,1.544-2.307,2.422-3.828,3.157a9.253,9.253,0,0,0-3.58,2.472c-.235-.618-.5-1.273-.544-1.471a6.418,6.418,0,0,1-.235-.92,5.452,5.452,0,0,1,.823-3.875C125.746,132.045,128.43,128.967,136.123,128.12Z" transform="translate(-32.6 -33.851)" fill="#505c44" opacity="0.2"/>
    <path id="Trazado_829164" data-name="Trazado 829164" d="M128.622,132.295a7.419,7.419,0,0,1,.618-.494,20.132,20.132,0,0,1,8.275-3.943,20.2,20.2,0,0,0-8.224.55c-2.152.618-5.615,1.594-6.32,4.023-.619,2.169-.056,4.412.563,6.5A24.187,24.187,0,0,1,128.622,132.295Z" transform="translate(-32.421 -33.73)" fill="#e0e0e0"/>
    <path id="Trazado_829165" data-name="Trazado 829165" d="M110.357,134.509a.9.9,0,0,1-1,.111c-.291-.185-.421-.568-.723-.742a4.007,4.007,0,0,1-2.839,2.176,2.609,2.609,0,0,1-2.888-1.774,4.331,4.331,0,0,1-2.388.742,2.6,2.6,0,0,1-2.152-1.131,4.271,4.271,0,0,1-.13-3.207c-.618.315-1.391-.358-1.41-1.057a2.658,2.658,0,0,1,.921-1.823c2.053-2.132,5.046-2.731,7.885-2.892,2.542-.148,6.1.414,8.04,2.281a5.761,5.761,0,0,1-1.126.723,6.17,6.17,0,0,0-.866,2.1,33.921,33.921,0,0,1-.711,3.541,2.047,2.047,0,0,1-.569.933Z" transform="translate(-25.584 -32.997)" fill="#505c44"/>
    <path id="Trazado_829166" data-name="Trazado 829166" d="M110.323,134.508a.908.908,0,0,1-1,.111c-.291-.185-.42-.575-.723-.748a4.016,4.016,0,0,1-2.839,2.182,2.611,2.611,0,0,1-2.888-1.774,4.409,4.409,0,0,1-2.387.742,2.6,2.6,0,0,1-2.152-1.131,4.159,4.159,0,0,1-.13-3.207c-.618.316-1.391-.358-1.41-1.062a2.656,2.656,0,0,1,.921-1.817c2.053-2.132,5.047-2.731,7.885-2.9,2.541-.142,6.11.42,8.039,2.287a6.045,6.045,0,0,1-1.126.723,6.184,6.184,0,0,0-.865,2.1,33.928,33.928,0,0,1-.712,3.541,2.079,2.079,0,0,1-.569.933Z" transform="translate(-25.575 -32.995)" fill="#fff" opacity="0.6"/>
    <path id="Trazado_829167" data-name="Trazado 829167" d="M108.473,135.848a5.264,5.264,0,0,0,1.855-2.855,2.634,2.634,0,0,0,1.725.365.8.8,0,0,0,.569-.278.89.89,0,0,0,.062-.661,14.847,14.847,0,0,1-.358-2.441,3.007,3.007,0,0,1,.81-2.255c.483-.458,1.237-.8,1.33-1.416a6.58,6.58,0,0,1,1.856,1.236,6.047,6.047,0,0,1-1.126.723,6.167,6.167,0,0,0-.866,2.1,33.886,33.886,0,0,1-.711,3.541,2.074,2.074,0,0,1-.569.933.909.909,0,0,1-1,.112c-.291-.185-.421-.575-.724-.748a4.016,4.016,0,0,1-2.839,2.182,2.78,2.78,0,0,1-1.515-.235A2.523,2.523,0,0,0,108.473,135.848Z" transform="translate(-28.264 -33.371)" fill="#505c44" opacity="0.2"/>
    <path id="Trazado_829168" data-name="Trazado 829168" d="M246.4,55.9s-2.882-1.854-1.522-3.813l4.465,3.374Z" transform="translate(-64.605 -13.762)" fill="#f28f8f"/>
    <path id="Trazado_829169" data-name="Trazado 829169" d="M243.791,79.421s-6.834-.365-6.549-1.854c.216-1.137-.761-1.737-.514-2.324.334-.772.507-.908.4-1.5s.056-1.774,1.305-1.619c.711.093,1.237.185,1.237.185s2.641-1.007,2.838-1.125a29.84,29.84,0,0,1,3.711,1.928l.272,3.133-2.826,2.966L238.1,76.51l.667-.908" transform="translate(-62.539 -18.806)" fill="#ffa8a7"/>
    <path id="Trazado_829170" data-name="Trazado 829170" d="M237.332,78.759a28.724,28.724,0,0,0,3.834.618c2.071.2-1.856.266-3.779-.47Z" transform="translate(-62.709 -20.808)" fill="#b16668"/>
    <path id="Trazado_829171" data-name="Trazado 829171" d="M236.928,76.373a22.922,22.922,0,0,0,4.273.457c2.127.13-2.622.414-4.217-.334Z" transform="translate(-62.603 -20.178)" fill="#b16668"/>
    <path id="Trazado_829172" data-name="Trazado 829172" d="M237.332,74.131a28.724,28.724,0,0,0,3.834.618c2.071.192-1.856.266-3.779-.47Z" transform="translate(-62.709 -19.585)" fill="#b16668"/>
  </g>
</svg>
